<?xml version="1.0" standalone="no"?>
<!DOCTYPE svg PUBLIC "-//W3C//DTD SVG 1.1//EN" "http://www.w3.org/Graphics/SVG/1.1/DTD/svg11.dtd" >
<svg xmlns="http://www.w3.org/2000/svg" xmlns:xlink="http://www.w3.org/1999/xlink" version="1.1">
<metadata>
Created by FontForge 20161116 at Thu Jul 16 11:59:30 2009
 By Jimmy Wärting
Copyright (c) 2009 by Eduardo Manso. All rights reserved.
</metadata>
<defs>
<font id="Geogrotesque-Bold" horiz-adv-x="260" >
  <font-face 
    font-family="Geogrotesque Bd"
    font-weight="700"
    font-stretch="normal"
    units-per-em="1000"
    panose-1="2 0 0 0 0 0 0 0 0 0"
    ascent="750"
    descent="-250"
    x-height="500"
    cap-height="680"
    bbox="-97.625 -278.487 1411 964"
    underline-thickness="50"
    underline-position="-100"
    stemh="135"
    stemv="165"
    unicode-range="U+0020-FB04"
  />
<missing-glyph horiz-adv-x="841" 
d="M668 94c-68 -67 -157 -102 -249 -102c-89 0 -179 35 -246 102c-68 67 -103 157 -103 247c0 89 35 179 103 247c67 67 157 102 246 102c90 0 182 -35 249 -102s103 -158 103 -247c0 -91 -36 -180 -103 -247zM656 106c65 65 99 150 99 235s-34 170 -99 235s-151 98 -237 98
c-85 0 -169 -33 -234 -98c-66 -66 -99 -150 -99 -235s33 -170 99 -235c65 -65 149 -98 234 -98c87 0 172 33 237 98zM512 160l-92 92l-92 -92c-15 -15 -27 -16 -42 0l-51 52c-15 14 -14 26 1 40l92 92l-92 92c-16 16 -17 27 -2 41l51 52c16 15 28 15 43 -1l92 -92l92 92
c16 16 27 17 41 2l52 -51c15 -16 15 -28 -1 -43l-92 -92l92 -92c15 -15 16 -27 0 -42l-52 -51c-14 -15 -26 -14 -40 1z" />
    <glyph glyph-name="ff" unicode="ff" horiz-adv-x="675" 
d="M93 498h1v49c0 95 76 156 227 156h11c21 0 30 -8 30 -29v-71c0 -21 -9 -30 -30 -30h-11c-41 0 -67 -11 -67 -44v-31h153v49c0 95 76 156 227 156h11c21 0 30 -8 30 -29v-71c0 -21 -9 -30 -30 -30h-11c-41 0 -67 -11 -67 -44v-31h71c21 0 30 -7 30 -28v-68
c0 -21 -9 -29 -30 -29h-71v-343c0 -21 -7 -30 -28 -30h-103c-21 0 -29 9 -29 30v343h-153v-343c0 -21 -7 -30 -28 -30h-103c-21 0 -29 9 -29 30v343h-50c-21 0 -29 8 -29 29v61c0 21 8 26 29 29z" />
    <glyph glyph-name="fi" unicode="fi" horiz-adv-x="617" 
d="M567 470v-440c0 -21 -7 -30 -28 -30h-103c-21 0 -29 9 -29 30v343h-153v-343c0 -21 -7 -30 -28 -30h-103c-21 0 -29 9 -29 30v343h-50c-21 0 -29 8 -29 29v61c0 21 8 26 29 29l49 6h1v45c0 95 76 156 227 156h216c21 0 30 -8 30 -29v-71c0 -21 -9 -30 -30 -30h-216
c-41 0 -67 -11 -67 -44v-27h283c21 0 30 -7 30 -28z" />
    <glyph glyph-name="ffi" unicode="ffi" horiz-adv-x="930" 
d="M93 498h1v49c0 95 76 156 227 156h11c21 0 30 -8 30 -29v-71c0 -21 -9 -30 -30 -30h-11c-41 0 -67 -11 -67 -44v-31h153v45c0 95 76 156 227 156h216c21 0 30 -8 30 -29v-71c0 -21 -9 -30 -30 -30h-216c-41 0 -67 -11 -67 -44v-27h283c21 0 30 -7 30 -28v-440
c0 -21 -7 -30 -28 -30h-103c-21 0 -29 9 -29 30v343h-153v-343c0 -21 -7 -30 -28 -30h-103c-21 0 -29 9 -29 30v343h-153v-343c0 -21 -7 -30 -28 -30h-103c-21 0 -29 9 -29 30v343h-50c-21 0 -29 8 -29 29v61c0 21 8 26 29 29z" />
    <glyph glyph-name="fl" unicode="fl" horiz-adv-x="617" 
d="M567 670v-640c0 -21 -7 -30 -28 -30h-103c-21 0 -29 9 -29 30v539h-86c-41 0 -67 -11 -67 -44v-27h71c21 0 30 -7 30 -28v-68c0 -21 -9 -29 -30 -29h-71v-343c0 -21 -7 -30 -28 -30h-103c-21 0 -29 9 -29 30v343h-50c-21 0 -29 8 -29 29v61c0 21 8 26 29 29l49 6h1v45
c0 95 76 156 227 156h216c21 0 30 -8 30 -29z" />
    <glyph glyph-name="ffl" unicode="ffl" horiz-adv-x="930" 
d="M93 498h1v49c0 95 76 156 227 156h11c21 0 30 -8 30 -29v-71c0 -21 -9 -30 -30 -30h-11c-41 0 -67 -11 -67 -44v-31h153v45c0 95 76 156 227 156h216c21 0 30 -8 30 -29v-640c0 -21 -7 -30 -28 -30h-103c-21 0 -29 9 -29 30v539h-86c-41 0 -67 -11 -67 -44v-27h71
c21 0 30 -7 30 -28v-68c0 -21 -9 -29 -30 -29h-71v-343c0 -21 -7 -30 -28 -30h-103c-21 0 -29 9 -29 30v343h-153v-343c0 -21 -7 -30 -28 -30h-103c-21 0 -29 9 -29 30v343h-50c-21 0 -29 8 -29 29v61c0 21 8 26 29 29z" />
    <glyph glyph-name=".notdef" horiz-adv-x="841" 
d="M668 94c-68 -67 -157 -102 -249 -102c-89 0 -179 35 -246 102c-68 67 -103 157 -103 247c0 89 35 179 103 247c67 67 157 102 246 102c90 0 182 -35 249 -102s103 -158 103 -247c0 -91 -36 -180 -103 -247zM656 106c65 65 99 150 99 235s-34 170 -99 235s-151 98 -237 98
c-85 0 -169 -33 -234 -98c-66 -66 -99 -150 -99 -235s33 -170 99 -235c65 -65 149 -98 234 -98c87 0 172 33 237 98zM512 160l-92 92l-92 -92c-15 -15 -27 -16 -42 0l-51 52c-15 14 -14 26 1 40l92 92l-92 92c-16 16 -17 27 -2 41l51 52c16 15 28 15 43 -1l92 -92l92 92
c16 16 27 17 41 2l52 -51c15 -16 15 -28 -1 -43l-92 -92l92 -92c15 -15 16 -27 0 -42l-52 -51c-14 -15 -26 -14 -40 1z" />
    <glyph glyph-name=".null" horiz-adv-x="0" 
 />
    <glyph glyph-name="CR" horiz-adv-x="0" 
 />
    <glyph glyph-name="space" unicode=" " horiz-adv-x="180" 
 />
    <glyph glyph-name="A" unicode="A" horiz-adv-x="566" 
d="M337 680c21 0 31 -10 37 -30l181 -620c6 -19 -1 -30 -22 -30h-111c-21 0 -30 11 -35 30l-26 96h-166l-26 -96c-5 -19 -14 -30 -35 -30h-101c-21 0 -28 11 -22 30l181 620c6 20 16 30 37 30h108zM325 256l-14 54c-16 61 -30 200 -31 209c-2 -14 -18 -151 -34 -209l-15 -54
h94z" />
    <glyph glyph-name="B" unicode="B" horiz-adv-x="599" 
d="M310 0h-221c-21 0 -29 9 -29 30v620c0 21 8 30 29 30h188c188 0 254 -70 254 -156v-55c0 -48 -23 -85 -68 -111c62 -25 101 -67 101 -120v-74c0 -86 -66 -164 -254 -164zM310 284h-85v-154h85c49 0 91 18 91 64v32c0 38 -42 58 -91 58zM277 550h-52v-144h52
c49 0 91 19 91 66v26c0 46 -42 52 -91 52z" />
    <glyph glyph-name="C" unicode="C" horiz-adv-x="577" 
d="M542 224v-61c0 -86 -58 -171 -246 -171s-246 85 -246 171v354c0 86 58 171 246 171s246 -85 246 -171v-46c0 -21 -7 -30 -28 -30h-103c-21 0 -29 9 -29 30v17c0 46 -35 65 -84 65s-83 -19 -83 -65v-296c0 -46 34 -65 83 -65s84 19 84 65v32c0 21 8 30 29 30h103
c21 0 28 -9 28 -30z" />
    <glyph glyph-name="D" unicode="D" horiz-adv-x="621" 
d="M315 0h-230c-18 0 -25 10 -25 30v620c0 21 8 30 29 30h226c188 0 256 -85 256 -171v-338c0 -86 -68 -171 -256 -171zM315 545h-90v-410h90c49 0 91 19 91 65v280c0 46 -42 65 -91 65z" />
    <glyph glyph-name="E" unicode="E" horiz-adv-x="506" 
d="M441 0h-352c-21 0 -29 9 -29 30v620c0 21 8 30 29 30h342c21 0 30 -7 30 -28v-78c0 -21 -9 -29 -30 -29h-206v-130h190c21 0 30 -7 30 -28v-73c0 -21 -9 -29 -30 -29h-190v-150h216c21 0 30 -7 30 -28v-78c0 -21 -9 -29 -30 -29z" />
    <glyph glyph-name="F" unicode="F" horiz-adv-x="514" 
d="M454 680c21 0 30 -7 30 -28v-78c0 -21 -9 -29 -30 -29h-229v-130h213c21 0 30 -7 30 -28v-78c0 -21 -9 -29 -30 -29h-213v-250c0 -21 -7 -30 -28 -30h-108c-21 0 -29 9 -29 30v620c0 21 8 30 29 30h365z" />
    <glyph glyph-name="G" unicode="G" horiz-adv-x="587" 
d="M300 370h212c21 0 30 -7 30 -28v-179c0 -86 -58 -171 -246 -171s-246 85 -246 171v354c0 86 58 171 246 171s246 -85 246 -171v-36c0 -21 -7 -30 -28 -30h-103c-21 0 -29 9 -29 30v7c0 46 -35 65 -84 65s-83 -19 -83 -65v-296c0 -46 34 -65 83 -65s84 19 84 65v43h-82
c-21 0 -30 8 -30 29v78c0 21 9 28 30 28z" />
    <glyph glyph-name="H" unicode="H" horiz-adv-x="631" 
d="M225 650v-238h181v238c0 21 8 30 29 30h108c21 0 28 -9 28 -30v-620c0 -21 -7 -30 -28 -30h-108c-21 0 -29 9 -29 30v247h-181v-247c0 -21 -7 -30 -28 -30h-108c-21 0 -29 9 -29 30v620c0 21 8 30 29 30h108c21 0 28 -9 28 -30z" />
    <glyph glyph-name="I" unicode="I" horiz-adv-x="285" 
d="M225 650v-620c0 -21 -7 -30 -28 -30h-108c-21 0 -29 9 -29 30v620c0 21 8 30 29 30h108c21 0 28 -9 28 -30z" />
    <glyph glyph-name="J" unicode="J" horiz-adv-x="523" 
d="M172 229v-37c0 -46 28 -65 70 -65s61 19 61 65v458c0 21 8 30 29 30h108c21 0 28 -9 28 -30v-487c0 -86 -50 -171 -226 -171s-232 85 -232 171v66c0 21 8 30 29 30h105c21 0 28 -9 28 -30z" />
    <glyph glyph-name="K" unicode="K" horiz-adv-x="600" 
d="M374 346l215 -316c10 -15 6 -30 -15 -30h-138c-21 0 -32 15 -42 30l-158 245h-11v-245c0 -21 -7 -30 -28 -30h-108c-21 0 -29 9 -29 30v620c0 21 8 30 29 30h108c21 0 28 -9 28 -30v-255h10l153 255c10 16 26 30 47 30h115c21 0 24 -14 14 -30z" />
    <glyph glyph-name="L" unicode="L" horiz-adv-x="471" 
d="M225 650v-515h196c21 0 30 -7 30 -28v-78c0 -21 -9 -29 -30 -29h-336c-18 0 -25 10 -25 30v620c0 21 8 30 29 30h108c21 0 28 -9 28 -30z" />
    <glyph glyph-name="M" unicode="M" horiz-adv-x="756" 
d="M696 650v-620c0 -21 -7 -30 -28 -30h-103c-21 0 -29 9 -29 30v317c-1 -3 -20 -73 -32 -105l-44 -109c-8 -20 -19 -30 -39 -30h-87c-20 0 -30 12 -38 30l-55 127c-11 26 -24 76 -26 84v-314c0 -21 -7 -30 -28 -30h-98c-21 0 -29 9 -29 30v620c0 21 8 30 29 30h98
c15 0 21 -6 26 -16l136 -306c14 -34 27 -75 29 -79c0 2 10 33 29 77l131 310c4 10 12 14 27 14h103c21 0 28 -9 28 -30z" />
    <glyph glyph-name="N" unicode="N" horiz-adv-x="631" 
d="M571 650v-620c0 -21 -7 -30 -28 -30h-98c-15 0 -21 4 -27 14l-160 266c-17 27 -32 62 -43 90v-340c0 -21 -7 -30 -28 -30h-98c-21 0 -29 9 -29 30v620c0 21 8 30 29 30h98c13 0 21 -4 25 -12l169 -283c12 -21 25 -51 35 -75v340c0 21 8 30 29 30h98c21 0 28 -9 28 -30z
" />
    <glyph glyph-name="O" unicode="O" horiz-adv-x="611" 
d="M50 163v354c0 86 67 171 255 171s256 -85 256 -171v-354c0 -86 -68 -171 -256 -171s-255 85 -255 171zM396 192v296c0 46 -42 65 -91 65s-90 -19 -90 -65v-296c0 -46 41 -65 90 -65s91 19 91 65z" />
    <glyph glyph-name="P" unicode="P" horiz-adv-x="586" 
d="M305 231h-80v-201c0 -21 -7 -30 -28 -30h-108c-21 0 -29 9 -29 30v620c0 21 8 30 29 30h216c188 0 254 -85 254 -171v-107c0 -86 -66 -171 -254 -171zM305 545h-80v-179h80c49 0 91 19 91 65v49c0 46 -42 65 -91 65z" />
    <glyph glyph-name="Q" unicode="Q" horiz-adv-x="611" 
d="M561 517v-354c0 -65 -38 -128 -136 -156l95 -84c16 -14 17 -28 4 -41l-54 -58c-12 -13 -27 -14 -41 -2l-189 174c-139 17 -190 91 -190 167v354c0 86 67 171 255 171s256 -85 256 -171zM215 492v-304c0 -46 41 -65 90 -65s91 19 91 65v304c0 46 -42 65 -91 65
s-90 -19 -90 -65z" />
    <glyph glyph-name="R" unicode="R" horiz-adv-x="604" 
d="M559 422c0 -57 -29 -114 -104 -146l98 -246c7 -18 -6 -30 -28 -30h-108c-19 0 -23 16 -29 30l-88 221h-75v-221c0 -21 -7 -30 -28 -30h-108c-21 0 -29 9 -29 30v620c0 21 8 30 29 30h216c188 0 254 -85 254 -171v-87zM305 545h-80v-159h80c49 0 91 19 91 65v29
c0 46 -42 65 -91 65z" />
    <glyph glyph-name="S" unicode="S" horiz-adv-x="575" 
d="M372 480v15c0 46 -32 63 -78 63s-79 -17 -79 -63v-10c0 -27 21 -39 32 -43l168 -57c74 -25 125 -77 125 -151v-71c0 -86 -61 -171 -249 -171s-251 85 -251 171v67c0 21 8 30 29 30h104c21 0 28 -9 28 -30v-45c0 -46 39 -63 88 -63s89 17 89 63v20c0 36 -48 53 -86 67
l-144 54c-51 19 -93 75 -93 133v58c0 86 52 171 237 171s241 -85 241 -171v-37c0 -21 -8 -30 -29 -30h-104c-21 0 -28 9 -28 30z" />
    <glyph glyph-name="T" unicode="T" horiz-adv-x="497" 
d="M38 680h421c21 0 30 -7 30 -28v-78c0 -21 -9 -29 -30 -29h-128v-515c0 -21 -7 -30 -28 -30h-108c-21 0 -29 9 -29 30v515h-128c-21 0 -30 8 -30 29v78c0 21 9 28 30 28z" />
    <glyph glyph-name="U" unicode="U" horiz-adv-x="621" 
d="M220 650v-458c0 -46 41 -65 90 -65s91 19 91 65v458c0 21 8 30 29 30h108c21 0 28 -9 28 -30v-487c0 -86 -68 -171 -256 -171s-255 85 -255 171v487c0 21 8 30 29 30h108c21 0 28 -9 28 -30z" />
    <glyph glyph-name="V" unicode="V" horiz-adv-x="566" 
d="M337 0h-108c-21 0 -31 10 -37 30l-181 620c-6 19 1 30 22 30h118c21 0 30 -11 35 -30l75 -280c15 -56 25 -163 25 -163s13 107 28 163l76 280c5 19 14 30 35 30h108c21 0 28 -11 22 -30l-181 -620c-6 -20 -16 -30 -37 -30z" />
    <glyph glyph-name="W" unicode="W" horiz-adv-x="855" 
d="M521 650l68 -279c9 -36 16 -97 17 -108c1 8 7 64 18 107l70 280c5 19 14 30 35 30h94c21 0 27 -11 22 -30l-156 -620c-5 -21 -16 -30 -37 -30h-105c-18 0 -28 11 -33 30l-72 288c-7 29 -13 89 -14 101c-1 -10 -9 -75 -15 -102l-72 -287c-5 -21 -16 -30 -37 -30h-105
c-18 0 -28 11 -33 30l-156 620c-5 19 1 30 22 30h110c21 0 30 -11 35 -30l68 -280c7 -31 14 -79 16 -89c1 7 8 49 18 89l71 280c5 19 14 30 35 30h101c21 0 30 -11 35 -30z" />
    <glyph glyph-name="X" unicode="X" horiz-adv-x="584" 
d="M379 351l184 -321c9 -16 6 -30 -15 -30h-124c-21 0 -33 14 -42 30l-102 177l-89 -177c-8 -16 -21 -30 -42 -30h-116c-20 0 -21 19 -12 35l176 318l-168 294c-10 17 -9 33 12 33h124c21 0 33 -12 43 -30l91 -160l85 160c9 17 22 30 43 30h114c21 0 24 -13 14 -30z" />
    <glyph glyph-name="Y" unicode="Y" horiz-adv-x="558" 
d="M191 650l71 -199c8 -23 16 -56 17 -60c1 4 11 40 20 60l84 199c7 17 14 30 35 30h106c21 0 31 -11 22 -30l-184 -398v-222c0 -21 -7 -30 -28 -30h-108c-21 0 -29 9 -29 30v202l-185 418c-8 18 0 30 21 30h122c21 0 30 -12 36 -30z" />
    <glyph glyph-name="Z" unicode="Z" horiz-adv-x="494" 
d="M72 680h359c21 0 30 -7 30 -28v-78c0 -10 -3 -16 -6 -22l-232 -417h226c21 0 30 -7 30 -28v-78c0 -21 -9 -29 -30 -29h-394c-21 0 -30 8 -30 29v78c0 9 2 15 5 20l233 418h-191c-21 0 -30 8 -30 29v78c0 21 9 28 30 28z" />
    <glyph glyph-name="Agrave" unicode="&#xc0;" horiz-adv-x="566" 
d="M337 680c21 0 31 -10 37 -30l181 -620c6 -19 -1 -30 -22 -30h-111c-21 0 -30 11 -35 30l-26 96h-166l-26 -96c-5 -19 -14 -30 -35 -30h-101c-21 0 -28 11 -22 30l181 620c6 20 16 30 37 30h108zM325 256l-14 54c-16 61 -30 200 -31 209c-2 -14 -18 -151 -34 -209l-15 -54
h94zM194 747l-69 101c-12 17 -6 30 15 30h107c21 0 33 -12 41 -30l40 -92c9 -21 2 -29 -16 -29h-79c-21 0 -33 11 -39 20z" />
    <glyph glyph-name="Aacute" unicode="&#xc1;" horiz-adv-x="566" 
d="M337 680c21 0 31 -10 37 -30l181 -620c6 -19 -1 -30 -22 -30h-111c-21 0 -30 11 -35 30l-26 96h-166l-26 -96c-5 -19 -14 -30 -35 -30h-101c-21 0 -28 11 -22 30l181 620c6 20 16 30 37 30h108zM325 256l-14 54c-16 61 -30 200 -31 209c-2 -14 -18 -151 -34 -209l-15 -54
h94zM431 848l-69 -101c-6 -9 -18 -20 -39 -20h-79c-18 0 -25 8 -16 29l40 92c8 18 20 30 41 30h107c21 0 27 -13 15 -30z" />
    <glyph glyph-name="Acircumflex" unicode="&#xc2;" horiz-adv-x="566" 
d="M337 680c21 0 31 -10 37 -30l181 -620c6 -19 -1 -30 -22 -30h-111c-21 0 -30 11 -35 30l-26 96h-166l-26 -96c-5 -19 -14 -30 -35 -30h-101c-21 0 -28 11 -22 30l181 620c6 20 16 30 37 30h108zM325 256l-14 54c-16 61 -30 200 -31 209c-2 -14 -18 -151 -34 -209l-15 -54
h94zM283 784l-12 -28c-6 -14 -20 -29 -41 -29h-78c-21 0 -28 13 -16 29l71 92c13 17 26 30 47 30h58c21 0 34 -13 47 -30l71 -92c12 -16 5 -29 -16 -29h-78c-21 0 -34 14 -41 29z" />
    <glyph glyph-name="Atilde" unicode="&#xc3;" horiz-adv-x="566" 
d="M337 680c21 0 31 -10 37 -30l181 -620c6 -19 -1 -30 -22 -30h-111c-21 0 -30 11 -35 30l-26 96h-166l-26 -96c-5 -19 -14 -30 -35 -30h-101c-21 0 -28 11 -22 30l181 620c6 20 16 30 37 30h108zM325 256l-14 54c-16 61 -30 200 -31 209c-2 -14 -18 -151 -34 -209l-15 -54
h94zM229 770c-9 0 -17 -5 -19 -13l-1 -4c-5 -21 -13 -26 -32 -26h-53c-20 0 -26 14 -24 34l6 49c6 47 46 76 94 76c23 0 43 -5 58 -11l42 -16c15 -6 27 -12 36 -12c10 0 17 5 19 13l1 4c5 20 12 26 32 26h52c22 0 27 -13 25 -34l-4 -45c-5 -51 -41 -76 -84 -76
c-34 0 -50 4 -69 10l-43 14c-17 6 -27 11 -36 11z" />
    <glyph glyph-name="Adieresis" unicode="&#xc4;" horiz-adv-x="566" 
d="M337 680c21 0 31 -10 37 -30l181 -620c6 -19 -1 -30 -22 -30h-111c-21 0 -30 11 -35 30l-26 96h-166l-26 -96c-5 -19 -14 -30 -35 -30h-101c-21 0 -28 11 -22 30l181 620c6 20 16 30 37 30h108zM325 256l-14 54c-16 61 -30 200 -31 209c-2 -14 -18 -151 -34 -209l-15 -54
h94zM264 848v-92c0 -21 -7 -29 -28 -29h-60c-21 0 -29 8 -29 29v92c0 21 8 30 29 30h60c21 0 28 -9 28 -30zM419 848v-92c0 -21 -7 -29 -28 -29h-60c-21 0 -29 8 -29 29v92c0 21 8 30 29 30h60c21 0 28 -9 28 -30z" />
    <glyph glyph-name="Amacron" unicode="&#x100;" horiz-adv-x="566" 
d="M337 680c21 0 31 -10 37 -30l181 -620c6 -19 -1 -30 -22 -30h-111c-21 0 -30 11 -35 30l-26 96h-166l-26 -96c-5 -19 -14 -30 -35 -30h-101c-21 0 -28 11 -22 30l181 620c6 20 16 30 37 30h108zM325 256l-14 54c-16 61 -30 200 -31 209c-2 -14 -18 -151 -34 -209l-15 -54
h94zM172 860h221c21 0 30 -7 30 -28v-63c0 -21 -9 -29 -30 -29h-221c-21 0 -30 8 -30 29v63c0 21 9 28 30 28z" />
    <glyph glyph-name="Abreve" unicode="&#x102;" horiz-adv-x="566" 
d="M337 680c21 0 31 -10 37 -30l181 -620c6 -19 -1 -30 -22 -30h-111c-21 0 -30 11 -35 30l-26 96h-166l-26 -96c-5 -19 -14 -30 -35 -30h-101c-21 0 -28 11 -22 30l181 620c6 20 16 30 37 30h108zM325 256l-14 54c-16 61 -30 200 -31 209c-2 -14 -18 -151 -34 -209l-15 -54
h94zM248 857v-17c0 -20 10 -33 35 -33s35 13 35 33v17c0 18 7 24 26 24h61c19 0 26 -6 26 -24v-13c0 -84 -59 -130 -152 -130s-144 46 -144 130v13c0 18 7 24 26 24h61c19 0 26 -6 26 -24z" />
    <glyph glyph-name="Aring" unicode="&#xc5;" horiz-adv-x="566" 
d="M337 680c21 0 31 -10 37 -30l181 -620c6 -19 -1 -30 -22 -30h-111c-21 0 -30 11 -35 30l-26 96h-166l-26 -96c-5 -19 -14 -30 -35 -30h-101c-21 0 -28 11 -22 30l181 620c6 20 16 30 37 30h108zM325 256l-14 54c-16 61 -30 200 -31 209c-2 -14 -18 -151 -34 -209l-15 -54
h94zM405 826v-34c0 -41 -36 -80 -122 -80s-122 39 -122 80v34c0 41 36 80 122 80s122 -39 122 -80zM321 801v16c0 21 -17 27 -38 27s-38 -6 -38 -27v-16c0 -21 17 -28 38 -28s38 7 38 28z" />
    <glyph glyph-name="Aringacute" unicode="&#x1fa;" horiz-adv-x="566" 
d="M337 680c21 0 31 -10 37 -30l181 -620c6 -19 -1 -30 -22 -30h-111c-21 0 -30 11 -35 30l-26 96h-166l-26 -96c-5 -19 -14 -30 -35 -30h-101c-21 0 -28 11 -22 30l181 620c6 20 16 30 37 30h108zM405 826v-34c0 -41 -36 -80 -122 -80s-122 39 -122 80v34c0 29 17 56 58 70
l17 38c8 18 20 30 41 30h107c21 0 28 -14 15 -30l-36 -45c29 -15 42 -39 42 -63zM325 256l-14 54c-16 61 -30 200 -31 209c-2 -14 -18 -151 -34 -209l-15 -54h94zM321 801v16c0 21 -17 27 -38 27s-38 -6 -38 -27v-16c0 -21 17 -28 38 -28s38 7 38 28z" />
    <glyph glyph-name="Aogonek" unicode="&#x104;" horiz-adv-x="566" 
d="M229 680h108c21 0 31 -10 37 -30l181 -620c6 -19 -1 -30 -22 -30h-48c-26 0 -37 -25 -37 -57c0 -16 8 -25 30 -25h23c21 0 30 -7 30 -28v-40c0 -21 -19 -29 -40 -29h-63c-33 0 -99 12 -99 86c0 23 3 74 55 132l-23 87h-166l-26 -96c-5 -19 -14 -30 -35 -30h-101
c-21 0 -28 11 -22 30l181 620c6 20 16 30 37 30zM325 256l-14 54c-18 68 -31 200 -31 208c-2 -14 -19 -152 -34 -208l-15 -54h94z" />
    <glyph glyph-name="AE" unicode="&#xc6;" horiz-adv-x="833" 
d="M428 680h330c21 0 30 -7 30 -28v-76c0 -21 -9 -29 -30 -29h-206v-133h190c21 0 30 -7 30 -28v-71c0 -21 -9 -29 -30 -29h-190v-153h216c21 0 30 -7 30 -28v-76c0 -21 -9 -29 -30 -29h-343c-21 0 -29 9 -29 30v96h-169l-56 -96c-8 -14 -17 -30 -35 -30h-101
c-21 0 -33 12 -22 30l373 621c6 10 17 29 42 29zM361 353l-57 -97h92v164c-13 -27 -26 -51 -35 -67z" />
    <glyph glyph-name="AEacute" unicode="&#x1fc;" horiz-adv-x="833" 
d="M428 680h330c21 0 30 -7 30 -28v-76c0 -21 -9 -29 -30 -29h-206v-133h190c21 0 30 -7 30 -28v-71c0 -21 -9 -29 -30 -29h-190v-153h216c21 0 30 -7 30 -28v-76c0 -21 -9 -29 -30 -29h-343c-21 0 -29 9 -29 30v96h-169l-56 -96c-8 -14 -17 -30 -35 -30h-101
c-21 0 -33 12 -22 30l373 621c6 10 17 29 42 29zM361 353l-57 -97h92v164c-13 -27 -26 -51 -35 -67zM640 848l-69 -101c-6 -9 -18 -20 -39 -20h-79c-18 0 -25 8 -16 29l40 92c8 18 20 30 41 30h107c21 0 27 -13 15 -30z" />
    <glyph glyph-name="Cacute" unicode="&#x106;" horiz-adv-x="577" 
d="M542 224v-61c0 -86 -58 -171 -246 -171s-246 85 -246 171v354c0 86 58 171 246 171s246 -85 246 -171v-46c0 -21 -7 -30 -28 -30h-103c-21 0 -29 9 -29 30v17c0 46 -35 65 -84 65s-83 -19 -83 -65v-296c0 -46 34 -65 83 -65s84 19 84 65v32c0 21 8 30 29 30h103
c21 0 28 -9 28 -30zM436 848l-69 -101c-6 -9 -18 -20 -39 -20h-79c-18 0 -25 8 -16 29l40 92c8 18 20 30 41 30h107c21 0 27 -13 15 -30z" />
    <glyph glyph-name="Ccircumflex" unicode="&#x108;" horiz-adv-x="577" 
d="M542 224v-61c0 -86 -58 -171 -246 -171s-246 85 -246 171v354c0 86 58 171 246 171s246 -85 246 -171v-46c0 -21 -7 -30 -28 -30h-103c-21 0 -29 9 -29 30v17c0 46 -35 65 -84 65s-83 -19 -83 -65v-296c0 -46 34 -65 83 -65s84 19 84 65v32c0 21 8 30 29 30h103
c21 0 28 -9 28 -30zM294 784l-12 -28c-6 -14 -20 -29 -41 -29h-78c-21 0 -28 13 -16 29l71 92c13 17 26 30 47 30h58c21 0 34 -13 47 -30l71 -92c12 -16 5 -29 -16 -29h-78c-21 0 -34 14 -41 29z" />
    <glyph glyph-name="Ccaron" unicode="&#x10c;" horiz-adv-x="577" 
d="M542 224v-61c0 -86 -58 -171 -246 -171s-246 85 -246 171v354c0 86 58 171 246 171s246 -85 246 -171v-46c0 -21 -7 -30 -28 -30h-103c-21 0 -29 9 -29 30v17c0 46 -35 65 -84 65s-83 -19 -83 -65v-296c0 -46 34 -65 83 -65s84 19 84 65v32c0 21 8 30 29 30h103
c21 0 28 -9 28 -30zM276 849l12 -28l12 28c6 14 20 29 41 29h78c21 0 28 -13 16 -29l-71 -92c-13 -17 -26 -30 -47 -30h-58c-21 0 -34 13 -47 30l-71 92c-12 16 -5 29 16 29h78c21 0 35 -15 41 -29z" />
    <glyph glyph-name="Cdotaccent" unicode="&#x10a;" horiz-adv-x="577" 
d="M370 839v-83c0 -21 -7 -29 -28 -29h-106c-21 0 -29 8 -29 29v83c0 21 8 30 29 30h106c21 0 28 -9 28 -30zM542 224v-61c0 -86 -58 -171 -246 -171s-246 85 -246 171v354c0 86 58 171 246 171s246 -85 246 -171v-46c0 -21 -7 -30 -28 -30h-103c-21 0 -29 9 -29 30v17
c0 46 -35 65 -84 65s-83 -19 -83 -65v-296c0 -46 34 -65 83 -65s84 19 84 65v32c0 21 8 30 29 30h103c21 0 28 -9 28 -30z" />
    <glyph glyph-name="Ccedilla" unicode="&#xc7;" horiz-adv-x="577" 
d="M308 -39h27c56 0 89 -26 89 -84c0 -60 -33 -88 -89 -88h-125c-21 0 -30 8 -30 29v21c0 21 9 28 30 28h97c8 0 9 7 9 10s-1 10 -9 10h-81c-35 0 -42 17 -35 40l21 72c-122 21 -162 92 -162 164v354c0 86 58 171 246 171s246 -85 246 -171v-46c0 -21 -7 -30 -28 -30h-103
c-21 0 -29 9 -29 30v17c0 46 -35 65 -84 65s-83 -19 -83 -65v-296c0 -46 34 -65 83 -65s84 19 84 65v32c0 21 8 30 29 30h103c21 0 28 -9 28 -30v-61c0 -83 -54 -165 -226 -171z" />
    <glyph glyph-name="Dcaron" unicode="&#x10e;" horiz-adv-x="621" 
d="M315 0h-230c-18 0 -25 10 -25 30v620c0 21 8 30 29 30h226c188 0 256 -85 256 -171v-338c0 -86 -68 -171 -256 -171zM315 545h-90v-410h90c49 0 91 19 91 65v280c0 46 -42 65 -91 65zM296 849l12 -28l12 28c6 14 20 29 41 29h78c21 0 28 -13 16 -29l-71 -92
c-13 -17 -26 -30 -47 -30h-58c-21 0 -34 13 -47 30l-71 92c-12 16 -5 29 16 29h78c21 0 35 -15 41 -29z" />
    <glyph glyph-name="Dcroat" unicode="&#x110;" horiz-adv-x="621" 
d="M315 0h-230c-18 0 -25 10 -25 30v251h-31c-21 0 -30 8 -30 29v63c0 21 9 28 30 28h31v249c0 21 8 30 29 30h226c188 0 256 -85 256 -171v-338c0 -86 -68 -171 -256 -171zM315 545h-90v-144h71c21 0 30 -7 30 -28v-63c0 -21 -9 -29 -30 -29h-71v-146h90c49 0 91 19 91 65
v280c0 46 -42 65 -91 65z" />
    <glyph glyph-name="Egrave" unicode="&#xc8;" horiz-adv-x="506" 
d="M181 747l-69 101c-12 17 -6 30 15 30h107c21 0 33 -12 41 -30l40 -92c9 -21 2 -29 -16 -29h-79c-21 0 -33 11 -39 20zM441 0h-352c-21 0 -29 9 -29 30v620c0 21 8 30 29 30h342c21 0 30 -7 30 -28v-78c0 -21 -9 -29 -30 -29h-206v-130h190c21 0 30 -7 30 -28v-73
c0 -21 -9 -29 -30 -29h-190v-150h216c21 0 30 -7 30 -28v-78c0 -21 -9 -29 -30 -29z" />
    <glyph glyph-name="Eacute" unicode="&#xc9;" horiz-adv-x="506" 
d="M441 0h-352c-21 0 -29 9 -29 30v620c0 21 8 30 29 30h342c21 0 30 -7 30 -28v-78c0 -21 -9 -29 -30 -29h-206v-130h190c21 0 30 -7 30 -28v-73c0 -21 -9 -29 -30 -29h-190v-150h216c21 0 30 -7 30 -28v-78c0 -21 -9 -29 -30 -29zM392 848l-69 -101c-6 -9 -18 -20 -39 -20
h-79c-18 0 -25 8 -16 29l40 92c8 18 20 30 41 30h107c21 0 27 -13 15 -30z" />
    <glyph glyph-name="Ecircumflex" unicode="&#xca;" horiz-adv-x="506" 
d="M253 784l-12 -28c-6 -14 -20 -29 -41 -29h-78c-21 0 -28 13 -16 29l71 92c13 17 26 30 47 30h58c21 0 34 -13 47 -30l71 -92c12 -16 5 -29 -16 -29h-78c-21 0 -34 14 -41 29zM441 0h-352c-21 0 -29 9 -29 30v620c0 21 8 30 29 30h342c21 0 30 -7 30 -28v-78
c0 -21 -9 -29 -30 -29h-206v-130h190c21 0 30 -7 30 -28v-73c0 -21 -9 -29 -30 -29h-190v-150h216c21 0 30 -7 30 -28v-78c0 -21 -9 -29 -30 -29z" />
    <glyph glyph-name="Ecaron" unicode="&#x11a;" horiz-adv-x="506" 
d="M441 0h-352c-21 0 -29 9 -29 30v620c0 21 8 30 29 30h342c21 0 30 -7 30 -28v-78c0 -21 -9 -29 -30 -29h-206v-130h190c21 0 30 -7 30 -28v-73c0 -21 -9 -29 -30 -29h-190v-150h216c21 0 30 -7 30 -28v-78c0 -21 -9 -29 -30 -29zM241 849l12 -28l12 28c6 14 20 29 41 29
h78c21 0 28 -13 16 -29l-71 -92c-13 -17 -26 -30 -47 -30h-58c-21 0 -34 13 -47 30l-71 92c-12 16 -5 29 16 29h78c21 0 35 -15 41 -29z" />
    <glyph glyph-name="Edieresis" unicode="&#xcb;" horiz-adv-x="506" 
d="M441 0h-352c-21 0 -29 9 -29 30v620c0 21 8 30 29 30h342c21 0 30 -7 30 -28v-78c0 -21 -9 -29 -30 -29h-206v-130h190c21 0 30 -7 30 -28v-73c0 -21 -9 -29 -30 -29h-190v-150h216c21 0 30 -7 30 -28v-78c0 -21 -9 -29 -30 -29zM238 848v-92c0 -21 -7 -29 -28 -29h-60
c-21 0 -29 8 -29 29v92c0 21 8 30 29 30h60c21 0 28 -9 28 -30zM393 848v-92c0 -21 -7 -29 -28 -29h-60c-21 0 -29 8 -29 29v92c0 21 8 30 29 30h60c21 0 28 -9 28 -30z" />
    <glyph glyph-name="Emacron" unicode="&#x112;" horiz-adv-x="506" 
d="M441 0h-352c-21 0 -29 9 -29 30v620c0 21 8 30 29 30h342c21 0 30 -7 30 -28v-78c0 -21 -9 -29 -30 -29h-206v-130h190c21 0 30 -7 30 -28v-73c0 -21 -9 -29 -30 -29h-190v-150h216c21 0 30 -7 30 -28v-78c0 -21 -9 -29 -30 -29zM142 860h221c21 0 30 -7 30 -28v-63
c0 -21 -9 -29 -30 -29h-221c-21 0 -30 8 -30 29v63c0 21 9 28 30 28z" />
    <glyph glyph-name="Ebreve" unicode="&#x114;" horiz-adv-x="506" 
d="M441 0h-352c-21 0 -29 9 -29 30v620c0 21 8 30 29 30h342c21 0 30 -7 30 -28v-78c0 -21 -9 -29 -30 -29h-206v-130h190c21 0 30 -7 30 -28v-73c0 -21 -9 -29 -30 -29h-190v-150h216c21 0 30 -7 30 -28v-78c0 -21 -9 -29 -30 -29zM214 857v-17c0 -20 10 -33 35 -33
s35 13 35 33v17c0 18 7 24 26 24h61c19 0 26 -6 26 -24v-13c0 -84 -59 -130 -152 -130s-144 46 -144 130v13c0 18 7 24 26 24h61c19 0 26 -6 26 -24z" />
    <glyph glyph-name="Edotaccent" unicode="&#x116;" horiz-adv-x="506" 
d="M339 839v-83c0 -21 -7 -29 -28 -29h-106c-21 0 -29 8 -29 29v83c0 21 8 30 29 30h106c21 0 28 -9 28 -30zM441 0h-352c-21 0 -29 9 -29 30v620c0 21 8 30 29 30h342c21 0 30 -7 30 -28v-78c0 -21 -9 -29 -30 -29h-206v-130h190c21 0 30 -7 30 -28v-73
c0 -21 -9 -29 -30 -29h-190v-150h216c21 0 30 -7 30 -28v-78c0 -21 -9 -29 -30 -29z" />
    <glyph glyph-name="Eogonek" unicode="&#x118;" horiz-adv-x="506" 
d="M441 0h-27c-29 0 -41 -24 -41 -57c0 -16 8 -25 30 -25h23c21 0 30 -7 30 -28v-40c0 -21 -19 -29 -40 -29h-63c-33 0 -99 12 -99 86c0 18 2 52 26 93h-191c-21 0 -29 9 -29 30v620c0 21 8 30 29 30h342c21 0 30 -7 30 -28v-78c0 -21 -9 -29 -30 -29h-206v-130h190
c21 0 30 -7 30 -28v-73c0 -21 -9 -29 -30 -29h-190v-150h216c21 0 30 -7 30 -28v-78c0 -21 -9 -29 -30 -29z" />
    <glyph glyph-name="Gcircumflex" unicode="&#x11c;" horiz-adv-x="587" 
d="M293 784l-12 -28c-6 -14 -20 -29 -41 -29h-78c-21 0 -28 13 -16 29l71 92c13 17 26 30 47 30h58c21 0 34 -13 47 -30l71 -92c12 -16 5 -29 -16 -29h-78c-21 0 -34 14 -41 29zM300 370h212c21 0 30 -7 30 -28v-179c0 -86 -58 -171 -246 -171s-246 85 -246 171v354
c0 86 58 171 246 171s246 -85 246 -171v-36c0 -21 -7 -30 -28 -30h-103c-21 0 -29 9 -29 30v7c0 46 -35 65 -84 65s-83 -19 -83 -65v-296c0 -46 34 -65 83 -65s84 19 84 65v43h-82c-21 0 -30 8 -30 29v78c0 21 9 28 30 28z" />
    <glyph glyph-name="Gbreve" unicode="&#x11e;" horiz-adv-x="587" 
d="M300 370h212c21 0 30 -7 30 -28v-179c0 -86 -58 -171 -246 -171s-246 85 -246 171v354c0 86 58 171 246 171s246 -85 246 -171v-36c0 -21 -7 -30 -28 -30h-103c-21 0 -29 9 -29 30v7c0 46 -35 65 -84 65s-83 -19 -83 -65v-296c0 -46 34 -65 83 -65s84 19 84 65v43h-82
c-21 0 -30 8 -30 29v78c0 21 9 28 30 28zM258 857v-17c0 -20 10 -33 35 -33s35 13 35 33v17c0 18 7 24 26 24h61c19 0 26 -6 26 -24v-13c0 -84 -59 -130 -152 -130s-144 46 -144 130v13c0 18 7 24 26 24h61c19 0 26 -6 26 -24z" />
    <glyph glyph-name="Gdotaccent" unicode="&#x120;" horiz-adv-x="587" 
d="M375 836v-83c0 -21 -7 -29 -28 -29h-106c-21 0 -29 8 -29 29v83c0 21 8 30 29 30h106c21 0 28 -9 28 -30zM300 367h212c21 0 30 -7 30 -28v-179c0 -86 -58 -171 -246 -171s-246 85 -246 171v354c0 86 58 171 246 171s246 -85 246 -171v-36c0 -21 -7 -30 -28 -30h-103
c-21 0 -29 9 -29 30v7c0 46 -35 65 -84 65s-83 -19 -83 -65v-296c0 -46 34 -65 83 -65s84 19 84 65v43h-82c-21 0 -30 8 -30 29v78c0 21 9 28 30 28z" />
    <glyph glyph-name="Gcommaaccent" unicode="&#x122;" horiz-adv-x="587" 
d="M232 -112v32c0 21 8 30 29 30h76c21 0 28 -9 28 -30v-41c0 -44 -20 -97 -48 -140c-12 -18 -24 -18 -39 -15l-57 13c-20 5 -23 21 -15 39c20 44 26 52 26 112zM300 370h212c21 0 30 -7 30 -28v-179c0 -86 -58 -171 -246 -171s-246 85 -246 171v354c0 86 58 171 246 171
s246 -85 246 -171v-36c0 -21 -7 -30 -28 -30h-103c-21 0 -29 9 -29 30v7c0 46 -35 65 -84 65s-83 -19 -83 -65v-296c0 -46 34 -65 83 -65s84 19 84 65v43h-82c-21 0 -30 8 -30 29v78c0 21 9 28 30 28z" />
    <glyph glyph-name="Hcircumflex" unicode="&#x124;" horiz-adv-x="631" 
d="M225 650v-238h181v238c0 21 8 30 29 30h108c21 0 28 -9 28 -30v-620c0 -21 -7 -30 -28 -30h-108c-21 0 -29 9 -29 30v247h-181v-247c0 -21 -7 -30 -28 -30h-108c-21 0 -29 9 -29 30v620c0 21 8 30 29 30h108c21 0 28 -9 28 -30zM315 784l-12 -28c-6 -14 -20 -29 -41 -29
h-78c-21 0 -28 13 -16 29l71 92c13 17 26 30 47 30h58c21 0 34 -13 47 -30l71 -92c12 -16 5 -29 -16 -29h-78c-21 0 -34 14 -41 29z" />
    <glyph glyph-name="Hbar" unicode="&#x126;" horiz-adv-x="631" 
d="M225 650v-75h181v75c0 21 8 30 29 30h108c21 0 28 -9 28 -30v-75h29c21 0 30 -7 30 -28v-53c0 -21 -9 -29 -30 -29h-29v-435c0 -21 -7 -30 -28 -30h-108c-21 0 -29 9 -29 30v247h-181v-247c0 -21 -7 -30 -28 -30h-108c-21 0 -29 9 -29 30v435h-29c-21 0 -30 8 -30 29v53
c0 21 9 28 30 28h29v75c0 21 8 30 29 30h108c21 0 28 -9 28 -30zM225 412h181v53h-181v-53z" />
    <glyph glyph-name="Igrave" unicode="&#xcc;" horiz-adv-x="285" 
d="M225 650v-620c0 -21 -7 -30 -28 -30h-108c-21 0 -29 9 -29 30v620c0 21 8 30 29 30h108c21 0 28 -9 28 -30zM63 747l-69 101c-12 17 -6 30 15 30h107c21 0 33 -12 41 -30l40 -92c9 -21 2 -29 -16 -29h-79c-21 0 -33 11 -39 20z" />
    <glyph glyph-name="Iacute" unicode="&#xcd;" horiz-adv-x="285" 
d="M225 650v-620c0 -21 -7 -30 -28 -30h-108c-21 0 -29 9 -29 30v620c0 21 8 30 29 30h108c21 0 28 -9 28 -30zM283 848l-69 -101c-6 -9 -18 -20 -39 -20h-79c-18 0 -25 8 -16 29l40 92c8 18 20 30 41 30h107c21 0 27 -13 15 -30z" />
    <glyph glyph-name="Icircumflex" unicode="&#xce;" horiz-adv-x="285" 
d="M225 650v-620c0 -21 -7 -30 -28 -30h-108c-21 0 -29 9 -29 30v620c0 21 8 30 29 30h108c21 0 28 -9 28 -30zM142 784l-12 -28c-6 -14 -20 -29 -41 -29h-78c-21 0 -28 13 -16 29l71 92c13 17 26 30 47 30h58c21 0 34 -13 47 -30l71 -92c12 -16 5 -29 -16 -29h-78
c-21 0 -34 14 -41 29z" />
    <glyph glyph-name="Itilde" unicode="&#x128;" horiz-adv-x="285" 
d="M225 650v-620c0 -21 -7 -30 -28 -30h-108c-21 0 -29 9 -29 30v620c0 21 8 30 29 30h108c21 0 28 -9 28 -30zM89 770c-9 0 -17 -5 -19 -13l-1 -4c-5 -21 -13 -26 -32 -26h-53c-20 0 -26 14 -24 34l6 49c6 47 46 76 94 76c23 0 43 -5 58 -11l42 -16c15 -6 27 -12 36 -12
c10 0 17 5 19 13l1 4c5 20 12 26 32 26h52c22 0 27 -13 25 -34l-4 -45c-5 -51 -41 -76 -84 -76c-34 0 -50 4 -69 10l-43 14c-17 6 -27 11 -36 11z" />
    <glyph glyph-name="Idieresis" unicode="&#xcf;" horiz-adv-x="285" 
d="M225 650v-620c0 -21 -7 -30 -28 -30h-108c-21 0 -29 9 -29 30v620c0 21 8 30 29 30h108c21 0 28 -9 28 -30zM123 848v-92c0 -21 -7 -29 -28 -29h-60c-21 0 -29 8 -29 29v92c0 21 8 30 29 30h60c21 0 28 -9 28 -30zM278 848v-92c0 -21 -7 -29 -28 -29h-60
c-21 0 -29 8 -29 29v92c0 21 8 30 29 30h60c21 0 28 -9 28 -30z" />
    <glyph glyph-name="Imacron" unicode="&#x12a;" horiz-adv-x="285" 
d="M225 650v-620c0 -21 -7 -30 -28 -30h-108c-21 0 -29 9 -29 30v620c0 21 8 30 29 30h108c21 0 28 -9 28 -30zM32 860h221c21 0 30 -7 30 -28v-63c0 -21 -9 -29 -30 -29h-221c-21 0 -30 8 -30 29v63c0 21 9 28 30 28z" />
    <glyph glyph-name="Ibreve" unicode="&#x12c;" horiz-adv-x="285" 
d="M225 650v-620c0 -21 -7 -30 -28 -30h-108c-21 0 -29 9 -29 30v620c0 21 8 30 29 30h108c21 0 28 -9 28 -30zM107 857v-17c0 -20 10 -33 35 -33s35 13 35 33v17c0 18 7 24 26 24h61c19 0 26 -6 26 -24v-13c0 -84 -59 -130 -152 -130s-144 46 -144 130v13c0 18 7 24 26 24
h61c19 0 26 -6 26 -24z" />
    <glyph glyph-name="Idotaccent" unicode="&#x130;" horiz-adv-x="285" 
d="M225 650v-620c0 -21 -7 -30 -28 -30h-108c-21 0 -29 9 -29 30v620c0 21 8 30 29 30h108c21 0 28 -9 28 -30zM224 839v-83c0 -21 -7 -29 -28 -29h-106c-21 0 -29 8 -29 29v83c0 21 8 30 29 30h106c21 0 28 -9 28 -30z" />
    <glyph glyph-name="Iogonek" unicode="&#x12e;" horiz-adv-x="285" 
d="M225 650v-620c0 -21 -7 -30 -28 -30h-33c-26 0 -37 -25 -37 -57c0 -16 8 -25 30 -25h23c21 0 30 -7 30 -28v-40c0 -21 -19 -29 -40 -29h-63c-33 0 -99 12 -99 86c0 23 3 72 52 128v615c0 21 8 30 29 30h108c21 0 28 -9 28 -30z" />
    <glyph glyph-name="IJ" unicode="&#x132;" horiz-adv-x="808" 
d="M225 650v-620c0 -21 -7 -30 -28 -30h-108c-21 0 -29 9 -29 30v620c0 21 8 30 29 30h108c21 0 28 -9 28 -30zM457 229v-37c0 -46 28 -65 70 -65s61 19 61 65v458c0 21 8 30 29 30h108c21 0 28 -9 28 -30v-487c0 -86 -50 -171 -226 -171s-232 85 -232 171v66
c0 21 8 30 29 30h105c21 0 28 -9 28 -30z" />
    <glyph glyph-name="Jcircumflex" unicode="&#x134;" horiz-adv-x="523" 
d="M172 229v-37c0 -46 28 -65 70 -65s61 19 61 65v458c0 21 8 30 29 30h108c21 0 28 -9 28 -30v-487c0 -86 -50 -171 -226 -171s-232 85 -232 171v66c0 21 8 30 29 30h105c21 0 28 -9 28 -30zM378 784l-12 -28c-6 -14 -20 -29 -41 -29h-78c-21 0 -28 13 -16 29l71 92
c13 17 26 30 47 30h58c21 0 34 -13 47 -30l71 -92c12 -16 5 -29 -16 -29h-78c-21 0 -34 14 -41 29z" />
    <glyph glyph-name="Kcommaaccent" unicode="&#x136;" horiz-adv-x="600" 
d="M233 -112v32c0 21 8 30 29 30h76c21 0 28 -9 28 -30v-41c0 -44 -20 -97 -48 -140c-12 -18 -24 -18 -39 -15l-57 13c-20 5 -23 21 -15 39c20 44 26 52 26 112zM374 346l215 -316c10 -15 6 -30 -15 -30h-138c-21 0 -32 15 -42 30l-158 245h-11v-245c0 -21 -7 -30 -28 -30
h-108c-21 0 -29 9 -29 30v620c0 21 8 30 29 30h108c21 0 28 -9 28 -30v-255h10l153 255c10 16 26 30 47 30h115c21 0 24 -14 14 -30z" />
    <glyph glyph-name="Lacute" unicode="&#x139;" horiz-adv-x="471" 
d="M284 848l-69 -101c-6 -9 -18 -20 -39 -20h-79c-18 0 -25 8 -16 29l40 92c8 18 20 30 41 30h107c21 0 27 -13 15 -30zM225 650v-515h196c21 0 30 -7 30 -28v-78c0 -21 -9 -29 -30 -29h-336c-18 0 -25 10 -25 30v620c0 21 8 30 29 30h108c21 0 28 -9 28 -30z" />
    <glyph glyph-name="Lcaron" unicode="&#x13d;" horiz-adv-x="471" 
d="M318 690v32c0 21 8 30 29 30h76c21 0 28 -9 28 -30v-41c0 -44 -20 -97 -48 -140c-12 -18 -24 -18 -39 -15l-57 13c-20 5 -23 21 -15 39c20 44 26 52 26 112zM225 650v-515h196c21 0 30 -7 30 -28v-78c0 -21 -9 -29 -30 -29h-336c-18 0 -25 10 -25 30v620c0 21 8 30 29 30
h108c21 0 28 -9 28 -30z" />
    <glyph glyph-name="Lcommaaccent" unicode="&#x13b;" horiz-adv-x="471" 
d="M172 -112v32c0 21 8 30 29 30h76c21 0 28 -9 28 -30v-41c0 -44 -20 -97 -48 -140c-12 -18 -24 -18 -39 -15l-57 13c-20 5 -23 21 -15 39c20 44 26 52 26 112zM225 650v-515h196c21 0 30 -7 30 -28v-78c0 -21 -9 -29 -30 -29h-336c-18 0 -25 10 -25 30v620
c0 21 8 30 29 30h108c21 0 28 -9 28 -30z" />
    <glyph glyph-name="Ldot" unicode="&#x13f;" horiz-adv-x="471" 
d="M225 650v-515h196c21 0 30 -7 30 -28v-78c0 -21 -9 -29 -30 -29h-336c-18 0 -25 10 -25 30v620c0 21 8 30 29 30h108c21 0 28 -9 28 -30zM451 393v-83c0 -21 -7 -29 -28 -29h-106c-21 0 -29 8 -29 29v83c0 21 8 30 29 30h106c21 0 28 -9 28 -30z" />
    <glyph glyph-name="Lslash" unicode="&#x141;" horiz-adv-x="471" 
d="M225 650v-221l30 12c16 7 30 2 39 -17l15 -34c7 -16 2 -29 -17 -37l-67 -27v-191h196c21 0 30 -7 30 -28v-78c0 -21 -9 -29 -30 -29h-336c-18 0 -25 10 -25 30v229l-16 -6c-19 -8 -30 -3 -38 16l-15 35c-7 16 -2 29 17 37l52 21v288c0 21 8 30 29 30h108
c21 0 28 -9 28 -30z" />
    <glyph glyph-name="Nacute" unicode="&#x143;" horiz-adv-x="631" 
d="M461 848l-69 -101c-6 -9 -18 -20 -39 -20h-79c-18 0 -25 8 -16 29l40 92c8 18 20 30 41 30h107c21 0 27 -13 15 -30zM571 650v-620c0 -21 -7 -30 -28 -30h-98c-15 0 -21 4 -27 14l-160 266c-17 27 -32 62 -43 90v-340c0 -21 -7 -30 -28 -30h-98c-21 0 -29 9 -29 30v620
c0 21 8 30 29 30h98c13 0 21 -4 25 -12l169 -283c12 -21 25 -51 35 -75v340c0 21 8 30 29 30h98c21 0 28 -9 28 -30z" />
    <glyph glyph-name="Ncaron" unicode="&#x147;" horiz-adv-x="631" 
d="M571 650v-620c0 -21 -7 -30 -28 -30h-98c-15 0 -21 4 -27 14l-160 266c-17 27 -32 62 -43 90v-340c0 -21 -7 -30 -28 -30h-98c-21 0 -29 9 -29 30v620c0 21 8 30 29 30h98c13 0 21 -4 25 -12l169 -283c12 -21 25 -51 35 -75v340c0 21 8 30 29 30h98c21 0 28 -9 28 -30z
M303 849l12 -28l12 28c6 14 20 29 41 29h78c21 0 28 -13 16 -29l-71 -92c-13 -17 -26 -30 -47 -30h-58c-21 0 -34 13 -47 30l-71 92c-12 16 -5 29 16 29h78c21 0 35 -15 41 -29z" />
    <glyph glyph-name="Ntilde" unicode="&#xd1;" horiz-adv-x="631" 
d="M262 770c-9 0 -17 -5 -19 -13l-1 -4c-5 -21 -13 -26 -32 -26h-53c-20 0 -26 14 -24 34l6 49c6 47 46 76 94 76c23 0 43 -5 58 -11l42 -16c15 -6 27 -12 36 -12c10 0 17 5 19 13l1 4c5 20 12 26 32 26h52c22 0 27 -13 25 -34l-4 -45c-5 -51 -41 -76 -84 -76
c-34 0 -50 4 -69 10l-43 14c-17 6 -27 11 -36 11zM571 650v-620c0 -21 -7 -30 -28 -30h-98c-15 0 -21 4 -27 14l-160 266c-17 27 -32 62 -43 90v-340c0 -21 -7 -30 -28 -30h-98c-21 0 -29 9 -29 30v620c0 21 8 30 29 30h98c13 0 21 -4 25 -12l169 -283c12 -21 25 -51 35 -75
v340c0 21 8 30 29 30h98c21 0 28 -9 28 -30z" />
    <glyph glyph-name="Ncommaaccent" unicode="&#x145;" horiz-adv-x="631" 
d="M259 -113v32c0 21 8 30 29 30h76c21 0 28 -9 28 -30v-41c0 -44 -20 -97 -48 -140c-12 -18 -24 -18 -39 -15l-57 13c-20 5 -23 21 -15 39c20 44 26 52 26 112zM571 650v-620c0 -21 -7 -30 -28 -30h-98c-15 0 -21 4 -27 14l-160 266c-17 27 -32 62 -43 90v-340
c0 -21 -7 -30 -28 -30h-98c-21 0 -29 9 -29 30v620c0 21 8 30 29 30h98c13 0 21 -4 25 -12l169 -283c12 -21 25 -51 35 -75v340c0 21 8 30 29 30h98c21 0 28 -9 28 -30z" />
    <glyph glyph-name="Ograve" unicode="&#xd2;" horiz-adv-x="611" 
d="M226 747l-69 101c-12 17 -6 30 15 30h107c21 0 33 -12 41 -30l40 -92c9 -21 2 -29 -16 -29h-79c-21 0 -33 11 -39 20zM50 163v354c0 86 67 171 255 171s256 -85 256 -171v-354c0 -86 -68 -171 -256 -171s-255 85 -255 171zM396 192v296c0 46 -42 65 -91 65
s-90 -19 -90 -65v-296c0 -46 41 -65 90 -65s91 19 91 65z" />
    <glyph glyph-name="Oacute" unicode="&#xd3;" horiz-adv-x="611" 
d="M437 848l-69 -101c-6 -9 -18 -20 -39 -20h-79c-18 0 -25 8 -16 29l40 92c8 18 20 30 41 30h107c21 0 27 -13 15 -30zM50 163v354c0 86 67 171 255 171s256 -85 256 -171v-354c0 -86 -68 -171 -256 -171s-255 85 -255 171zM396 192v296c0 46 -42 65 -91 65
s-90 -19 -90 -65v-296c0 -46 41 -65 90 -65s91 19 91 65z" />
    <glyph glyph-name="Ocircumflex" unicode="&#xd4;" horiz-adv-x="611" 
d="M305 784l-12 -28c-6 -14 -20 -29 -41 -29h-78c-21 0 -28 13 -16 29l71 92c13 17 26 30 47 30h58c21 0 34 -13 47 -30l71 -92c12 -16 5 -29 -16 -29h-78c-21 0 -34 14 -41 29zM50 163v354c0 86 67 171 255 171s256 -85 256 -171v-354c0 -86 -68 -171 -256 -171
s-255 85 -255 171zM396 192v296c0 46 -42 65 -91 65s-90 -19 -90 -65v-296c0 -46 41 -65 90 -65s91 19 91 65z" />
    <glyph glyph-name="Otilde" unicode="&#xd5;" horiz-adv-x="611" 
d="M50 163v354c0 86 67 171 255 171s256 -85 256 -171v-354c0 -86 -68 -171 -256 -171s-255 85 -255 171zM396 192v296c0 46 -42 65 -91 65s-90 -19 -90 -65v-296c0 -46 41 -65 90 -65s91 19 91 65zM252 770c-9 0 -17 -5 -19 -13l-1 -4c-5 -21 -13 -26 -32 -26h-53
c-20 0 -26 14 -24 34l6 49c6 47 46 76 94 76c23 0 43 -5 58 -11l42 -16c15 -6 27 -12 36 -12c10 0 17 5 19 13l1 4c5 20 12 26 32 26h52c22 0 27 -13 25 -34l-4 -45c-5 -51 -41 -76 -84 -76c-34 0 -50 4 -69 10l-43 14c-17 6 -27 11 -36 11z" />
    <glyph glyph-name="Odieresis" unicode="&#xd6;" horiz-adv-x="611" 
d="M50 163v354c0 86 67 171 255 171s256 -85 256 -171v-354c0 -86 -68 -171 -256 -171s-255 85 -255 171zM396 192v296c0 46 -42 65 -91 65s-90 -19 -90 -65v-296c0 -46 41 -65 90 -65s91 19 91 65zM286 848v-92c0 -21 -7 -29 -28 -29h-60c-21 0 -29 8 -29 29v92
c0 21 8 30 29 30h60c21 0 28 -9 28 -30zM441 848v-92c0 -21 -7 -29 -28 -29h-60c-21 0 -29 8 -29 29v92c0 21 8 30 29 30h60c21 0 28 -9 28 -30z" />
    <glyph glyph-name="Omacron" unicode="&#x14c;" horiz-adv-x="611" 
d="M50 163v354c0 86 67 171 255 171s256 -85 256 -171v-354c0 -86 -68 -171 -256 -171s-255 85 -255 171zM396 192v296c0 46 -42 65 -91 65s-90 -19 -90 -65v-296c0 -46 41 -65 90 -65s91 19 91 65zM195 860h221c21 0 30 -7 30 -28v-63c0 -21 -9 -29 -30 -29h-221
c-21 0 -30 8 -30 29v63c0 21 9 28 30 28z" />
    <glyph glyph-name="Obreve" unicode="&#x14e;" horiz-adv-x="611" 
d="M50 163v354c0 86 67 171 255 171s256 -85 256 -171v-354c0 -86 -68 -171 -256 -171s-255 85 -255 171zM396 192v296c0 46 -42 65 -91 65s-90 -19 -90 -65v-296c0 -46 41 -65 90 -65s91 19 91 65zM270 857v-17c0 -20 10 -33 35 -33s35 13 35 33v17c0 18 7 24 26 24h61
c19 0 26 -6 26 -24v-13c0 -84 -59 -130 -152 -130s-144 46 -144 130v13c0 18 7 24 26 24h61c19 0 26 -6 26 -24z" />
    <glyph glyph-name="Ohungarumlaut" unicode="&#x150;" horiz-adv-x="611" 
d="M515 848l-66 -92c-10 -14 -23 -29 -44 -29h-75c-21 0 -26 11 -16 29l51 92c11 19 24 30 45 30h90c21 0 27 -13 15 -30zM333 848l-51 -92c-10 -18 -18 -29 -39 -29h-75c-21 0 -28 11 -21 29l36 92c8 19 19 30 40 30h90c21 0 29 -13 20 -30zM50 163v354
c0 86 67 171 255 171s256 -85 256 -171v-354c0 -86 -68 -171 -256 -171s-255 85 -255 171zM396 192v296c0 46 -42 65 -91 65s-90 -19 -90 -65v-296c0 -46 41 -65 90 -65s91 19 91 65z" />
    <glyph glyph-name="Oslash" unicode="&#xd8;" horiz-adv-x="611" 
d="M50 161v354c0 86 67 171 255 171c50 0 91 -6 125 -17l9 17c8 16 16 30 36 30h36c18 0 17 -16 10 -30l-25 -49c46 -32 65 -77 65 -122v-354c0 -86 -68 -171 -256 -171c-51 0 -92 6 -126 16l-8 -15c-11 -21 -17 -30 -38 -30h-34c-15 0 -18 14 -10 30l24 47
c-45 33 -63 78 -63 123zM396 190v248l-151 -300c16 -9 37 -13 60 -13c49 0 91 19 91 65zM215 486v-245l149 297c-16 9 -37 13 -59 13c-49 0 -90 -19 -90 -65z" />
    <glyph glyph-name="Oslashacute" unicode="&#x1fe;" horiz-adv-x="611" 
d="M50 161v354c0 86 67 171 255 171c50 0 91 -6 125 -17l9 17c8 16 16 30 36 30h36c18 0 17 -16 10 -30l-25 -49c46 -32 65 -77 65 -122v-354c0 -86 -68 -171 -256 -171c-51 0 -92 6 -126 16l-8 -15c-11 -21 -17 -30 -38 -30h-34c-15 0 -18 14 -10 30l24 47
c-45 33 -63 78 -63 123zM396 190v248l-151 -300c16 -9 37 -13 60 -13c49 0 91 19 91 65zM215 486v-245l149 297c-16 9 -37 13 -59 13c-49 0 -90 -19 -90 -65zM444 848l-69 -101c-6 -9 -18 -20 -39 -20h-79c-18 0 -25 8 -16 29l40 92c8 18 20 30 41 30h107
c21 0 27 -13 15 -30z" />
    <glyph glyph-name="OE" unicode="&#x152;" horiz-adv-x="842" 
d="M50 163v354c0 86 67 171 255 171c37 0 68 -6 95 -17c5 6 13 9 25 9h342c21 0 30 -7 30 -28v-78c0 -21 -9 -29 -30 -29h-206v-130h190c21 0 30 -7 30 -28v-73c0 -21 -9 -29 -30 -29h-190v-150h216c21 0 30 -7 30 -28v-78c0 -21 -9 -29 -30 -29h-352c-12 0 -20 2 -25 9
c-27 -11 -58 -17 -95 -17c-188 0 -255 85 -255 171zM396 192v296c0 46 -42 65 -91 65s-90 -19 -90 -65v-296c0 -46 41 -65 90 -65s91 19 91 65z" />
    <glyph glyph-name="Racute" unicode="&#x154;" horiz-adv-x="604" 
d="M559 422c0 -57 -29 -114 -104 -146l98 -246c7 -18 -6 -30 -28 -30h-108c-19 0 -23 16 -29 30l-88 221h-75v-221c0 -21 -7 -30 -28 -30h-108c-21 0 -29 9 -29 30v620c0 21 8 30 29 30h216c188 0 254 -85 254 -171v-87zM305 545h-80v-159h80c49 0 91 19 91 65v29
c0 46 -42 65 -91 65zM402 848l-69 -101c-6 -9 -18 -20 -39 -20h-79c-18 0 -25 8 -16 29l40 92c8 18 20 30 41 30h107c21 0 27 -13 15 -30z" />
    <glyph glyph-name="Rcaron" unicode="&#x158;" horiz-adv-x="604" 
d="M559 422c0 -57 -29 -114 -104 -146l98 -246c7 -18 -6 -30 -28 -30h-108c-19 0 -23 16 -29 30l-88 221h-75v-221c0 -21 -7 -30 -28 -30h-108c-21 0 -29 9 -29 30v620c0 21 8 30 29 30h216c188 0 254 -85 254 -171v-87zM305 545h-80v-159h80c49 0 91 19 91 65v29
c0 46 -42 65 -91 65zM280 849l12 -28l12 28c6 14 20 29 41 29h78c21 0 28 -13 16 -29l-71 -92c-13 -17 -26 -30 -47 -30h-58c-21 0 -34 13 -47 30l-71 92c-12 16 -5 29 16 29h78c21 0 35 -15 41 -29z" />
    <glyph glyph-name="Rcommaaccent" unicode="&#x156;" horiz-adv-x="604" 
d="M237 -112v32c0 21 8 30 29 30h76c21 0 28 -9 28 -30v-41c0 -44 -20 -97 -48 -140c-12 -18 -24 -18 -39 -15l-57 13c-20 5 -23 21 -15 39c20 44 26 52 26 112zM559 422c0 -57 -29 -114 -104 -146l98 -246c7 -18 -6 -30 -28 -30h-108c-19 0 -23 16 -29 30l-88 221h-75v-221
c0 -21 -7 -30 -28 -30h-108c-21 0 -29 9 -29 30v620c0 21 8 30 29 30h216c188 0 254 -85 254 -171v-87zM305 545h-80v-159h80c49 0 91 19 91 65v29c0 46 -42 65 -91 65z" />
    <glyph glyph-name="Sacute" unicode="&#x15a;" horiz-adv-x="575" 
d="M372 480v15c0 46 -32 63 -78 63s-79 -17 -79 -63v-10c0 -27 21 -39 32 -43l168 -57c74 -25 125 -77 125 -151v-71c0 -86 -61 -171 -249 -171s-251 85 -251 171v67c0 21 8 30 29 30h104c21 0 28 -9 28 -30v-45c0 -46 39 -63 88 -63s89 17 89 63v20c0 36 -48 53 -86 67
l-144 54c-51 19 -93 75 -93 133v58c0 86 52 171 237 171s241 -85 241 -171v-37c0 -21 -8 -30 -29 -30h-104c-21 0 -28 9 -28 30zM427 848l-69 -101c-6 -9 -18 -20 -39 -20h-79c-18 0 -25 8 -16 29l40 92c8 18 20 30 41 30h107c21 0 27 -13 15 -30z" />
    <glyph glyph-name="Scircumflex" unicode="&#x15c;" horiz-adv-x="575" 
d="M372 480v15c0 46 -32 63 -78 63s-79 -17 -79 -63v-10c0 -27 21 -39 32 -43l168 -57c74 -25 125 -77 125 -151v-71c0 -86 -61 -171 -249 -171s-251 85 -251 171v67c0 21 8 30 29 30h104c21 0 28 -9 28 -30v-45c0 -46 39 -63 88 -63s89 17 89 63v20c0 36 -48 53 -86 67
l-144 54c-51 19 -93 75 -93 133v58c0 86 52 171 237 171s241 -85 241 -171v-37c0 -21 -8 -30 -29 -30h-104c-21 0 -28 9 -28 30zM287 784l-12 -28c-6 -14 -20 -29 -41 -29h-78c-21 0 -28 13 -16 29l71 92c13 17 26 30 47 30h58c21 0 34 -13 47 -30l71 -92
c12 -16 5 -29 -16 -29h-78c-21 0 -34 14 -41 29z" />
    <glyph glyph-name="Scaron" unicode="&#x160;" horiz-adv-x="575" 
d="M372 480v15c0 46 -32 63 -78 63s-79 -17 -79 -63v-10c0 -27 21 -39 32 -43l168 -57c74 -25 125 -77 125 -151v-71c0 -86 -61 -171 -249 -171s-251 85 -251 171v67c0 21 8 30 29 30h104c21 0 28 -9 28 -30v-45c0 -46 39 -63 88 -63s89 17 89 63v20c0 36 -48 53 -86 67
l-144 54c-51 19 -93 75 -93 133v58c0 86 52 171 237 171s241 -85 241 -171v-37c0 -21 -8 -30 -29 -30h-104c-21 0 -28 9 -28 30zM275 849l12 -28l12 28c6 14 20 29 41 29h78c21 0 28 -13 16 -29l-71 -92c-13 -17 -26 -30 -47 -30h-58c-21 0 -34 13 -47 30l-71 92
c-12 16 -5 29 16 29h78c21 0 35 -15 41 -29z" />
    <glyph glyph-name="Scedilla" unicode="&#x15e;" horiz-adv-x="575" 
d="M337 -39h27c56 0 89 -26 89 -84c0 -60 -33 -88 -89 -88h-125c-21 0 -30 8 -30 29v21c0 21 9 28 30 28h97c8 0 9 7 9 10s-1 10 -9 10h-81c-35 0 -42 17 -35 40l20 68c-149 13 -200 90 -200 168v67c0 21 8 30 29 30h104c21 0 28 -9 28 -30v-45c0 -46 39 -63 88 -63
s89 17 89 63v20c0 36 -48 53 -86 67l-144 54c-51 19 -93 75 -93 133v58c0 86 52 171 237 171s241 -85 241 -171v-37c0 -21 -8 -30 -29 -30h-104c-21 0 -28 9 -28 30v15c0 46 -32 63 -78 63s-79 -17 -79 -63v-10c0 -27 21 -39 32 -43l168 -57c74 -25 125 -77 125 -151v-71
c0 -77 -49 -153 -194 -168z" />
    <glyph glyph-name="Scommaaccent" unicode="&#x218;" horiz-adv-x="575" 
d="M225 -113v32c0 21 8 30 29 30h76c21 0 28 -9 28 -30v-41c0 -44 -20 -97 -48 -140c-12 -18 -24 -18 -39 -15l-57 13c-20 5 -23 21 -15 39c20 44 26 52 26 112zM372 480v15c0 46 -32 63 -78 63s-79 -17 -79 -63v-10c0 -27 21 -39 32 -43l168 -57c74 -25 125 -77 125 -151
v-71c0 -86 -61 -171 -249 -171s-251 85 -251 171v67c0 21 8 30 29 30h104c21 0 28 -9 28 -30v-45c0 -46 39 -63 88 -63s89 17 89 63v20c0 36 -48 53 -86 67l-144 54c-51 19 -93 75 -93 133v58c0 86 52 171 237 171s241 -85 241 -171v-37c0 -21 -8 -30 -29 -30h-104
c-21 0 -28 9 -28 30z" />
    <glyph glyph-name="Tcaron" unicode="&#x164;" horiz-adv-x="497" 
d="M38 680h421c21 0 30 -7 30 -28v-78c0 -21 -9 -29 -30 -29h-128v-515c0 -21 -7 -30 -28 -30h-108c-21 0 -29 9 -29 30v515h-128c-21 0 -30 8 -30 29v78c0 21 9 28 30 28zM236 849l12 -28l12 28c6 14 20 29 41 29h78c21 0 28 -13 16 -29l-71 -92c-13 -17 -26 -30 -47 -30
h-58c-21 0 -34 13 -47 30l-71 92c-12 16 -5 29 16 29h78c21 0 35 -15 41 -29z" />
    <glyph glyph-name="Tcommaaccent" unicode="&#x162;" horiz-adv-x="497" 
d="M182 -112v32c0 21 8 30 29 30h76c21 0 28 -9 28 -30v-41c0 -44 -20 -97 -48 -140c-12 -18 -24 -18 -39 -15l-57 13c-20 5 -23 21 -15 39c20 44 26 52 26 112zM38 680h421c21 0 30 -7 30 -28v-78c0 -21 -9 -29 -30 -29h-128v-515c0 -21 -7 -30 -28 -30h-108
c-21 0 -29 9 -29 30v515h-128c-21 0 -30 8 -30 29v78c0 21 9 28 30 28z" />
    <glyph glyph-name="Tbar" unicode="&#x166;" horiz-adv-x="497" 
d="M38 680h421c21 0 30 -7 30 -28v-78c0 -21 -9 -29 -30 -29h-128v-133h88c21 0 30 -7 30 -28v-53c0 -21 -9 -29 -30 -29h-88v-272c0 -21 -7 -30 -28 -30h-108c-21 0 -29 9 -29 30v272h-86c-21 0 -30 8 -30 29v53c0 21 9 28 30 28h86v133h-128c-21 0 -30 8 -30 29v78
c0 21 9 28 30 28z" />
    <glyph glyph-name="Ugrave" unicode="&#xd9;" horiz-adv-x="621" 
d="M239 747l-69 101c-12 17 -6 30 15 30h107c21 0 33 -12 41 -30l40 -92c9 -21 2 -29 -16 -29h-79c-21 0 -33 11 -39 20zM220 650v-458c0 -46 41 -65 90 -65s91 19 91 65v458c0 21 8 30 29 30h108c21 0 28 -9 28 -30v-487c0 -86 -68 -171 -256 -171s-255 85 -255 171v487
c0 21 8 30 29 30h108c21 0 28 -9 28 -30z" />
    <glyph glyph-name="Uacute" unicode="&#xda;" horiz-adv-x="621" 
d="M220 650v-458c0 -46 41 -65 90 -65s91 19 91 65v458c0 21 8 30 29 30h108c21 0 28 -9 28 -30v-487c0 -86 -68 -171 -256 -171s-255 85 -255 171v487c0 21 8 30 29 30h108c21 0 28 -9 28 -30zM454 848l-69 -101c-6 -9 -18 -20 -39 -20h-79c-18 0 -25 8 -16 29l40 92
c8 18 20 30 41 30h107c21 0 27 -13 15 -30z" />
    <glyph glyph-name="Ucircumflex" unicode="&#xdb;" horiz-adv-x="621" 
d="M310 784l-12 -28c-6 -14 -20 -29 -41 -29h-78c-21 0 -28 13 -16 29l71 92c13 17 26 30 47 30h58c21 0 34 -13 47 -30l71 -92c12 -16 5 -29 -16 -29h-78c-21 0 -34 14 -41 29zM220 650v-458c0 -46 41 -65 90 -65s91 19 91 65v458c0 21 8 30 29 30h108c21 0 28 -9 28 -30
v-487c0 -86 -68 -171 -256 -171s-255 85 -255 171v487c0 21 8 30 29 30h108c21 0 28 -9 28 -30z" />
    <glyph glyph-name="Utilde" unicode="&#x168;" horiz-adv-x="621" 
d="M220 650v-458c0 -46 41 -65 90 -65s91 19 91 65v458c0 21 8 30 29 30h108c21 0 28 -9 28 -30v-487c0 -86 -68 -171 -256 -171s-255 85 -255 171v487c0 21 8 30 29 30h108c21 0 28 -9 28 -30zM257 770c-9 0 -17 -5 -19 -13l-1 -4c-5 -21 -13 -26 -32 -26h-53
c-20 0 -26 14 -24 34l6 49c6 47 46 76 94 76c23 0 43 -5 58 -11l42 -16c15 -6 27 -12 36 -12c10 0 17 5 19 13l1 4c5 20 12 26 32 26h52c22 0 27 -13 25 -34l-4 -45c-5 -51 -41 -76 -84 -76c-34 0 -50 4 -69 10l-43 14c-17 6 -27 11 -36 11z" />
    <glyph glyph-name="Udieresis" unicode="&#xdc;" horiz-adv-x="621" 
d="M220 650v-458c0 -46 41 -65 90 -65s91 19 91 65v458c0 21 8 30 29 30h108c21 0 28 -9 28 -30v-487c0 -86 -68 -171 -256 -171s-255 85 -255 171v487c0 21 8 30 29 30h108c21 0 28 -9 28 -30zM291 848v-92c0 -21 -7 -29 -28 -29h-60c-21 0 -29 8 -29 29v92
c0 21 8 30 29 30h60c21 0 28 -9 28 -30zM446 848v-92c0 -21 -7 -29 -28 -29h-60c-21 0 -29 8 -29 29v92c0 21 8 30 29 30h60c21 0 28 -9 28 -30z" />
    <glyph glyph-name="Umacron" unicode="&#x16a;" horiz-adv-x="621" 
d="M220 650v-458c0 -46 41 -65 90 -65s91 19 91 65v458c0 21 8 30 29 30h108c21 0 28 -9 28 -30v-487c0 -86 -68 -171 -256 -171s-255 85 -255 171v487c0 21 8 30 29 30h108c21 0 28 -9 28 -30zM200 860h221c21 0 30 -7 30 -28v-63c0 -21 -9 -29 -30 -29h-221
c-21 0 -30 8 -30 29v63c0 21 9 28 30 28z" />
    <glyph glyph-name="Ubreve" unicode="&#x16c;" horiz-adv-x="621" 
d="M220 650v-458c0 -46 41 -65 90 -65s91 19 91 65v458c0 21 8 30 29 30h108c21 0 28 -9 28 -30v-487c0 -86 -68 -171 -256 -171s-255 85 -255 171v487c0 21 8 30 29 30h108c21 0 28 -9 28 -30zM275 857v-17c0 -20 10 -33 35 -33s35 13 35 33v17c0 18 7 24 26 24h61
c19 0 26 -6 26 -24v-13c0 -84 -59 -130 -152 -130s-144 46 -144 130v13c0 18 7 24 26 24h61c19 0 26 -6 26 -24z" />
    <glyph glyph-name="Uring" unicode="&#x16e;" horiz-adv-x="621" 
d="M432 826v-34c0 -41 -36 -80 -122 -80s-122 39 -122 80v34c0 41 36 80 122 80s122 -39 122 -80zM348 801v16c0 21 -17 27 -38 27s-38 -6 -38 -27v-16c0 -21 17 -28 38 -28s38 7 38 28zM220 650v-458c0 -46 41 -65 90 -65s91 19 91 65v458c0 21 8 30 29 30h108
c21 0 28 -9 28 -30v-487c0 -86 -68 -171 -256 -171s-255 85 -255 171v487c0 21 8 30 29 30h108c21 0 28 -9 28 -30z" />
    <glyph glyph-name="Uhungarumlaut" unicode="&#x170;" horiz-adv-x="621" 
d="M534 848l-66 -92c-10 -14 -23 -29 -44 -29h-75c-21 0 -26 11 -16 29l51 92c11 19 24 30 45 30h90c21 0 27 -13 15 -30zM352 848l-51 -92c-10 -18 -18 -29 -39 -29h-75c-21 0 -28 11 -21 29l36 92c8 19 19 30 40 30h90c21 0 29 -13 20 -30zM220 650v-458
c0 -46 41 -65 90 -65s91 19 91 65v458c0 21 8 30 29 30h108c21 0 28 -9 28 -30v-487c0 -86 -68 -171 -256 -171s-255 85 -255 171v487c0 21 8 30 29 30h108c21 0 28 -9 28 -30z" />
    <glyph glyph-name="Uogonek" unicode="&#x172;" horiz-adv-x="621" 
d="M220 650v-458c0 -46 41 -65 90 -65s91 19 91 65v458c0 21 8 30 29 30h108c21 0 28 -9 28 -30v-487c0 -40 -15 -76 -42 -103c-40 -40 -67 -66 -67 -117c0 -16 8 -25 30 -25h23c21 0 30 -7 30 -28v-40c0 -21 -19 -29 -40 -29h-63c-33 0 -99 12 -99 86c0 17 1 49 23 88
c-16 -2 -33 -3 -51 -3c-188 0 -255 85 -255 171v487c0 21 8 30 29 30h108c21 0 28 -9 28 -30z" />
    <glyph glyph-name="Wgrave" unicode="&#x1e80;" horiz-adv-x="855" 
d="M521 650l68 -279c9 -36 16 -97 17 -108c1 8 7 64 18 107l70 280c5 19 14 30 35 30h94c21 0 27 -11 22 -30l-156 -620c-5 -21 -16 -30 -37 -30h-105c-18 0 -28 11 -33 30l-72 288c-7 27 -13 83 -14 99c-2 -15 -10 -75 -15 -100l-72 -287c-5 -21 -16 -30 -37 -30h-105
c-18 0 -28 11 -33 30l-156 620c-5 19 1 30 22 30h110c21 0 30 -11 35 -30l68 -280c7 -31 14 -79 16 -89c1 7 8 49 18 89l71 280c5 19 14 30 35 30h101c21 0 30 -11 35 -30zM355 747l-69 101c-12 17 -6 30 15 30h107c21 0 33 -12 41 -30l40 -92c9 -21 2 -29 -16 -29h-79
c-21 0 -33 11 -39 20z" />
    <glyph glyph-name="Wacute" unicode="&#x1e82;" horiz-adv-x="855" 
d="M521 650l68 -279c9 -36 16 -97 17 -108c1 8 7 64 18 107l70 280c5 19 14 30 35 30h94c21 0 27 -11 22 -30l-156 -620c-5 -21 -16 -30 -37 -30h-105c-18 0 -28 11 -33 30l-72 288c-7 27 -13 83 -14 99c-2 -15 -10 -75 -15 -100l-72 -287c-5 -21 -16 -30 -37 -30h-105
c-18 0 -28 11 -33 30l-156 620c-5 19 1 30 22 30h110c21 0 30 -11 35 -30l68 -280c7 -31 14 -79 16 -89c1 7 8 49 18 89l71 280c5 19 14 30 35 30h101c21 0 30 -11 35 -30zM579 848l-69 -101c-6 -9 -18 -20 -39 -20h-79c-18 0 -25 8 -16 29l40 92c8 18 20 30 41 30h107
c21 0 27 -13 15 -30z" />
    <glyph glyph-name="Wcircumflex" unicode="&#x174;" horiz-adv-x="855" 
d="M521 650l68 -279c9 -36 16 -97 17 -108c1 8 7 64 18 107l70 280c5 19 14 30 35 30h94c21 0 27 -11 22 -30l-156 -620c-5 -21 -16 -30 -37 -30h-105c-18 0 -28 11 -33 30l-72 288c-7 27 -13 83 -14 99c-2 -15 -10 -75 -15 -100l-72 -287c-5 -21 -16 -30 -37 -30h-105
c-18 0 -28 11 -33 30l-156 620c-5 19 1 30 22 30h110c21 0 30 -11 35 -30l68 -280c7 -31 14 -79 16 -89c1 7 8 49 18 89l71 280c5 19 14 30 35 30h101c21 0 30 -11 35 -30zM430 784l-12 -28c-6 -14 -20 -29 -41 -29h-78c-21 0 -28 13 -16 29l71 92c13 17 26 30 47 30h58
c21 0 34 -13 47 -30l71 -92c12 -16 5 -29 -16 -29h-78c-21 0 -34 14 -41 29z" />
    <glyph glyph-name="Wdieresis" unicode="&#x1e84;" horiz-adv-x="855" 
d="M521 650l68 -279c9 -36 16 -97 17 -108c1 8 7 64 18 107l70 280c5 19 14 30 35 30h94c21 0 27 -11 22 -30l-156 -620c-5 -21 -16 -30 -37 -30h-105c-18 0 -28 11 -33 30l-72 288c-7 27 -13 83 -14 99c-2 -15 -10 -75 -15 -100l-72 -287c-5 -21 -16 -30 -37 -30h-105
c-18 0 -28 11 -33 30l-156 620c-5 19 1 30 22 30h110c21 0 30 -11 35 -30l68 -280c7 -31 14 -79 16 -89c1 7 8 49 18 89l71 280c5 19 14 30 35 30h101c21 0 30 -11 35 -30zM563 848v-92c0 -21 -7 -29 -28 -29h-60c-21 0 -29 8 -29 29v92c0 21 8 30 29 30h60
c21 0 28 -9 28 -30zM408 848v-92c0 -21 -7 -29 -28 -29h-60c-21 0 -29 8 -29 29v92c0 21 8 30 29 30h60c21 0 28 -9 28 -30z" />
    <glyph glyph-name="Ygrave" unicode="&#x1ef2;" horiz-adv-x="558" 
d="M191 650l71 -199c8 -23 16 -56 17 -60c1 4 11 40 20 60l84 199c7 17 14 30 35 30h106c21 0 31 -11 22 -30l-184 -398v-222c0 -21 -7 -30 -28 -30h-108c-21 0 -29 9 -29 30v202l-185 418c-8 18 0 30 21 30h122c21 0 30 -12 36 -30zM208 747l-69 101c-12 17 -6 30 15 30
h107c21 0 33 -12 41 -30l40 -92c9 -21 2 -29 -16 -29h-79c-21 0 -33 11 -39 20z" />
    <glyph glyph-name="Yacute" unicode="&#xdd;" horiz-adv-x="558" 
d="M191 650l71 -199c8 -23 16 -56 17 -60c1 4 11 40 20 60l84 199c7 17 14 30 35 30h106c21 0 31 -11 22 -30l-184 -398v-222c0 -21 -7 -30 -28 -30h-108c-21 0 -29 9 -29 30v202l-185 418c-8 18 0 30 21 30h122c21 0 30 -12 36 -30zM431 848l-69 -101
c-6 -9 -18 -20 -39 -20h-79c-18 0 -25 8 -16 29l40 92c8 18 20 30 41 30h107c21 0 27 -13 15 -30z" />
    <glyph glyph-name="Ycircumflex" unicode="&#x176;" horiz-adv-x="558" 
d="M191 650l71 -199c8 -23 16 -56 17 -60c1 4 11 40 20 60l84 199c7 17 14 30 35 30h106c21 0 31 -11 22 -30l-184 -398v-222c0 -21 -7 -30 -28 -30h-108c-21 0 -29 9 -29 30v202l-185 418c-8 18 0 30 21 30h122c21 0 30 -12 36 -30zM279 784l-12 -28
c-6 -14 -20 -29 -41 -29h-78c-21 0 -28 13 -16 29l71 92c13 17 26 30 47 30h58c21 0 34 -13 47 -30l71 -92c12 -16 5 -29 -16 -29h-78c-21 0 -34 14 -41 29z" />
    <glyph glyph-name="Ydieresis" unicode="&#x178;" horiz-adv-x="558" 
d="M191 650l71 -199c8 -23 16 -56 17 -60c1 4 11 40 20 60l84 199c7 17 14 30 35 30h106c21 0 31 -11 22 -30l-184 -398v-222c0 -21 -7 -30 -28 -30h-108c-21 0 -29 9 -29 30v202l-185 418c-8 18 0 30 21 30h122c21 0 30 -12 36 -30zM260 848v-92c0 -21 -7 -29 -28 -29h-60
c-21 0 -29 8 -29 29v92c0 21 8 30 29 30h60c21 0 28 -9 28 -30zM415 848v-92c0 -21 -7 -29 -28 -29h-60c-21 0 -29 8 -29 29v92c0 21 8 30 29 30h60c21 0 28 -9 28 -30z" />
    <glyph glyph-name="Zacute" unicode="&#x179;" horiz-adv-x="494" 
d="M72 680h359c21 0 30 -7 30 -28v-78c0 -10 -2 -17 -6 -22l-232 -417h226c21 0 30 -7 30 -28v-78c0 -21 -9 -29 -30 -29h-394c-21 0 -30 8 -30 29v78c0 9 1 16 5 20l233 418h-191c-21 0 -30 8 -30 29v78c0 21 9 28 30 28zM397 848l-69 -101c-6 -9 -18 -20 -39 -20h-79
c-18 0 -25 8 -16 29l40 92c8 18 20 30 41 30h107c21 0 27 -13 15 -30z" />
    <glyph glyph-name="Zcaron" unicode="&#x17d;" horiz-adv-x="494" 
d="M240 849l12 -28l12 28c6 14 20 29 41 29h78c21 0 28 -13 16 -29l-71 -92c-13 -17 -26 -30 -47 -30h-58c-21 0 -34 13 -47 30l-71 92c-12 16 -5 29 16 29h78c21 0 35 -15 41 -29zM72 680h359c21 0 30 -7 30 -28v-78c0 -10 -2 -17 -6 -22l-232 -417h226c21 0 30 -7 30 -28
v-78c0 -21 -9 -29 -30 -29h-394c-21 0 -30 8 -30 29v78c0 9 1 16 5 20l233 418h-191c-21 0 -30 8 -30 29v78c0 21 9 28 30 28z" />
    <glyph glyph-name="Zdotaccent" unicode="&#x17b;" horiz-adv-x="494" 
d="M328 839v-83c0 -21 -7 -29 -28 -29h-106c-21 0 -29 8 -29 29v83c0 21 8 30 29 30h106c21 0 28 -9 28 -30zM72 680h359c21 0 30 -7 30 -28v-78c0 -10 -2 -17 -6 -22l-232 -417h226c21 0 30 -7 30 -28v-78c0 -21 -9 -29 -30 -29h-394c-21 0 -30 8 -30 29v78c0 9 1 16 5 20
l233 418h-191c-21 0 -30 8 -30 29v78c0 21 9 28 30 28z" />
    <glyph glyph-name="Eng" unicode="&#x14a;" horiz-adv-x="631" 
d="M571 650v-693c0 -95 -71 -156 -222 -156h-11c-21 0 -30 8 -30 29v71c0 21 9 30 30 30h11c41 0 67 11 67 44v42l-158 263c-17 27 -32 62 -43 90v-340c0 -21 -7 -30 -28 -30h-98c-21 0 -29 9 -29 30v620c0 21 8 30 29 30h98c13 0 21 -4 25 -12l169 -283
c12 -21 25 -51 35 -75v340c0 21 8 30 29 30h98c21 0 28 -9 28 -30z" />
    <glyph glyph-name="Eth" unicode="&#xd0;" horiz-adv-x="621" 
d="M315 0h-230c-18 0 -25 10 -25 30v251h-31c-21 0 -30 8 -30 29v63c0 21 9 28 30 28h31v249c0 21 8 30 29 30h226c188 0 256 -85 256 -171v-338c0 -86 -68 -171 -256 -171zM315 545h-90v-144h71c21 0 30 -7 30 -28v-63c0 -21 -9 -29 -30 -29h-71v-146h90c49 0 91 19 91 65
v280c0 46 -42 65 -91 65z" />
    <glyph glyph-name="Thorn" unicode="&#xde;" horiz-adv-x="586" 
d="M225 650v-150h80c188 0 254 -85 254 -171v-77c0 -86 -66 -171 -254 -171h-80v-51c0 -21 -7 -30 -28 -30h-108c-21 0 -29 9 -29 30v620c0 21 8 30 29 30h108c21 0 28 -9 28 -30zM305 365h-80v-149h80c49 0 91 19 91 65v19c0 46 -42 65 -91 65z" />
    <glyph glyph-name="a" unicode="a" horiz-adv-x="522" 
d="M54 345v12c0 95 65 151 212 151c151 0 211 -56 211 -151v-327c0 -21 -8 -30 -29 -30h-92c-22 0 -26 9 -29 30l-2 15c-29 -24 -75 -53 -140 -53c-101 0 -147 62 -147 128v43c0 68 56 129 160 129h122v55c0 31 -15 46 -57 46s-60 -10 -60 -41v-7c0 -21 -8 -29 -29 -29h-91
c-21 0 -29 8 -29 29zM228 116c34 0 69 21 92 37v33h-92c-29 0 -34 -16 -34 -31v-13c0 -23 19 -26 34 -26z" />
    <glyph glyph-name="b" unicode="b" horiz-adv-x="548" 
d="M175 0h-96c-21 0 -29 9 -29 30v639c0 21 8 30 29 30h103c21 0 28 -9 28 -30v-213c28 22 75 52 150 52c101 0 148 -59 148 -154v-208c0 -95 -47 -154 -148 -154c-79 0 -126 33 -154 55l-2 -17c-2 -21 -8 -30 -29 -30zM348 171v158c0 20 -1 42 -39 42
c-39 0 -79 -26 -99 -41v-160c20 -15 60 -41 99 -41c38 0 39 22 39 42z" />
    <glyph glyph-name="c" unicode="c" horiz-adv-x="498" 
d="M257 508c151 0 216 -61 216 -156v-15c0 -21 -8 -29 -29 -29h-95c-21 0 -29 8 -29 29v3c0 33 -18 43 -60 43s-60 -10 -60 -43v-179c0 -33 18 -44 60 -44s60 11 60 44v12c0 21 8 29 29 29h95c21 0 29 -8 29 -29v-25c0 -95 -66 -156 -217 -156s-216 61 -216 156v204
c0 95 66 156 217 156z" />
    <glyph glyph-name="d" unicode="d" horiz-adv-x="548" 
d="M344 30l-2 17c-28 -22 -76 -55 -154 -55c-101 0 -148 59 -148 154v208c0 95 47 154 148 154c74 0 121 -30 150 -52v213c0 21 7 30 28 30h103c21 0 29 -9 29 -30v-639c0 -21 -8 -30 -29 -30h-96c-21 0 -27 9 -29 30zM200 329v-158c0 -20 1 -42 39 -42s78 26 99 41v160
c-21 15 -61 41 -99 41s-39 -22 -39 -42z" />
    <glyph glyph-name="e" unicode="e" horiz-adv-x="503" 
d="M466 352v-111c0 -19 -8 -27 -27 -27h-243v-60c0 -30 18 -44 60 -44s61 14 61 44v1c0 21 8 29 29 29h86c21 0 29 -8 29 -29v-7c0 -95 -54 -156 -205 -156s-216 61 -216 156v204c0 95 65 156 216 156s210 -61 210 -156zM196 345v-29h121v29c0 30 -19 45 -61 45
s-60 -15 -60 -45z" />
    <glyph glyph-name="f" unicode="f" horiz-adv-x="362" 
d="M93 498h1v49c0 95 76 156 227 156h11c21 0 30 -8 30 -29v-71c0 -21 -9 -30 -30 -30h-11c-41 0 -67 -11 -67 -44v-31h71c21 0 30 -7 30 -28v-68c0 -21 -9 -29 -30 -29h-71v-343c0 -21 -7 -30 -28 -30h-103c-21 0 -29 9 -29 30v343h-50c-21 0 -29 8 -29 29v61
c0 21 8 26 29 29z" />
    <glyph glyph-name="g" unicode="g" horiz-adv-x="548" 
d="M188 -8c-101 0 -148 59 -148 154v208c0 95 47 154 148 154c79 0 127 -34 155 -56l2 18c3 21 7 30 29 30h95c21 0 29 -9 29 -30v-513c0 -95 -76 -156 -227 -156h-143c-21 0 -30 8 -30 29v71c0 21 9 30 30 30h143c41 0 67 11 67 44v68c-29 -21 -76 -51 -150 -51zM200 329
v-158c0 -20 1 -42 39 -42s78 26 99 41v160c-21 15 -61 41 -99 41s-39 -22 -39 -42z" />
    <glyph glyph-name="h" unicode="h" horiz-adv-x="553" 
d="M210 669v-211c28 22 76 50 151 50c91 0 147 -58 147 -139v-339c0 -21 -8 -30 -29 -30h-101c-21 0 -30 9 -30 30v298c0 31 -6 43 -38 43c-39 0 -80 -25 -100 -40v-301c0 -21 -7 -30 -28 -30h-103c-21 0 -29 9 -29 30v639c0 21 8 30 29 30h103c21 0 28 -9 28 -30z" />
    <glyph glyph-name="i" unicode="i" 
d="M210 470v-440c0 -21 -7 -30 -28 -30h-103c-21 0 -29 9 -29 30v440c0 21 8 30 29 30h103c21 0 28 -9 28 -30zM210 669v-83c0 -21 -7 -29 -28 -29h-103c-21 0 -29 8 -29 29v83c0 21 8 30 29 30h103c21 0 28 -9 28 -30z" />
    <glyph glyph-name="j" unicode="j" 
d="M210 669v-83c0 -21 -7 -29 -28 -29h-103c-21 0 -29 8 -29 29v83c0 21 8 30 29 30h103c21 0 28 -9 28 -30zM210 470v-513c0 -95 -76 -156 -227 -156h-11c-21 0 -30 8 -30 29v71c0 21 9 30 30 30h11c41 0 67 11 67 44v495c0 21 7 30 28 30h103c21 0 29 -9 29 -30z" />
    <glyph glyph-name="k" unicode="k" horiz-adv-x="511" 
d="M353 284l157 -254c10 -15 6 -30 -15 -30h-111c-21 0 -32 15 -42 30l-116 189h-16v-189c0 -21 -7 -30 -28 -30h-103c-21 0 -29 9 -29 30v639c0 21 8 30 29 30h103c21 0 28 -9 28 -30v-330h16l103 131c12 15 26 30 47 30h111c21 0 25 -16 14 -30z" />
    <glyph glyph-name="l" unicode="l" 
d="M210 669v-639c0 -21 -7 -30 -28 -30h-103c-21 0 -29 9 -29 30v639c0 21 8 30 29 30h103c21 0 28 -9 28 -30z" />
    <glyph glyph-name="m" unicode="m" horiz-adv-x="839" 
d="M79 500h96c21 0 27 -8 29 -29l1 -17c27 23 71 54 150 54c60 0 105 -26 128 -66c25 22 73 66 164 66s147 -58 147 -139v-339c0 -21 -8 -30 -29 -30h-101c-21 0 -30 9 -30 30v298c0 31 -6 43 -38 43c-39 0 -76 -24 -94 -40v-301c0 -21 -8 -30 -29 -30h-101
c-21 0 -30 9 -30 30v298c0 31 -6 43 -38 43c-39 0 -76 -24 -94 -40v-301c0 -21 -7 -30 -28 -30h-103c-21 0 -29 9 -29 30v441c0 21 8 29 29 29z" />
    <glyph glyph-name="n" unicode="n" horiz-adv-x="553" 
d="M79 500h96c21 0 27 -8 29 -29l2 -17c28 23 76 54 155 54c91 0 147 -58 147 -139v-339c0 -21 -8 -30 -29 -30h-101c-21 0 -30 9 -30 30v298c0 31 -6 43 -38 43c-39 0 -80 -25 -100 -40v-301c0 -21 -7 -30 -28 -30h-103c-21 0 -29 9 -29 30v441c0 21 8 29 29 29z" />
    <glyph glyph-name="o" unicode="o" horiz-adv-x="538" 
d="M40 148v204c0 95 78 156 229 156s229 -61 229 -156v-204c0 -95 -78 -156 -229 -156s-229 61 -229 156zM338 162v177c0 33 -28 44 -69 44s-69 -11 -69 -44v-177c0 -34 28 -45 69 -45s69 11 69 45z" />
    <glyph glyph-name="p" unicode="p" horiz-adv-x="548" 
d="M79 500h96c21 0 27 -9 29 -30l2 -17c28 21 75 55 154 55c101 0 148 -59 148 -154v-208c0 -95 -47 -154 -148 -154c-75 0 -122 30 -150 51v-212c0 -21 -7 -30 -28 -30h-103c-21 0 -29 9 -29 30v639c0 21 8 30 29 30zM348 171v158c0 20 -1 42 -39 42c-39 0 -79 -26 -99 -41
v-160c20 -15 60 -41 99 -41c38 0 39 22 39 42z" />
    <glyph glyph-name="q" unicode="q" horiz-adv-x="548" 
d="M342 453l2 17c2 21 8 30 29 30h96c21 0 29 -9 29 -30v-639c0 -21 -8 -30 -29 -30h-103c-21 0 -28 9 -28 30v212c-29 -21 -76 -51 -150 -51c-101 0 -148 59 -148 154v208c0 95 47 154 148 154c78 0 126 -34 154 -55zM200 329v-158c0 -20 1 -42 39 -42s78 26 99 41v160
c-21 15 -61 41 -99 41s-39 -22 -39 -42z" />
    <glyph glyph-name="r" unicode="r" horiz-adv-x="383" 
d="M345 508c21 0 30 -8 30 -29v-78c0 -21 -9 -28 -30 -30c-71 -7 -114 -36 -135 -55v-286c0 -21 -7 -30 -28 -30h-103c-21 0 -29 9 -29 30v441c0 21 8 29 29 29h96c21 0 27 -8 29 -29l3 -28c24 28 67 65 138 65z" />
    <glyph glyph-name="s" unicode="s" horiz-adv-x="475" 
d="M298 352v14c0 27 -27 32 -55 32s-54 -5 -54 -32v-5c0 -15 11 -23 21 -27l140 -50c67 -24 100 -60 100 -108v-48c0 -66 -58 -136 -211 -136s-209 70 -209 136v21c0 19 7 27 27 27h92c20 0 27 -8 27 -27v-14c0 -27 33 -32 63 -32s64 5 64 32v9c0 13 -8 19 -39 31l-141 54
c-37 14 -79 60 -79 109v28c0 66 48 142 200 142s200 -76 200 -142v-14c0 -20 -7 -28 -28 -28h-91c-20 0 -27 8 -27 28z" />
    <glyph glyph-name="t" unicode="t" horiz-adv-x="371" 
d="M243 498h81c21 0 30 -7 30 -28v-68c0 -21 -9 -29 -30 -29h-81v-199c0 -33 23 -44 64 -44h24c21 0 30 -9 30 -30v-71c0 -21 -9 -29 -30 -29h-50c-151 0 -198 51 -198 156v217h-44c-21 0 -29 8 -29 29v61c0 21 8 26 29 29l43 6h1v91c0 21 8 30 29 30h103c21 0 28 -9 28 -30
v-91z" />
    <glyph glyph-name="u" unicode="u" horiz-adv-x="547" 
d="M343 29l-2 16c-26 -22 -71 -53 -149 -53c-91 0 -147 58 -147 139v339c0 21 8 30 29 30h101c21 0 30 -9 30 -30v-298c0 -31 6 -43 38 -43c38 0 75 24 94 39v302c0 21 7 30 28 30h103c21 0 29 -9 29 -30v-441c0 -21 -8 -29 -29 -29h-96c-21 0 -26 8 -29 29z" />
    <glyph glyph-name="v" unicode="v" horiz-adv-x="494" 
d="M301 0h-118c-21 0 -23 7 -30 27l-146 443c-7 21 8 30 29 30h106c21 0 28 -12 33 -30l54 -178c12 -41 17 -96 18 -105c1 8 8 64 22 104l62 179c6 18 12 30 33 30h94c21 0 36 -9 29 -30l-156 -443c-7 -20 -9 -27 -30 -27z" />
    <glyph glyph-name="w" unicode="w" horiz-adv-x="744" 
d="M737 470l-127 -443c-6 -20 -9 -27 -30 -27h-123c-21 0 -26 9 -30 27l-41 191c-5 21 -9 50 -9 55c-1 -3 -7 -33 -13 -55l-57 -191c-5 -18 -9 -27 -30 -27h-120c-21 0 -25 8 -30 27l-120 443c-6 21 8 30 29 30h98c21 0 28 -12 33 -30l58 -222c5 -22 7 -48 8 -51
c0 3 7 33 12 51l62 222c5 18 12 30 33 30h97c21 0 29 -12 33 -30l48 -222l9 -51c1 5 7 36 11 51l56 222c5 18 12 30 33 30h81c21 0 35 -9 29 -30z" />
    <glyph glyph-name="x" unicode="x" horiz-adv-x="480" 
d="M323 250l146 -220c10 -15 6 -30 -15 -30h-111c-21 0 -32 15 -42 30l-75 113l-70 -113c-10 -15 -21 -30 -42 -30h-98c-21 0 -25 15 -15 30l150 226l-141 214c-11 16 -7 30 14 30h111c21 0 32 -13 43 -30l71 -107l64 107c10 17 22 30 43 30h98c21 0 25 -14 14 -30z" />
    <glyph glyph-name="y" unicode="y" horiz-adv-x="494" 
d="M171 470l57 -181c14 -47 17 -92 18 -96c1 6 15 64 24 91l62 186c6 19 12 30 33 30h93c21 0 36 -10 29 -30l-217 -639c-5 -15 -12 -30 -33 -30h-74c-21 0 -35 10 -29 30l43 152l-170 487c-7 20 8 30 29 30h102c21 0 27 -12 33 -30z" />
    <glyph glyph-name="z" unicode="z" horiz-adv-x="443" 
d="M73 500h305c21 0 30 -7 30 -28v-72c0 -8 -2 -16 -6 -22l-182 -248h178c21 0 30 -7 30 -28v-73c0 -21 -9 -29 -30 -29h-343c-21 0 -30 8 -30 29v73c0 10 3 16 6 21l180 247h-138c-21 0 -30 8 -30 29v73c0 21 9 28 30 28z" />
    <glyph glyph-name="agrave" unicode="&#xe0;" horiz-adv-x="522" 
d="M54 345v12c0 95 65 151 212 151c151 0 211 -56 211 -151v-327c0 -21 -8 -30 -29 -30h-92c-22 0 -26 9 -29 30l-2 15c-29 -24 -75 -53 -140 -53c-101 0 -147 62 -147 128v43c0 68 56 129 160 129h122v55c0 31 -15 46 -57 46s-60 -10 -60 -41v-7c0 -21 -8 -29 -29 -29h-91
c-21 0 -29 8 -29 29zM228 116c34 0 69 21 92 37v33h-92c-29 0 -34 -16 -34 -31v-13c0 -23 19 -26 34 -26zM203 577l-69 101c-12 17 -6 30 15 30h107c21 0 33 -12 41 -30l40 -92c9 -21 2 -29 -16 -29h-79c-21 0 -33 11 -39 20z" />
    <glyph glyph-name="aacute" unicode="&#xe1;" horiz-adv-x="522" 
d="M54 345v12c0 95 65 151 212 151c151 0 211 -56 211 -151v-327c0 -21 -8 -30 -29 -30h-92c-22 0 -26 9 -29 30l-2 15c-29 -24 -75 -53 -140 -53c-101 0 -147 62 -147 128v43c0 68 56 129 160 129h122v55c0 31 -15 46 -57 46s-60 -10 -60 -41v-7c0 -21 -8 -29 -29 -29h-91
c-21 0 -29 8 -29 29zM228 116c34 0 69 21 92 37v33h-92c-29 0 -34 -16 -34 -31v-13c0 -23 19 -26 34 -26zM393 678l-69 -101c-6 -9 -18 -20 -39 -20h-79c-18 0 -25 8 -16 29l40 92c8 18 20 30 41 30h107c21 0 27 -13 15 -30z" />
    <glyph glyph-name="acircumflex" unicode="&#xe2;" horiz-adv-x="522" 
d="M54 345v12c0 95 65 151 212 151c151 0 211 -56 211 -151v-327c0 -21 -8 -30 -29 -30h-92c-22 0 -26 9 -29 30l-2 15c-29 -24 -75 -53 -140 -53c-101 0 -147 62 -147 128v43c0 68 56 129 160 129h122v55c0 31 -15 46 -57 46s-60 -10 -60 -41v-7c0 -21 -8 -29 -29 -29h-91
c-21 0 -29 8 -29 29zM228 116c34 0 69 21 92 37v33h-92c-29 0 -34 -16 -34 -31v-13c0 -23 19 -26 34 -26zM265 614l-12 -28c-6 -14 -20 -29 -41 -29h-78c-21 0 -28 13 -16 29l71 92c13 17 26 30 47 30h58c21 0 34 -13 47 -30l71 -92c12 -16 5 -29 -16 -29h-78
c-21 0 -34 14 -41 29z" />
    <glyph glyph-name="atilde" unicode="&#xe3;" horiz-adv-x="522" 
d="M54 345v12c0 95 65 151 212 151c151 0 211 -56 211 -151v-327c0 -21 -8 -30 -29 -30h-92c-22 0 -26 9 -29 30l-2 15c-29 -24 -75 -53 -140 -53c-101 0 -147 62 -147 128v43c0 68 56 129 160 129h122v55c0 31 -15 46 -57 46s-60 -10 -60 -41v-7c0 -21 -8 -29 -29 -29h-91
c-21 0 -29 8 -29 29zM228 116c34 0 69 21 92 37v33h-92c-29 0 -34 -16 -34 -31v-13c0 -23 19 -26 34 -26zM215 590c-9 0 -17 -5 -19 -13l-1 -4c-5 -21 -13 -26 -32 -26h-53c-20 0 -26 14 -24 34l6 49c6 47 46 76 94 76c23 0 43 -5 58 -11l42 -16c15 -6 27 -12 36 -12
c10 0 17 5 19 13l1 4c5 20 12 26 32 26h52c22 0 27 -13 25 -34l-4 -45c-5 -51 -41 -76 -84 -76c-34 0 -50 4 -69 10l-43 14c-17 6 -27 11 -36 11z" />
    <glyph glyph-name="adieresis" unicode="&#xe4;" horiz-adv-x="522" 
d="M54 345v12c0 95 65 151 212 151c151 0 211 -56 211 -151v-327c0 -21 -8 -30 -29 -30h-92c-22 0 -26 9 -29 30l-2 15c-29 -24 -75 -53 -140 -53c-101 0 -147 62 -147 128v43c0 68 56 129 160 129h122v55c0 31 -15 46 -57 46s-60 -10 -60 -41v-7c0 -21 -8 -29 -29 -29h-91
c-21 0 -29 8 -29 29zM228 116c34 0 69 21 92 37v33h-92c-29 0 -34 -16 -34 -31v-13c0 -23 19 -26 34 -26zM246 678v-92c0 -21 -7 -29 -28 -29h-60c-21 0 -29 8 -29 29v92c0 21 8 30 29 30h60c21 0 28 -9 28 -30zM401 678v-92c0 -21 -7 -29 -28 -29h-60c-21 0 -29 8 -29 29
v92c0 21 8 30 29 30h60c21 0 28 -9 28 -30z" />
    <glyph glyph-name="amacron" unicode="&#x101;" horiz-adv-x="522" 
d="M54 345v12c0 95 65 151 212 151c151 0 211 -56 211 -151v-327c0 -21 -8 -30 -29 -30h-92c-22 0 -26 9 -29 30l-2 15c-29 -24 -75 -53 -140 -53c-101 0 -147 62 -147 128v43c0 68 56 129 160 129h122v55c0 31 -15 46 -57 46s-60 -10 -60 -41v-7c0 -21 -8 -29 -29 -29h-91
c-21 0 -29 8 -29 29zM228 116c34 0 69 21 92 37v33h-92c-29 0 -34 -16 -34 -31v-13c0 -23 19 -26 34 -26zM150 680h221c21 0 30 -7 30 -28v-63c0 -21 -9 -29 -30 -29h-221c-21 0 -30 8 -30 29v63c0 21 9 28 30 28z" />
    <glyph glyph-name="abreve" unicode="&#x103;" horiz-adv-x="522" 
d="M54 345v12c0 95 65 151 212 151c151 0 211 -56 211 -151v-327c0 -21 -8 -30 -29 -30h-92c-22 0 -26 9 -29 30l-2 15c-29 -24 -75 -53 -140 -53c-101 0 -147 62 -147 128v43c0 68 56 129 160 129h122v55c0 31 -15 46 -57 46s-60 -10 -60 -41v-7c0 -21 -8 -29 -29 -29h-91
c-21 0 -29 8 -29 29zM228 116c34 0 69 21 92 37v33h-92c-29 0 -34 -16 -34 -31v-13c0 -23 19 -26 34 -26zM244 686v-17c0 -20 10 -33 35 -33s35 13 35 33v17c0 18 7 24 26 24h61c19 0 26 -6 26 -24v-13c0 -84 -59 -130 -152 -130s-144 46 -144 130v13c0 18 7 24 26 24h61
c19 0 26 -6 26 -24z" />
    <glyph glyph-name="aring" unicode="&#xe5;" horiz-adv-x="522" 
d="M54 345v12c0 95 65 151 212 151c151 0 211 -56 211 -151v-327c0 -21 -8 -30 -29 -30h-92c-22 0 -26 9 -29 30l-2 15c-29 -24 -75 -53 -140 -53c-101 0 -147 62 -147 128v43c0 68 56 129 160 129h122v55c0 31 -15 46 -57 46s-60 -10 -60 -41v-7c0 -21 -8 -29 -29 -29h-91
c-21 0 -29 8 -29 29zM228 116c34 0 69 21 92 37v33h-92c-29 0 -34 -16 -34 -31v-13c0 -23 19 -26 34 -26zM390 654v-34c0 -41 -36 -80 -122 -80s-122 39 -122 80v34c0 41 36 80 122 80s122 -39 122 -80zM306 629v16c0 21 -17 27 -38 27s-38 -6 -38 -27v-16
c0 -21 17 -28 38 -28s38 7 38 28z" />
    <glyph glyph-name="aringacute" unicode="&#x1fb;" horiz-adv-x="522" 
d="M54 345v12c0 95 65 151 212 151c151 0 211 -56 211 -151v-327c0 -21 -8 -30 -29 -30h-92c-22 0 -26 9 -29 30l-2 15c-29 -24 -75 -53 -140 -53c-101 0 -147 62 -147 128v43c0 68 56 129 160 129h122v55c0 31 -15 46 -57 46s-60 -10 -60 -41v-7c0 -21 -8 -29 -29 -29h-91
c-21 0 -29 8 -29 29zM390 654v-34c0 -41 -36 -80 -122 -80s-122 39 -122 80v34c0 30 19 59 63 72l30 68c8 18 20 30 41 30h107c21 0 27 -13 15 -30l-53 -77c28 -15 41 -39 41 -63zM228 116c34 0 69 21 92 37v33h-92c-29 0 -34 -16 -34 -31v-13c0 -23 19 -26 34 -26zM306 629
v16c0 21 -17 27 -38 27s-38 -6 -38 -27v-16c0 -21 17 -28 38 -28s38 7 38 28z" />
    <glyph glyph-name="aogonek" unicode="&#x105;" horiz-adv-x="522" 
d="M54 345v12c0 95 65 151 212 151c151 0 211 -56 211 -151v-327c0 -21 -8 -30 -29 -30h-4c-29 0 -41 -24 -41 -57c0 -16 8 -25 30 -25h14c21 0 30 -7 30 -28v-40c0 -21 -19 -29 -40 -29h-54c-33 0 -99 12 -99 86c0 21 3 66 44 118l-3 20c-29 -24 -75 -53 -140 -53
c-101 0 -147 62 -147 128v43c0 68 56 129 160 129h122v55c0 31 -15 46 -57 46s-60 -10 -60 -41v-7c0 -21 -8 -29 -29 -29h-91c-21 0 -29 8 -29 29zM228 116c34 0 69 21 92 37v33h-92c-29 0 -34 -16 -34 -31v-13c0 -23 19 -26 34 -26z" />
    <glyph glyph-name="ae" unicode="&#xe6;" horiz-adv-x="783" 
d="M746 352v-111c0 -19 -8 -27 -27 -27h-243v-60c0 -30 18 -44 60 -44s61 14 61 44v1c0 21 8 29 29 29h86c21 0 29 -8 29 -29v-7c0 -95 -54 -156 -205 -156c-90 0 -149 21 -182 58c-32 -24 -92 -58 -169 -58c-101 0 -147 62 -147 128v43c0 68 56 129 160 129h122v59
c0 28 -17 42 -57 42c-42 0 -60 -10 -60 -41v-7c0 -21 -8 -29 -29 -29h-91c-21 0 -29 8 -29 29v12c0 95 65 151 212 151c63 0 104 -16 130 -40c31 23 74 40 140 40c151 0 210 -61 210 -156zM228 116c34 0 69 21 92 37v33h-92c-29 0 -34 -16 -34 -31v-13c0 -23 19 -26 34 -26z
M476 345v-26h121v26c0 30 -19 45 -61 45s-60 -15 -60 -45z" />
    <glyph glyph-name="aeacute" unicode="&#x1fd;" horiz-adv-x="783" 
d="M523 678l-69 -101c-6 -9 -18 -20 -39 -20h-79c-18 0 -25 8 -16 29l40 92c8 18 20 30 41 30h107c21 0 27 -13 15 -30zM746 352v-111c0 -19 -8 -27 -27 -27h-243v-60c0 -30 18 -44 60 -44s61 14 61 44v1c0 21 8 29 29 29h86c21 0 29 -8 29 -29v-7c0 -95 -54 -156 -205 -156
c-90 0 -149 21 -182 58c-32 -24 -92 -58 -169 -58c-101 0 -147 62 -147 128v43c0 68 56 129 160 129h122v59c0 28 -17 42 -57 42c-42 0 -60 -10 -60 -41v-7c0 -21 -8 -29 -29 -29h-91c-21 0 -29 8 -29 29v12c0 95 65 151 212 151c63 0 104 -16 130 -40c31 23 74 40 140 40
c151 0 210 -61 210 -156zM228 116c34 0 69 21 92 37v33h-92c-29 0 -34 -16 -34 -31v-13c0 -23 19 -26 34 -26zM476 345v-26h121v26c0 30 -19 45 -61 45s-60 -15 -60 -45z" />
    <glyph glyph-name="cacute" unicode="&#x107;" horiz-adv-x="498" 
d="M394 678l-69 -101c-6 -9 -18 -20 -39 -20h-79c-18 0 -25 8 -16 29l40 92c8 18 20 30 41 30h107c21 0 27 -13 15 -30zM257 508c151 0 216 -61 216 -156v-15c0 -21 -8 -29 -29 -29h-95c-21 0 -29 8 -29 29v3c0 33 -18 43 -60 43s-60 -10 -60 -43v-179c0 -33 18 -44 60 -44
s60 11 60 44v12c0 21 8 29 29 29h95c21 0 29 -8 29 -29v-25c0 -95 -66 -156 -217 -156s-216 61 -216 156v204c0 95 66 156 217 156z" />
    <glyph glyph-name="ccircumflex" unicode="&#x109;" horiz-adv-x="498" 
d="M249 614l-12 -28c-6 -14 -20 -29 -41 -29h-78c-21 0 -28 13 -16 29l71 92c13 17 26 30 47 30h58c21 0 34 -13 47 -30l71 -92c12 -16 5 -29 -16 -29h-78c-21 0 -34 14 -41 29zM257 508c151 0 216 -61 216 -156v-15c0 -21 -8 -29 -29 -29h-95c-21 0 -29 8 -29 29v3
c0 33 -18 43 -60 43s-60 -10 -60 -43v-179c0 -33 18 -44 60 -44s60 11 60 44v12c0 21 8 29 29 29h95c21 0 29 -8 29 -29v-25c0 -95 -66 -156 -217 -156s-216 61 -216 156v204c0 95 66 156 217 156z" />
    <glyph glyph-name="ccaron" unicode="&#x10d;" horiz-adv-x="498" 
d="M237 679l12 -28l12 28c6 14 20 29 41 29h78c21 0 28 -13 16 -29l-71 -92c-13 -17 -26 -30 -47 -30h-58c-21 0 -34 13 -47 30l-71 92c-12 16 -5 29 16 29h78c21 0 35 -15 41 -29zM257 508c151 0 216 -61 216 -156v-15c0 -21 -8 -29 -29 -29h-95c-21 0 -29 8 -29 29v3
c0 33 -18 43 -60 43s-60 -10 -60 -43v-179c0 -33 18 -44 60 -44s60 11 60 44v12c0 21 8 29 29 29h95c21 0 29 -8 29 -29v-25c0 -95 -66 -156 -217 -156s-216 61 -216 156v204c0 95 66 156 217 156z" />
    <glyph glyph-name="cdotaccent" unicode="&#x10b;" horiz-adv-x="498" 
d="M257 508c151 0 216 -61 216 -156v-15c0 -21 -8 -29 -29 -29h-95c-21 0 -29 8 -29 29v3c0 33 -18 43 -60 43s-60 -10 -60 -43v-179c0 -33 18 -44 60 -44s60 11 60 44v12c0 21 8 29 29 29h95c21 0 29 -8 29 -29v-25c0 -95 -66 -156 -217 -156s-216 61 -216 156v204
c0 95 66 156 217 156zM330 678v-83c0 -21 -7 -29 -28 -29h-106c-21 0 -29 8 -29 29v83c0 21 8 30 29 30h106c21 0 28 -9 28 -30z" />
    <glyph glyph-name="ccedilla" unicode="&#xe7;" horiz-adv-x="498" 
d="M266 -39h27c56 0 89 -26 89 -84c0 -60 -33 -88 -89 -88h-125c-21 0 -30 8 -30 29v21c0 21 9 28 30 28h97c8 0 9 7 9 10s-1 10 -9 10h-81c-35 0 -42 17 -35 40l21 73c-90 19 -130 73 -130 148v204c0 95 66 156 217 156s216 -61 216 -156v-15c0 -21 -8 -29 -29 -29h-95
c-21 0 -29 8 -29 29v3c0 33 -18 43 -60 43s-60 -10 -60 -43v-179c0 -33 18 -44 60 -44s60 11 60 44v12c0 21 8 29 29 29h95c21 0 29 -8 29 -29v-25c0 -91 -61 -150 -199 -155z" />
    <glyph glyph-name="dcaron" unicode="&#x10f;" horiz-adv-x="674" 
d="M558 690v32c0 21 8 30 29 30h76c21 0 28 -9 28 -30v-41c0 -44 -20 -97 -48 -140c-12 -18 -24 -18 -39 -15l-57 13c-20 5 -23 21 -15 39c20 44 26 52 26 112zM344 30l-2 17c-28 -22 -76 -55 -154 -55c-101 0 -148 59 -148 154v208c0 95 47 154 148 154
c74 0 121 -30 150 -52v213c0 21 7 30 28 30h103c21 0 29 -9 29 -30v-639c0 -21 -8 -30 -29 -30h-96c-21 0 -27 9 -29 30zM200 329v-158c0 -20 1 -42 39 -42s78 26 99 41v160c-21 15 -61 41 -99 41s-39 -22 -39 -42z" />
    <glyph glyph-name="dcroat" unicode="&#x111;" horiz-adv-x="548" 
d="M344 30l-2 17c-28 -22 -76 -55 -154 -55c-101 0 -148 59 -148 154v208c0 95 47 154 148 154c74 0 121 -30 150 -52v76h-66c-21 0 -30 8 -30 29v53c0 21 9 28 30 28h66v27c0 21 7 30 28 30h103c21 0 29 -9 29 -30v-27h21c21 0 30 -7 30 -28v-53c0 -21 -9 -29 -30 -29h-21
v-502c0 -21 -8 -30 -29 -30h-96c-21 0 -27 9 -29 30zM200 329v-158c0 -20 1 -42 39 -42s78 26 99 41v160c-21 15 -61 41 -99 41s-39 -22 -39 -42z" />
    <glyph glyph-name="egrave" unicode="&#xe8;" horiz-adv-x="503" 
d="M466 352v-111c0 -19 -8 -27 -27 -27h-243v-60c0 -30 18 -44 60 -44s61 14 61 44v1c0 21 8 29 29 29h86c21 0 29 -8 29 -29v-7c0 -95 -54 -156 -205 -156s-216 61 -216 156v204c0 95 65 156 216 156s210 -61 210 -156zM196 345v-29h121v29c0 30 -19 45 -61 45
s-60 -15 -60 -45zM181 577l-69 101c-12 17 -6 30 15 30h107c21 0 33 -12 41 -30l40 -92c9 -21 2 -29 -16 -29h-79c-21 0 -33 11 -39 20z" />
    <glyph glyph-name="eacute" unicode="&#xe9;" horiz-adv-x="503" 
d="M388 678l-69 -101c-6 -9 -18 -20 -39 -20h-79c-18 0 -25 8 -16 29l40 92c8 18 20 30 41 30h107c21 0 27 -13 15 -30zM466 352v-111c0 -19 -8 -27 -27 -27h-243v-60c0 -30 18 -44 60 -44s61 14 61 44v1c0 21 8 29 29 29h86c21 0 29 -8 29 -29v-7c0 -95 -54 -156 -205 -156
s-216 61 -216 156v204c0 95 65 156 216 156s210 -61 210 -156zM196 345v-29h121v29c0 30 -19 45 -61 45s-60 -15 -60 -45z" />
    <glyph glyph-name="ecircumflex" unicode="&#xea;" horiz-adv-x="503" 
d="M256 614l-12 -28c-6 -14 -20 -29 -41 -29h-78c-21 0 -28 13 -16 29l71 92c13 17 26 30 47 30h58c21 0 34 -13 47 -30l71 -92c12 -16 5 -29 -16 -29h-78c-21 0 -34 14 -41 29zM466 352v-111c0 -19 -8 -27 -27 -27h-243v-60c0 -30 18 -44 60 -44s61 14 61 44v1
c0 21 8 29 29 29h86c21 0 29 -8 29 -29v-7c0 -95 -54 -156 -205 -156s-216 61 -216 156v204c0 95 65 156 216 156s210 -61 210 -156zM196 345v-29h121v29c0 30 -19 45 -61 45s-60 -15 -60 -45z" />
    <glyph glyph-name="ecaron" unicode="&#x11b;" horiz-adv-x="503" 
d="M239 679l12 -28l12 28c6 14 20 29 41 29h78c21 0 28 -13 16 -29l-71 -92c-13 -17 -26 -30 -47 -30h-58c-21 0 -34 13 -47 30l-71 92c-12 16 -5 29 16 29h78c21 0 35 -15 41 -29zM466 352v-111c0 -19 -8 -27 -27 -27h-243v-60c0 -30 18 -44 60 -44s61 14 61 44v1
c0 21 8 29 29 29h86c21 0 29 -8 29 -29v-7c0 -95 -54 -156 -205 -156s-216 61 -216 156v204c0 95 65 156 216 156s210 -61 210 -156zM196 345v-29h121v29c0 30 -19 45 -61 45s-60 -15 -60 -45z" />
    <glyph glyph-name="edieresis" unicode="&#xeb;" horiz-adv-x="503" 
d="M235 678v-92c0 -21 -7 -29 -28 -29h-60c-21 0 -29 8 -29 29v92c0 21 8 30 29 30h60c21 0 28 -9 28 -30zM390 678v-92c0 -21 -7 -29 -28 -29h-60c-21 0 -29 8 -29 29v92c0 21 8 30 29 30h60c21 0 28 -9 28 -30zM466 352v-111c0 -19 -8 -27 -27 -27h-243v-60
c0 -30 18 -44 60 -44s61 14 61 44v1c0 21 8 29 29 29h86c21 0 29 -8 29 -29v-7c0 -95 -54 -156 -205 -156s-216 61 -216 156v204c0 95 65 156 216 156s210 -61 210 -156zM196 345v-29h121v29c0 30 -19 45 -61 45s-60 -15 -60 -45z" />
    <glyph glyph-name="emacron" unicode="&#x113;" horiz-adv-x="503" 
d="M466 352v-111c0 -19 -8 -27 -27 -27h-243v-60c0 -30 18 -44 60 -44s61 14 61 44v1c0 21 8 29 29 29h86c21 0 29 -8 29 -29v-7c0 -95 -54 -156 -205 -156s-216 61 -216 156v204c0 95 65 156 216 156s210 -61 210 -156zM196 345v-29h121v29c0 30 -19 45 -61 45
s-60 -15 -60 -45zM141 680h221c21 0 30 -7 30 -28v-63c0 -21 -9 -29 -30 -29h-221c-21 0 -30 8 -30 29v63c0 21 9 28 30 28z" />
    <glyph glyph-name="ebreve" unicode="&#x115;" horiz-adv-x="503" 
d="M466 352v-111c0 -19 -8 -27 -27 -27h-243v-60c0 -30 18 -44 60 -44s61 14 61 44v1c0 21 8 29 29 29h86c21 0 29 -8 29 -29v-7c0 -95 -54 -156 -205 -156s-216 61 -216 156v204c0 95 65 156 216 156s210 -61 210 -156zM196 345v-29h121v29c0 30 -19 45 -61 45
s-60 -15 -60 -45zM216 686v-17c0 -20 10 -33 35 -33s35 13 35 33v17c0 18 7 24 26 24h61c19 0 26 -6 26 -24v-13c0 -84 -59 -130 -152 -130s-144 46 -144 130v13c0 18 7 24 26 24h61c19 0 26 -6 26 -24z" />
    <glyph glyph-name="edotaccent" unicode="&#x117;" horiz-adv-x="503" 
d="M466 352v-111c0 -19 -8 -27 -27 -27h-243v-60c0 -30 18 -44 60 -44s61 14 61 44v1c0 21 8 29 29 29h86c21 0 29 -8 29 -29v-7c0 -95 -54 -156 -205 -156s-216 61 -216 156v204c0 95 65 156 216 156s210 -61 210 -156zM196 345v-29h121v29c0 30 -19 45 -61 45
s-60 -15 -60 -45z" />
    <glyph glyph-name="eogonek" unicode="&#x119;" horiz-adv-x="503" 
d="M466 352v-111c0 -19 -8 -27 -27 -27h-243v-60c0 -30 18 -44 60 -44s61 14 61 44v1c0 21 8 29 29 29h86c21 0 29 -8 29 -29v-7c0 -41 -9 -72 -33 -101c-19 -23 -58 -47 -58 -104c0 -16 8 -25 30 -25h23c21 0 30 -7 30 -28v-40c0 -21 -19 -29 -40 -29h-63
c-33 0 -99 12 -99 86c0 17 2 48 22 86c-5 0 -11 -1 -17 -1c-151 0 -216 61 -216 156v204c0 95 65 156 216 156s210 -61 210 -156zM196 345v-29h121v29c0 30 -19 45 -61 45s-60 -15 -60 -45z" />
    <glyph glyph-name="gcircumflex" unicode="&#x11d;" horiz-adv-x="548" 
d="M274 614l-12 -28c-6 -14 -20 -29 -41 -29h-78c-21 0 -28 13 -16 29l71 92c13 17 26 30 47 30h58c21 0 34 -13 47 -30l71 -92c12 -16 5 -29 -16 -29h-78c-21 0 -34 14 -41 29zM188 -8c-101 0 -148 59 -148 154v208c0 95 47 154 148 154c79 0 127 -34 155 -56l2 18
c3 21 7 30 29 30h95c21 0 29 -9 29 -30v-513c0 -95 -76 -156 -227 -156h-143c-21 0 -30 8 -30 29v71c0 21 9 30 30 30h143c41 0 67 11 67 44v68c-29 -21 -76 -51 -150 -51zM200 329v-158c0 -20 1 -42 39 -42s78 26 99 41v160c-21 15 -61 41 -99 41s-39 -22 -39 -42z" />
    <glyph glyph-name="gbreve" unicode="&#x11f;" horiz-adv-x="548" 
d="M188 -8c-101 0 -148 59 -148 154v208c0 95 47 154 148 154c79 0 127 -34 155 -56l2 18c3 21 7 30 29 30h95c21 0 29 -9 29 -30v-513c0 -95 -76 -156 -227 -156h-143c-21 0 -30 8 -30 29v71c0 21 9 30 30 30h143c41 0 67 11 67 44v68c-29 -21 -76 -51 -150 -51zM200 329
v-158c0 -20 1 -42 39 -42s78 26 99 41v160c-21 15 -61 41 -99 41s-39 -22 -39 -42zM235 686v-17c0 -20 10 -33 35 -33s35 13 35 33v17c0 18 7 24 26 24h61c19 0 26 -6 26 -24v-13c0 -84 -59 -130 -152 -130s-144 46 -144 130v13c0 18 7 24 26 24h61c19 0 26 -6 26 -24z" />
    <glyph glyph-name="gdotaccent" unicode="&#x121;" horiz-adv-x="548" 
d="M188 -8c-101 0 -148 59 -148 154v208c0 95 47 154 148 154c79 0 127 -34 155 -56l2 18c3 21 7 30 29 30h95c21 0 29 -9 29 -30v-513c0 -95 -76 -156 -227 -156h-143c-21 0 -30 8 -30 29v71c0 21 9 30 30 30h143c41 0 67 11 67 44v68c-29 -21 -76 -51 -150 -51zM200 329
v-158c0 -20 1 -42 39 -42s78 26 99 41v160c-21 15 -61 41 -99 41s-39 -22 -39 -42zM355 678v-83c0 -21 -7 -29 -28 -29h-106c-21 0 -29 8 -29 29v83c0 21 8 30 29 30h106c21 0 28 -9 28 -30z" />
    <glyph glyph-name="gcommaaccent" unicode="&#x123;" horiz-adv-x="548" 
d="M321 628v-32c0 -21 -8 -30 -29 -30h-76c-21 0 -28 9 -28 30v41c0 44 20 97 48 140c12 18 24 18 39 15l57 -13c20 -5 23 -21 15 -39c-20 -44 -26 -52 -26 -112zM188 -8c-101 0 -148 59 -148 154v208c0 95 47 154 148 154c79 0 127 -34 155 -56l2 18c3 21 7 30 29 30h95
c21 0 29 -9 29 -30v-513c0 -95 -76 -156 -227 -156h-143c-21 0 -30 8 -30 29v71c0 21 9 30 30 30h143c41 0 67 11 67 44v68c-29 -21 -76 -51 -150 -51zM200 329v-158c0 -20 1 -42 39 -42s78 26 99 41v160c-21 15 -61 41 -99 41s-39 -22 -39 -42z" />
    <glyph glyph-name="hcircumflex" unicode="&#x125;" horiz-adv-x="553" 
d="M210 669v-211c28 22 76 50 151 50c91 0 147 -58 147 -139v-339c0 -21 -8 -30 -29 -30h-101c-21 0 -30 9 -30 30v298c0 31 -6 43 -38 43c-39 0 -80 -25 -100 -40v-301c0 -21 -7 -30 -28 -30h-103c-21 0 -29 9 -29 30v639c0 21 8 30 29 30h103c21 0 28 -9 28 -30zM130 784
l-12 -28c-6 -14 -20 -29 -41 -29h-78c-21 0 -28 13 -16 29l71 92c13 17 26 30 47 30h58c21 0 34 -13 47 -30l71 -92c12 -16 5 -29 -16 -29h-78c-21 0 -34 14 -41 29z" />
    <glyph glyph-name="hbar" unicode="&#x127;" horiz-adv-x="553" 
d="M210 669v-27h67c21 0 30 -7 30 -28v-53c0 -21 -9 -29 -30 -29h-67v-74c28 22 76 50 151 50c91 0 147 -58 147 -139v-339c0 -21 -8 -30 -29 -30h-101c-21 0 -30 9 -30 30v298c0 31 -6 43 -38 43c-39 0 -80 -25 -100 -40v-301c0 -21 -7 -30 -28 -30h-103
c-21 0 -29 9 -29 30v502h-20c-21 0 -30 8 -30 29v53c0 21 9 28 30 28h20v27c0 21 8 30 29 30h103c21 0 28 -9 28 -30z" />
    <glyph glyph-name="igrave" unicode="&#xec;" 
d="M210 470v-440c0 -21 -7 -30 -28 -30h-103c-21 0 -29 9 -29 30v440c0 21 8 30 29 30h103c21 0 28 -9 28 -30zM54 577l-69 101c-12 17 -6 30 15 30h107c21 0 33 -12 41 -30l40 -92c9 -21 2 -29 -16 -29h-79c-21 0 -33 11 -39 20z" />
    <glyph glyph-name="iacute" unicode="&#xed;" 
d="M272 678l-69 -101c-6 -9 -18 -20 -39 -20h-79c-18 0 -25 8 -16 29l40 92c8 18 20 30 41 30h107c21 0 27 -13 15 -30zM210 470v-440c0 -21 -7 -30 -28 -30h-103c-21 0 -29 9 -29 30v440c0 21 8 30 29 30h103c21 0 28 -9 28 -30z" />
    <glyph glyph-name="icircumflex" unicode="&#xee;" 
d="M134 614l-12 -28c-6 -14 -20 -29 -41 -29h-78c-21 0 -28 13 -16 29l71 92c13 17 26 30 47 30h58c21 0 34 -13 47 -30l71 -92c12 -16 5 -29 -16 -29h-78c-21 0 -34 14 -41 29zM210 470v-440c0 -21 -7 -30 -28 -30h-103c-21 0 -29 9 -29 30v440c0 21 8 30 29 30h103
c21 0 28 -9 28 -30z" />
    <glyph glyph-name="itilde" unicode="&#x129;" 
d="M210 470v-440c0 -21 -7 -30 -28 -30h-103c-21 0 -29 9 -29 30v440c0 21 8 30 29 30h103c21 0 28 -9 28 -30zM77 590c-9 0 -17 -5 -19 -13l-1 -4c-5 -21 -13 -26 -32 -26h-53c-20 0 -26 14 -24 34l6 49c6 47 46 76 94 76c23 0 43 -5 58 -11l42 -16c15 -6 27 -12 36 -12
c10 0 17 5 19 13l1 4c5 20 12 26 32 26h52c22 0 27 -13 25 -34l-4 -45c-5 -51 -41 -76 -84 -76c-34 0 -50 4 -69 10l-43 14c-17 6 -27 11 -36 11z" />
    <glyph glyph-name="idieresis" unicode="&#xef;" 
d="M112 678v-92c0 -21 -7 -29 -28 -29h-60c-21 0 -29 8 -29 29v92c0 21 8 30 29 30h60c21 0 28 -9 28 -30zM267 678v-92c0 -21 -7 -29 -28 -29h-60c-21 0 -29 8 -29 29v92c0 21 8 30 29 30h60c21 0 28 -9 28 -30zM210 470v-440c0 -21 -7 -30 -28 -30h-103
c-21 0 -29 9 -29 30v440c0 21 8 30 29 30h103c21 0 28 -9 28 -30z" />
    <glyph glyph-name="imacron" unicode="&#x12b;" 
d="M210 470v-440c0 -21 -7 -30 -28 -30h-103c-21 0 -29 9 -29 30v440c0 21 8 30 29 30h103c21 0 28 -9 28 -30zM20 680h221c21 0 30 -7 30 -28v-63c0 -21 -9 -29 -30 -29h-221c-21 0 -30 8 -30 29v63c0 21 9 28 30 28z" />
    <glyph glyph-name="ibreve" unicode="&#x12d;" 
d="M210 470v-440c0 -21 -7 -30 -28 -30h-103c-21 0 -29 9 -29 30v440c0 21 8 30 29 30h103c21 0 28 -9 28 -30zM95 686v-17c0 -20 10 -33 35 -33s35 13 35 33v17c0 18 7 24 26 24h61c19 0 26 -6 26 -24v-13c0 -84 -59 -130 -152 -130s-144 46 -144 130v13c0 18 7 24 26 24
h61c19 0 26 -6 26 -24z" />
    <glyph glyph-name="iogonek" unicode="&#x12f;" 
d="M160 -179h-63c-33 0 -99 12 -99 86c0 23 3 72 52 128v435c0 21 8 30 29 30h103c21 0 28 -9 28 -30v-440c0 -21 -7 -30 -28 -30h-24c-29 0 -41 -24 -41 -57c0 -16 8 -25 30 -25h23c21 0 30 -7 30 -28v-40c0 -21 -19 -29 -40 -29zM210 669v-83c0 -21 -7 -29 -28 -29h-103
c-21 0 -29 8 -29 29v83c0 21 8 30 29 30h103c21 0 28 -9 28 -30z" />
    <glyph glyph-name="ij" unicode="&#x133;" horiz-adv-x="520" 
d="M210 470v-440c0 -21 -7 -30 -28 -30h-103c-21 0 -29 9 -29 30v440c0 21 8 30 29 30h103c21 0 28 -9 28 -30zM210 669v-83c0 -21 -7 -29 -28 -29h-103c-21 0 -29 8 -29 29v83c0 21 8 30 29 30h103c21 0 28 -9 28 -30zM470 669v-83c0 -21 -7 -29 -28 -29h-103
c-21 0 -29 8 -29 29v83c0 21 8 30 29 30h103c21 0 28 -9 28 -30zM470 470v-513c0 -95 -76 -156 -227 -156h-11c-21 0 -30 8 -30 29v71c0 21 9 30 30 30h11c41 0 67 11 67 44v495c0 21 7 30 28 30h103c21 0 29 -9 29 -30z" />
    <glyph glyph-name="dotlessi" unicode="&#x131;" 
d="M210 470v-440c0 -21 -7 -30 -28 -30h-103c-21 0 -29 9 -29 30v440c0 21 8 30 29 30h103c21 0 28 -9 28 -30z" />
    <glyph glyph-name="dotlessj" unicode="&#x237;" 
d="M210 470v-513c0 -95 -76 -156 -227 -156h-11c-21 0 -30 8 -30 29v71c0 21 9 30 30 30h11c41 0 67 11 67 44v495c0 21 7 30 28 30h103c21 0 29 -9 29 -30z" />
    <glyph glyph-name="jcircumflex" unicode="&#x135;" 
d="M210 470v-513c0 -95 -76 -156 -227 -156h-11c-21 0 -30 8 -30 29v71c0 21 9 30 30 30h11c41 0 67 11 67 44v495c0 21 7 30 28 30h103c21 0 29 -9 29 -30zM130 614l-12 -28c-6 -14 -20 -29 -41 -29h-78c-21 0 -28 13 -16 29l71 92c13 17 26 30 47 30h58
c21 0 34 -13 47 -30l71 -92c12 -16 5 -29 -16 -29h-78c-21 0 -34 14 -41 29z" />
    <glyph glyph-name="kcommaaccent" unicode="&#x137;" horiz-adv-x="511" 
d="M204 -112v32c0 21 8 30 29 30h76c21 0 28 -9 28 -30v-41c0 -44 -20 -97 -48 -140c-12 -18 -24 -18 -39 -15l-57 13c-20 5 -23 21 -15 39c20 44 26 52 26 112zM353 284l157 -254c10 -15 6 -30 -15 -30h-111c-21 0 -32 15 -42 30l-116 189h-16v-189c0 -21 -7 -30 -28 -30
h-103c-21 0 -29 9 -29 30v639c0 21 8 30 29 30h103c21 0 28 -9 28 -30v-330h16l103 131c12 15 26 30 47 30h111c21 0 25 -16 14 -30z" />
    <glyph glyph-name="kgreenlandic" unicode="&#x138;" horiz-adv-x="511" 
d="M353 284l157 -254c9 -15 6 -30 -15 -30h-111c-21 0 -33 15 -42 30l-116 189h-16v-189c0 -21 -7 -30 -28 -30h-103c-21 0 -29 9 -29 30v440c0 21 8 30 29 30h103c21 0 28 -9 28 -30v-131h16l103 131c12 15 26 30 47 30h111c21 0 26 -15 14 -30z" />
    <glyph glyph-name="lacute" unicode="&#x13a;" 
d="M274 848l-69 -101c-6 -9 -18 -20 -39 -20h-79c-18 0 -25 8 -16 29l40 92c8 18 20 30 41 30h107c21 0 27 -13 15 -30zM210 669v-639c0 -21 -7 -30 -28 -30h-103c-21 0 -29 9 -29 30v639c0 21 8 30 29 30h103c21 0 28 -9 28 -30z" />
    <glyph glyph-name="lcaron" unicode="&#x13e;" horiz-adv-x="387" 
d="M271 690v32c0 21 8 30 29 30h76c21 0 28 -9 28 -30v-41c0 -44 -20 -97 -48 -140c-12 -18 -24 -18 -39 -15l-57 13c-20 5 -23 21 -15 39c20 44 26 52 26 112zM210 669v-639c0 -21 -7 -30 -28 -30h-103c-21 0 -29 9 -29 30v639c0 21 8 30 29 30h103c21 0 28 -9 28 -30z" />
    <glyph glyph-name="lcommaaccent" unicode="&#x13c;" 
d="M64 -113v32c0 21 8 30 29 30h76c21 0 28 -9 28 -30v-41c0 -44 -20 -97 -48 -140c-12 -18 -24 -18 -39 -15l-57 13c-20 5 -23 21 -15 39c20 44 26 52 26 112zM210 669v-639c0 -21 -7 -30 -28 -30h-103c-21 0 -29 9 -29 30v639c0 21 8 30 29 30h103c21 0 28 -9 28 -30z" />
    <glyph glyph-name="ldot" unicode="&#x140;" horiz-adv-x="416" 
d="M210 669v-639c0 -21 -7 -30 -28 -30h-103c-21 0 -29 9 -29 30v639c0 21 8 30 29 30h103c21 0 28 -9 28 -30zM416 393v-83c0 -21 -7 -29 -28 -29h-106c-21 0 -29 8 -29 29v83c0 21 8 30 29 30h106c21 0 28 -9 28 -30z" />
    <glyph glyph-name="lslash" unicode="&#x142;" horiz-adv-x="296" 
d="M227 669v-239l26 11c16 7 30 2 39 -17l15 -34c7 -16 2 -29 -17 -37l-63 -26v-297c0 -21 -7 -30 -28 -30h-103c-21 0 -29 9 -29 30v233l-25 -10c-19 -8 -30 -3 -38 16l-15 35c-7 16 -2 29 17 37l61 24v304c0 21 8 30 29 30h103c21 0 28 -9 28 -30z" />
    <glyph glyph-name="nacute" unicode="&#x144;" horiz-adv-x="553" 
d="M418 678l-69 -101c-6 -9 -18 -20 -39 -20h-79c-18 0 -25 8 -16 29l40 92c8 18 20 30 41 30h107c21 0 27 -13 15 -30zM79 500h96c21 0 27 -8 29 -29l2 -17c28 23 76 54 155 54c91 0 147 -58 147 -139v-339c0 -21 -8 -30 -29 -30h-101c-21 0 -30 9 -30 30v298
c0 31 -6 43 -38 43c-39 0 -80 -25 -100 -40v-301c0 -21 -7 -30 -28 -30h-103c-21 0 -29 9 -29 30v441c0 21 8 29 29 29z" />
    <glyph glyph-name="ncaron" unicode="&#x148;" horiz-adv-x="553" 
d="M264 679l12 -28l12 28c6 14 20 29 41 29h78c21 0 28 -13 16 -29l-71 -92c-13 -17 -26 -30 -47 -30h-58c-21 0 -34 13 -47 30l-71 92c-12 16 -5 29 16 29h78c21 0 35 -15 41 -29zM79 500h96c21 0 27 -8 29 -29l2 -17c28 23 76 54 155 54c91 0 147 -58 147 -139v-339
c0 -21 -8 -30 -29 -30h-101c-21 0 -30 9 -30 30v298c0 31 -6 43 -38 43c-39 0 -80 -25 -100 -40v-301c0 -21 -7 -30 -28 -30h-103c-21 0 -29 9 -29 30v441c0 21 8 29 29 29z" />
    <glyph glyph-name="ntilde" unicode="&#xf1;" horiz-adv-x="553" 
d="M79 500h96c21 0 27 -8 29 -29l2 -17c28 23 76 54 155 54c91 0 147 -58 147 -139v-339c0 -21 -8 -30 -29 -30h-101c-21 0 -30 9 -30 30v298c0 31 -6 43 -38 43c-39 0 -80 -25 -100 -40v-301c0 -21 -7 -30 -28 -30h-103c-21 0 -29 9 -29 30v441c0 21 8 29 29 29zM221 600
c-9 0 -17 -5 -19 -13l-1 -4c-5 -21 -13 -26 -32 -26h-53c-20 0 -26 14 -24 34l6 49c6 47 46 76 94 76c23 0 43 -5 58 -11l42 -16c15 -6 27 -12 36 -12c10 0 17 5 19 13l1 4c5 20 12 26 32 26h52c22 0 27 -13 25 -34l-4 -45c-5 -51 -41 -76 -84 -76c-34 0 -50 4 -69 10
l-43 14c-17 6 -27 11 -36 11z" />
    <glyph glyph-name="ncommaaccent" unicode="&#x146;" horiz-adv-x="553" 
d="M212 -112v32c0 21 8 30 29 30h76c21 0 28 -9 28 -30v-41c0 -44 -20 -97 -48 -140c-12 -18 -24 -18 -39 -15l-57 13c-20 5 -23 21 -15 39c20 44 26 52 26 112zM79 500h96c21 0 27 -8 29 -29l2 -17c28 23 76 54 155 54c91 0 147 -58 147 -139v-339c0 -21 -8 -30 -29 -30
h-101c-21 0 -30 9 -30 30v298c0 31 -6 43 -38 43c-39 0 -80 -25 -100 -40v-301c0 -21 -7 -30 -28 -30h-103c-21 0 -29 9 -29 30v441c0 21 8 29 29 29z" />
    <glyph glyph-name="napostrophe" unicode="&#x149;" horiz-adv-x="553" 
d="M42 690v32c0 21 8 30 29 30h76c21 0 28 -9 28 -30v-41c0 -44 -20 -97 -48 -140c-12 -18 -24 -18 -39 -15l-57 13c-20 5 -23 21 -15 39c20 44 26 52 26 112zM79 500h96c21 0 27 -8 29 -29l2 -17c28 23 76 54 155 54c91 0 147 -58 147 -139v-339c0 -21 -8 -30 -29 -30h-101
c-21 0 -30 9 -30 30v298c0 31 -6 43 -38 43c-39 0 -80 -25 -100 -40v-301c0 -21 -7 -30 -28 -30h-103c-21 0 -29 9 -29 30v441c0 21 8 29 29 29z" />
    <glyph glyph-name="ograve" unicode="&#xf2;" horiz-adv-x="538" 
d="M40 148v204c0 95 78 156 229 156s229 -61 229 -156v-204c0 -95 -78 -156 -229 -156s-229 61 -229 156zM338 162v177c0 33 -28 44 -69 44s-69 -11 -69 -44v-177c0 -34 28 -45 69 -45s69 11 69 45zM198 577l-69 101c-12 17 -6 30 15 30h107c21 0 33 -12 41 -30l40 -92
c9 -21 2 -29 -16 -29h-79c-21 0 -33 11 -39 20z" />
    <glyph glyph-name="oacute" unicode="&#xf3;" horiz-adv-x="538" 
d="M408 678l-69 -101c-6 -9 -18 -20 -39 -20h-79c-18 0 -25 8 -16 29l40 92c8 18 20 30 41 30h107c21 0 27 -13 15 -30zM40 148v204c0 95 78 156 229 156s229 -61 229 -156v-204c0 -95 -78 -156 -229 -156s-229 61 -229 156zM338 162v177c0 33 -28 44 -69 44
s-69 -11 -69 -44v-177c0 -34 28 -45 69 -45s69 11 69 45z" />
    <glyph glyph-name="ocircumflex" unicode="&#xf4;" horiz-adv-x="538" 
d="M271 614l-12 -28c-6 -14 -20 -29 -41 -29h-78c-21 0 -28 13 -16 29l71 92c13 17 26 30 47 30h58c21 0 34 -13 47 -30l71 -92c12 -16 5 -29 -16 -29h-78c-21 0 -34 14 -41 29zM40 148v204c0 95 78 156 229 156s229 -61 229 -156v-204c0 -95 -78 -156 -229 -156
s-229 61 -229 156zM338 162v177c0 33 -28 44 -69 44s-69 -11 -69 -44v-177c0 -34 28 -45 69 -45s69 11 69 45z" />
    <glyph glyph-name="otilde" unicode="&#xf5;" horiz-adv-x="538" 
d="M40 148v204c0 95 78 156 229 156s229 -61 229 -156v-204c0 -95 -78 -156 -229 -156s-229 61 -229 156zM338 162v177c0 33 -28 44 -69 44s-69 -11 -69 -44v-177c0 -34 28 -45 69 -45s69 11 69 45zM218 590c-9 0 -17 -5 -19 -13l-1 -4c-5 -21 -13 -26 -32 -26h-53
c-20 0 -26 14 -24 34l6 49c6 47 46 76 94 76c23 0 43 -5 58 -11l42 -16c15 -6 27 -12 36 -12c10 0 17 5 19 13l1 4c5 20 12 26 32 26h52c22 0 27 -13 25 -34l-4 -45c-5 -51 -41 -76 -84 -76c-34 0 -50 4 -69 10l-43 14c-17 6 -27 11 -36 11z" />
    <glyph glyph-name="odieresis" unicode="&#xf6;" horiz-adv-x="538" 
d="M252 678v-92c0 -21 -7 -29 -28 -29h-60c-21 0 -29 8 -29 29v92c0 21 8 30 29 30h60c21 0 28 -9 28 -30zM407 678v-92c0 -21 -7 -29 -28 -29h-60c-21 0 -29 8 -29 29v92c0 21 8 30 29 30h60c21 0 28 -9 28 -30zM40 148v204c0 95 78 156 229 156s229 -61 229 -156v-204
c0 -95 -78 -156 -229 -156s-229 61 -229 156zM338 162v177c0 33 -28 44 -69 44s-69 -11 -69 -44v-177c0 -34 28 -45 69 -45s69 11 69 45z" />
    <glyph glyph-name="omacron" unicode="&#x14d;" horiz-adv-x="538" 
d="M158 680h221c21 0 30 -7 30 -28v-63c0 -21 -9 -29 -30 -29h-221c-21 0 -30 8 -30 29v63c0 21 9 28 30 28zM40 148v204c0 95 78 156 229 156s229 -61 229 -156v-204c0 -95 -78 -156 -229 -156s-229 61 -229 156zM338 162v177c0 33 -28 44 -69 44s-69 -11 -69 -44v-177
c0 -34 28 -45 69 -45s69 11 69 45z" />
    <glyph glyph-name="obreve" unicode="&#x14f;" horiz-adv-x="538" 
d="M40 148v204c0 95 78 156 229 156s229 -61 229 -156v-204c0 -95 -78 -156 -229 -156s-229 61 -229 156zM338 162v177c0 33 -28 44 -69 44s-69 -11 -69 -44v-177c0 -34 28 -45 69 -45s69 11 69 45zM234 686v-17c0 -20 10 -33 35 -33s35 13 35 33v17c0 18 7 24 26 24h61
c19 0 26 -6 26 -24v-13c0 -84 -59 -130 -152 -130s-144 46 -144 130v13c0 18 7 24 26 24h61c19 0 26 -6 26 -24z" />
    <glyph glyph-name="ohungarumlaut" unicode="&#x151;" horiz-adv-x="538" 
d="M492 678l-66 -92c-10 -14 -23 -29 -44 -29h-75c-21 0 -26 11 -16 29l51 92c11 19 24 30 45 30h90c21 0 27 -13 15 -30zM310 678l-51 -92c-10 -18 -18 -29 -39 -29h-75c-21 0 -28 11 -21 29l36 92c8 19 19 30 40 30h90c21 0 29 -13 20 -30zM40 148v204
c0 95 78 156 229 156s229 -61 229 -156v-204c0 -95 -78 -156 -229 -156s-229 61 -229 156zM338 162v177c0 33 -28 44 -69 44s-69 -11 -69 -44v-177c0 -34 28 -45 69 -45s69 11 69 45z" />
    <glyph glyph-name="oslash" unicode="&#xf8;" horiz-adv-x="538" 
d="M40 148v204c0 95 78 156 229 156c34 0 65 -4 92 -10l6 11c8 15 17 30 36 30h35c18 0 17 -14 8 -30l-19 -35c47 -27 71 -70 71 -122v-204c0 -95 -78 -156 -229 -156c-35 0 -66 4 -93 9l-4 -8c-11 -21 -19 -30 -40 -30h-32c-17 0 -14 18 -7 30l17 33c-46 27 -70 69 -70 122
zM338 162v144l-99 -187c9 -2 19 -2 30 -2c41 0 69 11 69 45zM200 339v-145l99 186c-9 2 -19 3 -30 3c-41 0 -69 -11 -69 -44z" />
    <glyph glyph-name="oslashacute" unicode="&#x1ff;" horiz-adv-x="538" 
d="M40 148v204c0 95 78 156 229 156c34 0 65 -4 92 -10l6 11c8 15 17 30 36 30h35c18 0 17 -14 8 -30l-19 -35c47 -27 71 -70 71 -122v-204c0 -95 -78 -156 -229 -156c-35 0 -66 4 -93 9l-4 -8c-11 -21 -19 -30 -40 -30h-32c-17 0 -14 18 -7 30l17 33c-46 27 -70 69 -70 122
zM338 162v144l-99 -187c9 -2 19 -2 30 -2c41 0 69 11 69 45zM200 339v-145l99 186c-9 2 -19 3 -30 3c-41 0 -69 -11 -69 -44zM402 678l-69 -101c-6 -9 -18 -20 -39 -20h-79c-18 0 -25 8 -16 29l40 92c8 18 20 30 41 30h107c21 0 27 -13 15 -30z" />
    <glyph glyph-name="oe" unicode="&#x153;" horiz-adv-x="801" 
d="M40 148v204c0 95 78 156 229 156c63 0 108 -11 139 -30c35 19 83 30 146 30c151 0 210 -61 210 -156v-111c0 -19 -8 -27 -27 -27h-243v-60c0 -30 18 -44 60 -44s61 14 61 44v1c0 21 8 29 29 29h86c21 0 29 -8 29 -29v-7c0 -95 -54 -156 -205 -156c-63 0 -111 10 -146 30
c-31 -20 -76 -30 -139 -30c-151 0 -229 61 -229 156zM269 117c39 0 66 10 69 40v182c0 33 -28 44 -69 44s-69 -11 -69 -44v-177c0 -34 28 -45 69 -45zM494 345v-26h121v26c0 30 -19 45 -61 45s-60 -15 -60 -45z" />
    <glyph glyph-name="racute" unicode="&#x155;" horiz-adv-x="383" 
d="M321 678l-69 -101c-6 -9 -18 -20 -39 -20h-79c-18 0 -25 8 -16 29l40 92c8 18 20 30 41 30h107c21 0 27 -13 15 -30zM345 508c21 0 30 -8 30 -29v-78c0 -21 -9 -28 -30 -30c-71 -7 -114 -36 -135 -55v-286c0 -21 -7 -30 -28 -30h-103c-21 0 -29 9 -29 30v441
c0 21 8 29 29 29h96c21 0 27 -8 29 -29l3 -28c24 28 67 65 138 65z" />
    <glyph glyph-name="rcommaaccent" unicode="&#x157;" horiz-adv-x="383" 
d="M65 -112v32c0 21 8 30 29 30h76c21 0 28 -9 28 -30v-41c0 -44 -20 -97 -48 -140c-12 -18 -24 -18 -39 -15l-57 13c-20 5 -23 21 -15 39c20 44 26 52 26 112zM345 508c21 0 30 -8 30 -29v-78c0 -21 -9 -28 -30 -30c-71 -7 -114 -36 -135 -55v-286c0 -21 -7 -30 -28 -30
h-103c-21 0 -29 9 -29 30v441c0 21 8 29 29 29h96c21 0 27 -8 29 -29l3 -28c24 28 67 65 138 65z" />
    <glyph glyph-name="rcaron" unicode="&#x159;" horiz-adv-x="383" 
d="M179 679l12 -28l12 28c6 14 20 29 41 29h78c21 0 28 -13 16 -29l-71 -92c-13 -17 -26 -30 -47 -30h-58c-21 0 -34 13 -47 30l-71 92c-12 16 -5 29 16 29h78c21 0 35 -15 41 -29zM345 508c21 0 30 -8 30 -29v-78c0 -21 -9 -28 -30 -30c-71 -7 -114 -36 -135 -55v-286
c0 -21 -7 -30 -28 -30h-103c-21 0 -29 9 -29 30v441c0 21 8 29 29 29h96c21 0 27 -8 29 -29l3 -28c24 28 67 65 138 65z" />
    <glyph glyph-name="sacute" unicode="&#x15b;" horiz-adv-x="475" 
d="M382 678l-69 -101c-6 -9 -18 -20 -39 -20h-79c-18 0 -25 8 -16 29l40 92c8 18 20 30 41 30h107c21 0 27 -13 15 -30zM298 352v14c0 27 -27 32 -55 32s-54 -5 -54 -32v-5c0 -15 11 -23 21 -27l140 -50c67 -24 100 -60 100 -108v-48c0 -66 -58 -136 -211 -136
s-209 70 -209 136v21c0 19 7 27 27 27h92c20 0 27 -8 27 -27v-14c0 -27 33 -32 63 -32s64 5 64 32v9c0 13 -8 19 -39 31l-141 54c-37 14 -79 60 -79 109v28c0 66 48 142 200 142s200 -76 200 -142v-14c0 -20 -7 -28 -28 -28h-91c-20 0 -27 8 -27 28z" />
    <glyph glyph-name="scircumflex" unicode="&#x15d;" horiz-adv-x="475" 
d="M237 614l-12 -28c-6 -14 -20 -29 -41 -29h-78c-21 0 -28 13 -16 29l71 92c13 17 26 30 47 30h58c21 0 34 -13 47 -30l71 -92c12 -16 5 -29 -16 -29h-78c-21 0 -34 14 -41 29zM298 352v14c0 27 -27 32 -55 32s-54 -5 -54 -32v-5c0 -15 11 -23 21 -27l140 -50
c67 -24 100 -60 100 -108v-48c0 -66 -58 -136 -211 -136s-209 70 -209 136v21c0 19 7 27 27 27h92c20 0 27 -8 27 -27v-14c0 -27 33 -32 63 -32s64 5 64 32v9c0 13 -8 19 -39 31l-141 54c-37 14 -79 60 -79 109v28c0 66 48 142 200 142s200 -76 200 -142v-14
c0 -20 -7 -28 -28 -28h-91c-20 0 -27 8 -27 28z" />
    <glyph glyph-name="scaron" unicode="&#x161;" horiz-adv-x="475" 
d="M229 679l12 -28l12 28c6 14 20 29 41 29h78c21 0 28 -13 16 -29l-71 -92c-13 -17 -26 -30 -47 -30h-58c-21 0 -34 13 -47 30l-71 92c-12 16 -5 29 16 29h78c21 0 35 -15 41 -29zM298 352v14c0 27 -27 32 -55 32s-54 -5 -54 -32v-5c0 -15 11 -23 21 -27l140 -50
c67 -24 100 -60 100 -108v-48c0 -66 -58 -136 -211 -136s-209 70 -209 136v21c0 19 7 27 27 27h92c20 0 27 -8 27 -27v-14c0 -27 33 -32 63 -32s64 5 64 32v9c0 13 -8 19 -39 31l-141 54c-37 14 -79 60 -79 109v28c0 66 48 142 200 142s200 -76 200 -142v-14
c0 -20 -7 -28 -28 -28h-91c-20 0 -27 8 -27 28z" />
    <glyph glyph-name="scedilla" unicode="&#x15f;" horiz-adv-x="475" 
d="M264 -39h27c56 0 89 -26 89 -84c0 -60 -33 -88 -89 -88h-125c-21 0 -30 8 -30 29v21c0 21 9 28 30 28h97c8 0 9 7 9 10s-1 10 -9 10h-81c-35 0 -42 17 -35 40l21 71c-100 18 -138 75 -138 130v21c0 19 7 27 27 27h92c20 0 27 -8 27 -27v-14c0 -27 33 -32 63 -32
s64 5 64 32v9c0 13 -8 19 -39 31l-141 54c-37 14 -79 60 -79 109v28c0 66 48 142 200 142s200 -76 200 -142v-14c0 -20 -7 -28 -28 -28h-91c-20 0 -27 8 -27 28v14c0 27 -27 32 -55 32s-54 -5 -54 -32v-5c0 -15 11 -23 21 -27l140 -50c67 -24 100 -60 100 -108v-48
c0 -61 -50 -126 -178 -135z" />
    <glyph glyph-name="scommaaccent" unicode="&#x219;" horiz-adv-x="475" 
d="M179 -113v32c0 21 8 30 29 30h76c21 0 28 -9 28 -30v-41c0 -44 -20 -97 -48 -140c-12 -18 -24 -18 -39 -15l-57 13c-20 5 -23 21 -15 39c20 44 26 52 26 112zM298 352v14c0 27 -27 32 -55 32s-54 -5 -54 -32v-5c0 -15 11 -23 21 -27l140 -50c67 -24 100 -60 100 -108v-48
c0 -66 -58 -136 -211 -136s-209 70 -209 136v21c0 19 7 27 27 27h92c20 0 27 -8 27 -27v-14c0 -27 33 -32 63 -32s64 5 64 32v9c0 13 -8 19 -39 31l-141 54c-37 14 -79 60 -79 109v28c0 66 48 142 200 142s200 -76 200 -142v-14c0 -20 -7 -28 -28 -28h-91
c-20 0 -27 8 -27 28z" />
    <glyph glyph-name="germandbls" unicode="&#xdf;" horiz-adv-x="659" 
d="M254 544v-514c0 -21 -7 -30 -28 -30h-103c-21 0 -29 9 -29 30v343h-50c-21 0 -29 8 -29 29v61c0 21 9 27 29 29l49 6h1v54c0 95 83 156 244 156s232 -61 232 -156v-35c0 -41 -25 -75 -65 -94l-69 -33c-11 -5 -15 -10 -15 -17v-1c0 -11 10 -17 21 -22l115 -56
c42 -20 87 -61 87 -114v-36c0 -89 -48 -152 -183 -152s-174 53 -174 145v3c0 21 8 29 29 29h70c21 0 29 -8 29 -29v-10c0 -28 16 -39 42 -39s43 12 43 40v23c0 16 -14 25 -27 31l-104 47c-52 23 -79 56 -79 121v20c0 40 20 71 59 90l42 20c27 13 31 28 31 44v17
c0 33 -25 54 -84 54s-84 -21 -84 -54z" />
    <glyph glyph-name="longs" unicode="&#x17f;" horiz-adv-x="362" 
d="M93 498h1v49c0 95 76 156 227 156h11c21 0 30 -8 30 -29v-71c0 -21 -9 -30 -30 -30h-11c-41 0 -67 -11 -67 -44v-499c0 -21 -7 -30 -28 -30h-103c-21 0 -29 9 -29 30v343h-50c-21 0 -29 8 -29 29v61c0 21 8 26 29 29z" />
    <glyph glyph-name="tcaron" unicode="&#x165;" horiz-adv-x="420" 
d="M304 690v32c0 21 8 30 29 30h76c21 0 28 -9 28 -30v-41c0 -44 -20 -97 -48 -140c-12 -18 -24 -18 -39 -15l-57 13c-20 5 -23 21 -15 39c20 44 26 52 26 112zM243 498h81c21 0 30 -7 30 -28v-68c0 -21 -9 -29 -30 -29h-81v-199c0 -33 23 -44 64 -44h24c21 0 30 -9 30 -30
v-71c0 -21 -9 -29 -30 -29h-50c-151 0 -198 51 -198 156v217h-44c-21 0 -29 8 -29 29v61c0 21 8 26 29 29l43 6h1v91c0 21 8 30 29 30h103c21 0 28 -9 28 -30v-91z" />
    <glyph glyph-name="tcommaaccent" unicode="&#x163;" horiz-adv-x="371" 
d="M107 -113v32c0 21 8 30 29 30h76c21 0 28 -9 28 -30v-41c0 -44 -20 -97 -48 -140c-12 -18 -24 -18 -39 -15l-57 13c-20 5 -23 21 -15 39c20 44 26 52 26 112zM243 498h81c21 0 30 -7 30 -28v-68c0 -21 -9 -29 -30 -29h-81v-199c0 -33 23 -44 64 -44h24c21 0 30 -9 30 -30
v-71c0 -21 -9 -29 -30 -29h-50c-151 0 -198 51 -198 156v217h-44c-21 0 -29 8 -29 29v61c0 21 8 26 29 29l43 6h1v91c0 21 8 30 29 30h103c21 0 28 -9 28 -30v-91z" />
    <glyph glyph-name="tbar" unicode="&#x167;" horiz-adv-x="371" 
d="M243 498h81c21 0 30 -7 30 -28v-68c0 -21 -9 -29 -30 -29h-81v-51h81c21 0 30 -7 30 -28v-53c0 -21 -9 -29 -30 -29h-81v-38c0 -33 23 -44 64 -44h24c21 0 30 -9 30 -30v-71c0 -21 -9 -29 -30 -29h-50c-151 0 -198 51 -198 156v56h-43c-21 0 -30 8 -30 29v53
c0 21 9 28 30 28h43v51h-44c-21 0 -29 8 -29 29v61c0 21 8 26 29 29l43 6h1v91c0 21 8 30 29 30h103c21 0 28 -9 28 -30v-91z" />
    <glyph glyph-name="ugrave" unicode="&#xf9;" horiz-adv-x="547" 
d="M343 29l-2 16c-26 -22 -71 -53 -149 -53c-91 0 -147 58 -147 139v339c0 21 8 30 29 30h101c21 0 30 -9 30 -30v-298c0 -31 6 -43 38 -43c38 0 75 24 94 39v302c0 21 7 30 28 30h103c21 0 29 -9 29 -30v-441c0 -21 -8 -29 -29 -29h-96c-21 0 -26 8 -29 29zM195 577
l-69 101c-12 17 -6 30 15 30h107c21 0 33 -12 41 -30l40 -92c9 -21 2 -29 -16 -29h-79c-21 0 -33 11 -39 20z" />
    <glyph glyph-name="uacute" unicode="&#xfa;" horiz-adv-x="547" 
d="M411 678l-69 -101c-6 -9 -18 -20 -39 -20h-79c-18 0 -25 8 -16 29l40 92c8 18 20 30 41 30h107c21 0 27 -13 15 -30zM343 29l-2 16c-26 -22 -71 -53 -149 -53c-91 0 -147 58 -147 139v339c0 21 8 30 29 30h101c21 0 30 -9 30 -30v-298c0 -31 6 -43 38 -43
c38 0 75 24 94 39v302c0 21 7 30 28 30h103c21 0 29 -9 29 -30v-441c0 -21 -8 -29 -29 -29h-96c-21 0 -26 8 -29 29z" />
    <glyph glyph-name="ucircumflex" unicode="&#xfb;" horiz-adv-x="547" 
d="M257 614l-12 -28c-6 -14 -20 -29 -41 -29h-78c-21 0 -28 13 -16 29l71 92c13 17 26 30 47 30h58c21 0 34 -13 47 -30l71 -92c12 -16 5 -29 -16 -29h-78c-21 0 -34 14 -41 29zM343 29l-2 16c-26 -22 -71 -53 -149 -53c-91 0 -147 58 -147 139v339c0 21 8 30 29 30h101
c21 0 30 -9 30 -30v-298c0 -31 6 -43 38 -43c38 0 75 24 94 39v302c0 21 7 30 28 30h103c21 0 29 -9 29 -30v-441c0 -21 -8 -29 -29 -29h-96c-21 0 -26 8 -29 29z" />
    <glyph glyph-name="utilde" unicode="&#x169;" horiz-adv-x="547" 
d="M343 29l-2 16c-26 -22 -71 -53 -149 -53c-91 0 -147 58 -147 139v339c0 21 8 30 29 30h101c21 0 30 -9 30 -30v-298c0 -31 6 -43 38 -43c38 0 75 24 94 39v302c0 21 7 30 28 30h103c21 0 29 -9 29 -30v-441c0 -21 -8 -29 -29 -29h-96c-21 0 -26 8 -29 29zM220 590
c-9 0 -17 -5 -19 -13l-1 -4c-5 -21 -13 -26 -32 -26h-53c-20 0 -26 14 -24 34l6 49c6 47 46 76 94 76c23 0 43 -5 58 -11l42 -16c15 -6 27 -12 36 -12c10 0 17 5 19 13l1 4c5 20 12 26 32 26h52c22 0 27 -13 25 -34l-4 -45c-5 -51 -41 -76 -84 -76c-34 0 -50 4 -69 10
l-43 14c-17 6 -27 11 -36 11z" />
    <glyph glyph-name="udieresis" unicode="&#xfc;" horiz-adv-x="547" 
d="M249 678v-92c0 -21 -7 -29 -28 -29h-60c-21 0 -29 8 -29 29v92c0 21 8 30 29 30h60c21 0 28 -9 28 -30zM404 678v-92c0 -21 -7 -29 -28 -29h-60c-21 0 -29 8 -29 29v92c0 21 8 30 29 30h60c21 0 28 -9 28 -30zM343 29l-2 16c-26 -22 -71 -53 -149 -53
c-91 0 -147 58 -147 139v339c0 21 8 30 29 30h101c21 0 30 -9 30 -30v-298c0 -31 6 -43 38 -43c38 0 75 24 94 39v302c0 21 7 30 28 30h103c21 0 29 -9 29 -30v-441c0 -21 -8 -29 -29 -29h-96c-21 0 -26 8 -29 29z" />
    <glyph glyph-name="umacron" unicode="&#x16b;" horiz-adv-x="547" 
d="M343 29l-2 16c-26 -22 -71 -53 -149 -53c-91 0 -147 58 -147 139v339c0 21 8 30 29 30h101c21 0 30 -9 30 -30v-298c0 -31 6 -43 38 -43c38 0 75 24 94 39v302c0 21 7 30 28 30h103c21 0 29 -9 29 -30v-441c0 -21 -8 -29 -29 -29h-96c-21 0 -26 8 -29 29zM163 680h221
c21 0 30 -7 30 -28v-63c0 -21 -9 -29 -30 -29h-221c-21 0 -30 8 -30 29v63c0 21 9 28 30 28z" />
    <glyph glyph-name="ubreve" unicode="&#x16d;" horiz-adv-x="547" 
d="M343 29l-2 16c-26 -22 -71 -53 -149 -53c-91 0 -147 58 -147 139v339c0 21 8 30 29 30h101c21 0 30 -9 30 -30v-298c0 -31 6 -43 38 -43c38 0 75 24 94 39v302c0 21 7 30 28 30h103c21 0 29 -9 29 -30v-441c0 -21 -8 -29 -29 -29h-96c-21 0 -26 8 -29 29zM229 686v-17
c0 -20 10 -33 35 -33s35 13 35 33v17c0 18 7 24 26 24h61c19 0 26 -6 26 -24v-13c0 -84 -59 -130 -152 -130s-144 46 -144 130v13c0 18 7 24 26 24h61c19 0 26 -6 26 -24z" />
    <glyph glyph-name="uring" unicode="&#x16f;" horiz-adv-x="547" 
d="M395 654v-34c0 -41 -36 -80 -122 -80s-122 39 -122 80v34c0 41 36 80 122 80s122 -39 122 -80zM311 629v16c0 21 -17 27 -38 27s-38 -6 -38 -27v-16c0 -21 17 -28 38 -28s38 7 38 28zM343 29l-2 16c-26 -22 -71 -53 -149 -53c-91 0 -147 58 -147 139v339c0 21 8 30 29 30
h101c21 0 30 -9 30 -30v-298c0 -31 6 -43 38 -43c38 0 75 24 94 39v302c0 21 7 30 28 30h103c21 0 29 -9 29 -30v-441c0 -21 -8 -29 -29 -29h-96c-21 0 -26 8 -29 29z" />
    <glyph glyph-name="uhungarumlaut" unicode="&#x171;" horiz-adv-x="547" 
d="M343 29l-2 16c-26 -22 -71 -53 -149 -53c-91 0 -147 58 -147 139v339c0 21 8 30 29 30h101c21 0 30 -9 30 -30v-298c0 -31 6 -43 38 -43c38 0 75 24 94 39v302c0 21 7 30 28 30h103c21 0 29 -9 29 -30v-441c0 -21 -8 -29 -29 -29h-96c-21 0 -26 8 -29 29zM495 678
l-66 -92c-10 -14 -23 -29 -44 -29h-75c-21 0 -26 11 -16 29l51 92c11 19 24 30 45 30h90c21 0 27 -13 15 -30zM313 678l-51 -92c-10 -18 -18 -29 -39 -29h-75c-21 0 -28 11 -21 29l36 92c8 19 19 30 40 30h90c21 0 29 -13 20 -30z" />
    <glyph glyph-name="uogonek" unicode="&#x173;" horiz-adv-x="547" 
d="M457 -179h-53c-33 0 -99 12 -99 86c0 20 2 62 38 111l-2 27c-26 -22 -71 -53 -149 -53c-91 0 -147 58 -147 139v339c0 21 8 30 29 30h101c21 0 30 -9 30 -30v-298c0 -31 6 -43 38 -43c38 0 75 24 94 39v302c0 21 7 30 28 30h103c21 0 29 -9 29 -30v-441
c0 -21 -8 -29 -29 -29h-7c-26 -2 -37 -25 -37 -57c0 -16 8 -25 30 -25h13c21 0 30 -7 30 -28v-40c0 -21 -19 -29 -40 -29z" />
    <glyph glyph-name="wgrave" unicode="&#x1e81;" horiz-adv-x="744" 
d="M737 470l-127 -443c-6 -20 -9 -27 -30 -27h-123c-21 0 -26 9 -30 27l-41 191c-5 21 -9 50 -9 55c-1 -3 -7 -33 -13 -55l-57 -191c-5 -18 -9 -27 -30 -27h-120c-21 0 -25 8 -30 27l-120 443c-6 21 8 30 29 30h98c21 0 28 -12 33 -30l58 -222c5 -22 7 -48 8 -51
c0 3 7 33 12 51l62 222c5 18 12 30 33 30h97c21 0 29 -12 33 -30l48 -222l9 -51c1 5 7 36 11 51l56 222c5 18 12 30 33 30h81c21 0 35 -9 29 -30zM308 577l-69 101c-12 17 -6 30 15 30h107c21 0 33 -12 41 -30l40 -92c9 -21 2 -29 -16 -29h-79c-21 0 -33 11 -39 20z" />
    <glyph glyph-name="wacute" unicode="&#x1e83;" horiz-adv-x="744" 
d="M533 678l-69 -101c-6 -9 -18 -20 -39 -20h-79c-18 0 -25 8 -16 29l40 92c8 18 20 30 41 30h107c21 0 27 -13 15 -30zM737 470l-127 -443c-6 -20 -9 -27 -30 -27h-123c-21 0 -26 9 -30 27l-41 191c-5 21 -9 50 -9 55c-1 -3 -7 -33 -13 -55l-57 -191c-5 -18 -9 -27 -30 -27
h-120c-21 0 -25 8 -30 27l-120 443c-6 21 8 30 29 30h98c21 0 28 -12 33 -30l58 -222c5 -22 7 -48 8 -51c0 3 7 33 12 51l62 222c5 18 12 30 33 30h97c21 0 29 -12 33 -30l48 -222l9 -51c1 5 7 36 11 51l56 222c5 18 12 30 33 30h81c21 0 35 -9 29 -30z" />
    <glyph glyph-name="wcircumflex" unicode="&#x175;" horiz-adv-x="744" 
d="M373 614l-12 -28c-6 -14 -20 -29 -41 -29h-78c-21 0 -28 13 -16 29l71 92c13 17 26 30 47 30h58c21 0 34 -13 47 -30l71 -92c12 -16 5 -29 -16 -29h-78c-21 0 -34 14 -41 29zM737 470l-127 -443c-6 -20 -9 -27 -30 -27h-123c-21 0 -26 9 -30 27l-41 191
c-5 21 -9 50 -9 55c-1 -3 -7 -33 -13 -55l-57 -191c-5 -18 -9 -27 -30 -27h-120c-21 0 -25 8 -30 27l-120 443c-6 21 8 30 29 30h98c21 0 28 -12 33 -30l58 -222c5 -22 7 -48 8 -51c0 3 7 33 12 51l62 222c5 18 12 30 33 30h97c21 0 29 -12 33 -30l48 -222l9 -51
c1 5 7 36 11 51l56 222c5 18 12 30 33 30h81c21 0 35 -9 29 -30z" />
    <glyph glyph-name="wdieresis" unicode="&#x1e85;" horiz-adv-x="744" 
d="M366 678v-92c0 -21 -7 -29 -28 -29h-60c-21 0 -29 8 -29 29v92c0 21 8 30 29 30h60c21 0 28 -9 28 -30zM521 678v-92c0 -21 -7 -29 -28 -29h-60c-21 0 -29 8 -29 29v92c0 21 8 30 29 30h60c21 0 28 -9 28 -30zM737 470l-127 -443c-6 -20 -9 -27 -30 -27h-123
c-21 0 -26 9 -30 27l-41 191c-5 21 -9 50 -9 55c-1 -3 -7 -33 -13 -55l-57 -191c-5 -18 -9 -27 -30 -27h-120c-21 0 -25 8 -30 27l-120 443c-6 21 8 30 29 30h98c21 0 28 -12 33 -30l58 -222c5 -22 7 -48 8 -51c0 3 7 33 12 51l62 222c5 18 12 30 33 30h97
c21 0 29 -12 33 -30l48 -222l9 -51c1 5 7 36 11 51l56 222c5 18 12 30 33 30h81c21 0 35 -9 29 -30z" />
    <glyph glyph-name="ygrave" unicode="&#x1ef3;" horiz-adv-x="494" 
d="M171 470l57 -181c14 -47 17 -92 18 -96c1 6 15 64 24 91l62 186c6 19 12 30 33 30h93c21 0 36 -10 29 -30l-217 -639c-5 -15 -12 -30 -33 -30h-74c-21 0 -35 10 -29 30l43 152l-170 487c-7 20 8 30 29 30h102c21 0 27 -12 33 -30zM179 577l-69 101c-12 17 -6 30 15 30
h107c21 0 33 -12 41 -30l40 -92c9 -21 2 -29 -16 -29h-79c-21 0 -33 11 -39 20z" />
    <glyph glyph-name="yacute" unicode="&#xfd;" horiz-adv-x="494" 
d="M171 470l57 -181c14 -47 17 -92 18 -96c1 6 15 64 24 91l62 186c6 19 12 30 33 30h93c21 0 36 -10 29 -30l-217 -639c-5 -15 -12 -30 -33 -30h-74c-21 0 -35 10 -29 30l43 152l-170 487c-7 20 8 30 29 30h102c21 0 27 -12 33 -30zM394 678l-69 -101
c-6 -9 -18 -20 -39 -20h-79c-18 0 -25 8 -16 29l40 92c8 18 20 30 41 30h107c21 0 27 -13 15 -30z" />
    <glyph glyph-name="ycircumflex" unicode="&#x177;" horiz-adv-x="494" 
d="M171 470l57 -181c14 -47 17 -92 18 -96c1 6 15 64 24 91l62 186c6 19 12 30 33 30h93c21 0 36 -10 29 -30l-217 -639c-5 -15 -12 -30 -33 -30h-74c-21 0 -35 10 -29 30l43 152l-170 487c-7 20 8 30 29 30h102c21 0 27 -12 33 -30zM247 614l-12 -28
c-6 -14 -20 -29 -41 -29h-78c-21 0 -28 13 -16 29l71 92c13 17 26 30 47 30h58c21 0 34 -13 47 -30l71 -92c12 -16 5 -29 -16 -29h-78c-21 0 -34 14 -41 29z" />
    <glyph glyph-name="ydieresis" unicode="&#xff;" horiz-adv-x="494" 
d="M171 470l57 -181c14 -47 17 -92 18 -96c1 6 15 64 24 91l62 186c6 19 12 30 33 30h93c21 0 36 -10 29 -30l-217 -639c-5 -15 -12 -30 -33 -30h-74c-21 0 -35 10 -29 30l43 152l-170 487c-7 20 8 30 29 30h102c21 0 27 -12 33 -30zM230 678v-92c0 -21 -7 -29 -28 -29h-60
c-21 0 -29 8 -29 29v92c0 21 8 30 29 30h60c21 0 28 -9 28 -30zM385 678v-92c0 -21 -7 -29 -28 -29h-60c-21 0 -29 8 -29 29v92c0 21 8 30 29 30h60c21 0 28 -9 28 -30z" />
    <glyph glyph-name="zacute" unicode="&#x17a;" horiz-adv-x="443" 
d="M361 678l-69 -101c-6 -9 -18 -20 -39 -20h-79c-18 0 -25 8 -16 29l40 92c8 18 20 30 41 30h107c21 0 27 -13 15 -30zM73 500h305c21 0 30 -7 30 -28v-72c0 -8 -2 -16 -6 -22l-182 -248h178c21 0 30 -7 30 -28v-73c0 -21 -9 -29 -30 -29h-343c-21 0 -30 8 -30 29v73
c0 10 3 16 6 21l180 247h-138c-21 0 -30 8 -30 29v73c0 21 9 28 30 28z" />
    <glyph glyph-name="zcaron" unicode="&#x17e;" horiz-adv-x="443" 
d="M216 679l12 -28l12 28c6 14 20 29 41 29h78c21 0 28 -13 16 -29l-71 -92c-13 -17 -26 -30 -47 -30h-58c-21 0 -34 13 -47 30l-71 92c-12 16 -5 29 16 29h78c21 0 35 -15 41 -29zM73 500h305c21 0 30 -7 30 -28v-72c0 -8 -2 -16 -6 -22l-182 -248h178c21 0 30 -7 30 -28
v-73c0 -21 -9 -29 -30 -29h-343c-21 0 -30 8 -30 29v73c0 10 3 16 6 21l180 247h-138c-21 0 -30 8 -30 29v73c0 21 9 28 30 28z" />
    <glyph glyph-name="zdotaccent" unicode="&#x17c;" horiz-adv-x="443" 
d="M73 500h305c21 0 30 -7 30 -28v-72c0 -8 -2 -16 -6 -22l-182 -248h178c21 0 30 -7 30 -28v-73c0 -21 -9 -29 -30 -29h-343c-21 0 -30 8 -30 29v73c0 10 3 16 6 21l180 247h-138c-21 0 -30 8 -30 29v73c0 21 9 28 30 28zM304 678v-83c0 -21 -7 -29 -28 -29h-106
c-21 0 -29 8 -29 29v83c0 21 8 30 29 30h106c21 0 28 -9 28 -30z" />
    <glyph glyph-name="eng" unicode="&#x14b;" horiz-adv-x="553" 
d="M79 500h96c21 0 27 -8 29 -29l2 -17c28 23 76 54 155 54c91 0 147 -58 147 -139v-412c0 -95 -76 -156 -227 -156h-11c-21 0 -30 8 -30 29v71c0 21 9 30 30 30h11c41 0 67 11 67 44v353c0 31 -6 43 -38 43c-39 0 -80 -25 -100 -40v-301c0 -21 -7 -30 -28 -30h-103
c-21 0 -29 9 -29 30v441c0 21 8 29 29 29z" />
    <glyph glyph-name="eth" unicode="&#xf0;" horiz-adv-x="574" 
d="M280 575l30 18c-10 4 -24 5 -39 5h-101c-21 0 -30 9 -30 30v51c0 21 9 29 30 29h101c75 0 129 -16 165 -43l40 24c15 9 31 7 41 -11l11 -17c10 -15 6 -28 -12 -39l-35 -21c5 -15 7 -31 7 -49v-404c0 -95 -68 -156 -219 -156s-229 61 -229 156v206c0 95 47 154 148 154
c74 0 121 -30 150 -52v63l-19 -11c-18 -10 -29 -7 -40 10l-11 18c-9 15 -6 29 12 39zM338 162v168c-21 15 -61 41 -99 41s-39 -22 -39 -42v-167c0 -34 28 -45 69 -45s69 11 69 45z" />
    <glyph glyph-name="thorn" unicode="&#xfe;" horiz-adv-x="548" 
d="M210 669v-213c28 22 75 52 150 52c101 0 148 -59 148 -154v-208c0 -95 -47 -154 -148 -154c-75 0 -122 30 -150 51v-212c0 -21 -7 -30 -28 -30h-103c-21 0 -29 9 -29 30v838c0 21 8 30 29 30h102c21 0 29 -9 29 -30zM348 171v158c0 20 -1 42 -39 42
c-39 0 -79 -26 -99 -41v-160c20 -15 60 -41 99 -41c38 0 39 22 39 42z" />
    <glyph glyph-name="ampersand" unicode="&#x26;" horiz-adv-x="708" 
d="M305 411h343c21 0 30 -7 30 -28v-73c0 -21 -9 -29 -30 -29h-51v-118c0 -86 -58 -171 -275 -171s-272 81 -272 167v78c0 50 23 89 80 114c-50 19 -70 51 -70 100v70c0 86 49 167 235 167c188 0 238 -85 238 -171v-36c0 -21 -7 -30 -28 -30h-103c-21 0 -29 9 -29 30v12
c0 46 -27 65 -76 65s-75 -19 -75 -65v-17c0 -46 34 -65 83 -65zM324 122c73 0 113 19 113 65v94h-142c-49 0 -83 -18 -83 -64v-30c0 -46 39 -65 112 -65z" />
    <glyph glyph-name="grave" unicode="`" horiz-adv-x="306" 
d="M113 577l-69 101c-12 17 -6 30 15 30h107c21 0 33 -12 41 -30l40 -92c9 -21 2 -29 -16 -29h-79c-21 0 -33 11 -39 20z" />
    <glyph glyph-name="acute" unicode="&#xb4;" horiz-adv-x="306" 
d="M261 678l-69 -101c-6 -9 -18 -20 -39 -20h-79c-18 0 -25 8 -16 29l40 92c8 18 20 30 41 30h107c21 0 27 -13 15 -30z" />
    <glyph glyph-name="circumflex" unicode="&#x2c6;" horiz-adv-x="358" 
d="M179 614l-12 -28c-6 -14 -20 -29 -41 -29h-78c-21 0 -28 13 -16 29l71 92c13 17 26 30 47 30h58c21 0 34 -13 47 -30l71 -92c12 -16 5 -29 -16 -29h-78c-21 0 -34 14 -41 29z" />
    <glyph glyph-name="caron" unicode="&#x2c7;" horiz-adv-x="358" 
d="M167 679l12 -28l12 28c6 14 20 29 41 29h78c21 0 28 -13 16 -29l-71 -92c-13 -17 -26 -30 -47 -30h-58c-21 0 -34 13 -47 30l-71 92c-12 16 -5 29 16 29h78c21 0 35 -15 41 -29z" />
    <glyph glyph-name="tilde" unicode="&#x2dc;" horiz-adv-x="402" 
d="M146 590c-9 0 -17 -5 -19 -13l-1 -4c-5 -21 -13 -26 -32 -26h-53c-20 0 -26 14 -24 34l6 49c6 47 46 76 94 76c23 0 43 -5 58 -11l42 -16c15 -6 27 -12 36 -12c10 0 17 5 19 13l1 4c5 20 12 26 32 26h52c22 0 27 -13 25 -34l-4 -45c-5 -51 -41 -76 -84 -76
c-34 0 -50 4 -69 10l-43 14c-17 6 -27 11 -36 11z" />
    <glyph glyph-name="dieresis" unicode="&#xa8;" horiz-adv-x="407" 
d="M184 678v-92c0 -21 -7 -29 -28 -29h-60c-21 0 -29 8 -29 29v92c0 21 8 30 29 30h60c21 0 28 -9 28 -30zM339 678v-92c0 -21 -7 -29 -28 -29h-60c-21 0 -29 8 -29 29v92c0 21 8 30 29 30h60c21 0 28 -9 28 -30z" />
    <glyph glyph-name="macron" unicode="&#xaf;" horiz-adv-x="401" 
d="M90 680h221c21 0 30 -7 30 -28v-63c0 -21 -9 -29 -30 -29h-221c-21 0 -30 8 -30 29v63c0 21 9 28 30 28z" />
    <glyph glyph-name="breve" unicode="&#x2d8;" horiz-adv-x="426" 
d="M178 686v-17c0 -20 10 -33 35 -33s35 13 35 33v17c0 18 7 24 26 24h61c19 0 26 -6 26 -24v-13c0 -84 -59 -130 -152 -130s-144 46 -144 130v13c0 18 7 24 26 24h61c19 0 26 -6 26 -24z" />
    <glyph glyph-name="ring" unicode="&#x2da;" horiz-adv-x="350" 
d="M297 654v-34c0 -41 -36 -80 -122 -80s-122 39 -122 80v34c0 41 36 80 122 80s122 -39 122 -80zM213 629v16c0 21 -17 27 -38 27s-38 -6 -38 -27v-16c0 -21 17 -28 38 -28s38 7 38 28z" />
    <glyph glyph-name="hungarumlaut" unicode="&#x2dd;" horiz-adv-x="422" 
d="M394 678l-66 -92c-10 -14 -23 -29 -44 -29h-75c-21 0 -26 11 -16 29l51 92c11 19 24 30 45 30h90c21 0 27 -13 15 -30zM212 678l-51 -92c-10 -18 -18 -29 -39 -29h-75c-21 0 -28 11 -21 29l36 92c8 19 19 30 40 30h90c21 0 29 -13 20 -30z" />
    <glyph glyph-name="dotaccent" unicode="&#x2d9;" horiz-adv-x="253" 
d="M208 678v-83c0 -21 -7 -29 -28 -29h-106c-21 0 -29 8 -29 29v83c0 21 8 30 29 30h106c21 0 28 -9 28 -30z" />
    <glyph glyph-name="commaaccent" horiz-adv-x="299" 
d="M101 80v32c0 21 8 30 29 30h76c21 0 28 -9 28 -30v-41c0 -44 -20 -97 -48 -140c-12 -18 -24 -18 -39 -15l-57 13c-20 5 -23 21 -15 39c20 44 26 52 26 112z" />
    <glyph glyph-name="cedilla" unicode="&#xb8;" horiz-adv-x="297" 
d="M154 -39h27c56 0 89 -26 89 -84c0 -60 -33 -88 -89 -88h-125c-21 0 -30 8 -30 29v21c0 21 9 28 30 28h97c8 0 9 7 9 10s-1 10 -9 10h-81c-35 0 -42 17 -35 40l27 91c5 17 14 26 35 25l45 -3c17 -1 28 -13 22 -34z" />
    <glyph glyph-name="ogonek" unicode="&#x2db;" horiz-adv-x="235" 
d="M188 -179h-68c-59 0 -104 31 -104 88c0 41 14 76 48 125c10 15 24 27 41 25l48 -5c28 -3 33 -18 18 -32c-27 -25 -40 -55 -40 -79c0 -22 19 -25 38 -25h19c21 0 30 -7 30 -28v-40c0 -21 -9 -29 -30 -29z" />
    <glyph glyph-name="acute.case" horiz-adv-x="180" 
d="M190 848l-69 -101c-6 -9 -18 -20 -39 -20h-79c-18 0 -25 8 -16 29l40 92c8 18 20 30 41 30h107c21 0 27 -13 15 -30z" />
    <glyph glyph-name="macron.case" horiz-adv-x="180" 
d="M-20 860h221c21 0 30 -7 30 -28v-63c0 -21 -9 -29 -30 -29h-221c-21 0 -30 8 -30 29v63c0 21 9 28 30 28z" />
    <glyph glyph-name="breve.case" horiz-adv-x="180" 
d="M55 857v-17c0 -20 10 -33 35 -33s35 13 35 33v17c0 18 7 24 26 24h61c19 0 26 -6 26 -24v-13c0 -84 -59 -130 -152 -130s-144 46 -144 130v13c0 18 7 24 26 24h61c19 0 26 -6 26 -24z" />
    <glyph glyph-name="caron.case" horiz-adv-x="180" 
d="M78 849l12 -28l12 28c6 14 20 29 41 29h78c21 0 28 -13 16 -29l-71 -92c-13 -17 -26 -30 -47 -30h-58c-21 0 -34 13 -47 30l-71 92c-12 16 -5 29 16 29h78c21 0 35 -15 41 -29z" />
    <glyph glyph-name="ring.case" horiz-adv-x="180" 
d="M212 826v-34c0 -41 -36 -80 -122 -80s-122 39 -122 80v34c0 41 36 80 122 80s122 -39 122 -80zM128 801v16c0 21 -17 27 -38 27s-38 -6 -38 -27v-16c0 -21 17 -28 38 -28s38 7 38 28z" />
    <glyph glyph-name="circumflex.case" horiz-adv-x="180" 
d="M90 784l-12 -28c-6 -14 -20 -29 -41 -29h-78c-21 0 -28 13 -16 29l71 92c13 17 26 30 47 30h58c21 0 34 -13 47 -30l71 -92c12 -16 5 -29 -16 -29h-78c-21 0 -34 14 -41 29z" />
    <glyph glyph-name="tilde.case" horiz-adv-x="180" 
d="M37 770c-9 0 -17 -5 -19 -13l-1 -4c-5 -21 -13 -26 -32 -26h-53c-20 0 -26 14 -24 34l6 49c6 47 46 76 94 76c23 0 43 -5 58 -11l42 -16c15 -6 27 -12 36 -12c10 0 17 5 19 13l1 4c5 20 12 26 32 26h52c22 0 27 -13 25 -34l-4 -45c-5 -51 -41 -76 -84 -76
c-34 0 -50 4 -69 10l-43 14c-17 6 -27 11 -36 11z" />
    <glyph glyph-name="dieresis.case" horiz-adv-x="180" 
d="M71 848v-92c0 -21 -7 -29 -28 -29h-60c-21 0 -29 8 -29 29v92c0 21 8 30 29 30h60c21 0 28 -9 28 -30zM226 848v-92c0 -21 -7 -29 -28 -29h-60c-21 0 -29 8 -29 29v92c0 21 8 30 29 30h60c21 0 28 -9 28 -30z" />
    <glyph glyph-name="dotaccent.case" horiz-adv-x="180" 
d="M172 839v-83c0 -21 -7 -29 -28 -29h-106c-21 0 -29 8 -29 29v83c0 21 8 30 29 30h106c21 0 28 -9 28 -30z" />
    <glyph glyph-name="grave.case" horiz-adv-x="180" 
d="M59 747l-69 101c-12 17 -6 30 15 30h107c21 0 33 -12 41 -30l40 -92c9 -21 2 -29 -16 -29h-79c-21 0 -33 11 -39 20z" />
    <glyph glyph-name="hungarumlaut.case" horiz-adv-x="180" 
d="M273 848l-66 -92c-10 -14 -23 -29 -44 -29h-75c-21 0 -26 11 -16 29l51 92c11 19 24 30 45 30h90c21 0 27 -13 15 -30zM91 848l-51 -92c-10 -18 -18 -29 -39 -29h-75c-21 0 -28 11 -21 29l36 92c8 19 19 30 40 30h90c21 0 29 -13 20 -30z" />
    <glyph glyph-name="comma" unicode="," horiz-adv-x="293" 
d="M80 42v70c0 21 8 30 29 30h106c21 0 28 -9 28 -30v-79c0 -81 -56 -135 -165 -160c-20 -5 -30 -1 -37 20l-24 68c-7 20 0 31 20 37c34 10 43 22 43 44z" />
    <glyph glyph-name="semicolon" unicode=";" horiz-adv-x="299" 
d="M249 470v-83c0 -21 -7 -29 -28 -29h-106c-21 0 -29 8 -29 29v83c0 21 8 30 29 30h106c21 0 28 -9 28 -30zM86 42v70c0 21 8 30 29 30h106c21 0 28 -9 28 -30v-79c0 -81 -56 -135 -165 -160c-20 -5 -30 -1 -37 20l-24 68c-7 20 0 31 20 37c34 10 43 22 43 44z" />
    <glyph glyph-name="colon" unicode=":" horiz-adv-x="263" 
d="M213 112v-83c0 -21 -7 -29 -28 -29h-106c-21 0 -29 8 -29 29v83c0 21 8 30 29 30h106c21 0 28 -9 28 -30zM213 470v-83c0 -21 -7 -29 -28 -29h-106c-21 0 -29 8 -29 29v83c0 21 8 30 29 30h106c21 0 28 -9 28 -30z" />
    <glyph glyph-name="period" unicode="." horiz-adv-x="263" 
d="M213 112v-83c0 -21 -7 -29 -28 -29h-106c-21 0 -29 8 -29 29v83c0 21 8 30 29 30h106c21 0 28 -9 28 -30z" />
    <glyph glyph-name="ellipsis" unicode="&#x2026;" horiz-adv-x="758" 
d="M213 112v-83c0 -21 -7 -29 -28 -29h-106c-21 0 -29 8 -29 29v83c0 21 8 30 29 30h106c21 0 28 -9 28 -30zM708 112v-83c0 -21 -7 -29 -28 -29h-106c-21 0 -29 8 -29 29v83c0 21 8 30 29 30h106c21 0 28 -9 28 -30zM461 112v-83c0 -21 -7 -29 -28 -29h-106
c-21 0 -29 8 -29 29v83c0 21 8 30 29 30h106c21 0 28 -9 28 -30z" />
    <glyph glyph-name="exclam" unicode="!" horiz-adv-x="288" 
d="M227 390l-16 -170c-2 -21 -7 -30 -28 -30h-77c-21 0 -27 9 -29 30l-16 170v260c0 21 8 30 29 30h109c21 0 28 -9 28 -30v-260zM225 112v-83c0 -21 -7 -29 -28 -29h-108c-21 0 -29 8 -29 29v83c0 21 8 30 29 30h108c21 0 28 -9 28 -30z" />
    <glyph glyph-name="exclamdown" unicode="&#xa1;" horiz-adv-x="288" 
d="M60 110l16 170c2 21 7 30 28 30h77c21 0 27 -9 29 -30l16 -170v-260c0 -21 -8 -30 -29 -30h-109c-21 0 -28 9 -28 30v260zM62 388v83c0 21 7 29 28 29h108c21 0 29 -8 29 -29v-83c0 -21 -8 -30 -29 -30h-108c-21 0 -28 9 -28 30z" />
    <glyph glyph-name="question" unicode="?" horiz-adv-x="564" 
d="M165 219v65c0 54 27 71 61 88l103 52c16 8 32 20 32 53v14c0 46 -34 65 -81 65s-80 -19 -80 -65v-36c0 -21 -7 -30 -28 -30h-103c-21 0 -29 9 -29 30v62c0 86 60 171 240 171s243 -85 244 -171v-34c0 -103 -52 -146 -97 -166l-59 -26c-31 -14 -38 -21 -38 -50v-22
c0 -21 -7 -29 -28 -29h-108c-21 0 -29 8 -29 29zM330 112v-83c0 -21 -7 -29 -28 -29h-108c-21 0 -29 8 -29 29v83c0 21 8 30 29 30h108c21 0 28 -9 28 -30z" />
    <glyph glyph-name="questiondown" unicode="&#xbf;" horiz-adv-x="564" 
d="M399 281v-65c0 -54 -27 -71 -61 -88l-103 -52c-16 -8 -32 -20 -32 -53v-14c0 -46 34 -65 81 -65s80 19 80 65v36c0 21 7 30 28 30h103c21 0 29 -9 29 -30v-62c0 -86 -60 -171 -240 -171s-243 85 -244 171v34c0 103 52 146 97 166l59 26c31 14 38 21 38 50v22
c0 21 7 29 28 29h108c21 0 29 -8 29 -29zM234 388v83c0 21 7 29 28 29h108c21 0 29 -8 29 -29v-83c0 -21 -8 -30 -29 -30h-108c-21 0 -28 9 -28 30z" />
    <glyph glyph-name="quotesingle" unicode="'" horiz-adv-x="258" 
d="M207 650l-13 -160c-2 -21 -7 -30 -28 -30h-73c-21 0 -27 9 -29 30l-13 160c-2 21 8 30 29 30h99c21 0 30 -9 28 -30z" />
    <glyph glyph-name="quotedbl" unicode="&#x22;" horiz-adv-x="455" 
d="M207 650l-13 -160c0 -21 -7 -30 -28 -30h-73c-21 0 -27 9 -29 30l-13 160c-2 21 8 30 29 30h99c21 0 30 -9 28 -30zM404 650l-13 -160c0 -21 -7 -30 -28 -30h-73c-21 0 -27 9 -29 30l-13 160c-2 21 8 30 29 30h99c21 0 30 -9 28 -30z" />
    <glyph glyph-name="quoteleft" unicode="&#x2018;" horiz-adv-x="293" 
d="M213 594v-70c0 -21 -8 -30 -29 -30h-106c-21 0 -28 9 -28 30v79c0 81 56 135 165 160c20 5 30 1 37 -20l24 -68c7 -20 0 -31 -20 -37c-34 -10 -43 -22 -43 -44z" />
    <glyph glyph-name="quoteright" unicode="&#x2019;" horiz-adv-x="293" 
d="M80 663v70c0 21 8 30 29 30h106c21 0 28 -9 28 -30v-79c0 -81 -56 -135 -165 -160c-20 -5 -30 -1 -37 20l-24 68c-7 20 0 31 20 37c34 10 43 22 43 44z" />
    <glyph glyph-name="quotedblleft" unicode="&#x201c;" horiz-adv-x="539" 
d="M459 594v-70c0 -21 -8 -30 -29 -30h-106c-21 0 -28 9 -28 30v79c0 81 56 135 165 160c20 5 30 1 37 -20l24 -68c7 -20 0 -31 -20 -37c-34 -10 -43 -22 -43 -44zM213 594v-70c0 -21 -8 -30 -29 -30h-106c-21 0 -28 9 -28 30v79c0 81 56 135 165 160c20 5 30 1 37 -20
l24 -68c7 -20 0 -31 -20 -37c-34 -10 -43 -22 -43 -44z" />
    <glyph glyph-name="quotedblright" unicode="&#x201d;" horiz-adv-x="539" 
d="M326 663v70c0 21 8 30 29 30h106c21 0 28 -9 28 -30v-79c0 -81 -56 -135 -165 -160c-20 -5 -30 -1 -37 20l-24 68c-7 20 0 31 20 37c34 10 43 22 43 44zM80 663v70c0 21 8 30 29 30h106c21 0 28 -9 28 -30v-79c0 -81 -56 -135 -165 -160c-20 -5 -30 -1 -37 20l-24 68
c-7 20 0 31 20 37c34 10 43 22 43 44z" />
    <glyph glyph-name="quotesinglbase" unicode="&#x201a;" horiz-adv-x="293" 
d="M80 42v70c0 21 8 30 29 30h106c21 0 28 -9 28 -30v-79c0 -81 -56 -135 -165 -160c-20 -5 -30 -1 -37 20l-24 68c-7 20 0 31 20 37c34 10 43 22 43 44z" />
    <glyph glyph-name="quotedblbase" unicode="&#x201e;" horiz-adv-x="539" 
d="M326 42v70c0 21 8 30 29 30h106c21 0 28 -9 28 -30v-79c0 -81 -56 -135 -165 -160c-20 -5 -30 -1 -37 20l-24 68c-7 20 0 31 20 37c34 10 43 22 43 44zM80 42v70c0 21 8 30 29 30h106c21 0 28 -9 28 -30v-79c0 -81 -56 -135 -165 -160c-20 -5 -30 -1 -37 20l-24 68
c-7 20 0 31 20 37c34 10 43 22 43 44z" />
    <glyph glyph-name="guilsinglleft" unicode="&#x2039;" horiz-adv-x="366" 
d="M276 304l-90 -59l90 -58c15 -10 30 -20 30 -41v-100c0 -21 -16 -31 -30 -21l-189 131c-12 8 -27 21 -27 40v99c0 19 14 31 27 40l189 131c16 11 30 0 30 -21v-100c0 -21 -14 -30 -30 -41z" />
    <glyph glyph-name="guilsinglright" unicode="&#x203a;" horiz-adv-x="366" 
d="M180 245l-90 59c-16 11 -30 20 -30 41v100c0 21 14 32 30 21l189 -131c13 -9 27 -21 27 -40v-99c0 -19 -15 -32 -27 -40l-189 -131c-14 -10 -30 0 -30 21v100c0 21 15 31 30 41z" />
    <glyph glyph-name="guillemotleft" unicode="&#xab;" horiz-adv-x="622" 
d="M532 304l-90 -59l90 -58c15 -10 30 -20 30 -41v-100c0 -21 -16 -31 -30 -21l-189 131c-12 8 -27 21 -27 40v99c0 19 14 31 27 40l189 131c16 11 30 0 30 -21v-100c0 -21 -14 -30 -30 -41zM276 304l-90 -59l90 -58c15 -10 30 -20 30 -41v-100c0 -21 -16 -31 -30 -21
l-189 131c-12 8 -27 21 -27 40v99c0 19 14 31 27 40l189 131c16 11 30 0 30 -21v-100c0 -21 -14 -30 -30 -41z" />
    <glyph glyph-name="guillemotright" unicode="&#xbb;" horiz-adv-x="622" 
d="M346 194l90 59l-90 58c-15 10 -30 20 -30 41v100c0 21 16 31 30 21l189 -131c12 -8 27 -21 27 -40v-99c0 -19 -14 -31 -27 -40l-189 -131c-16 -11 -30 0 -30 21v100c0 21 14 30 30 41zM90 194l90 59l-90 58c-15 10 -30 20 -30 41v100c0 21 16 31 30 21l189 -131
c12 -8 27 -21 27 -40v-99c0 -19 -14 -31 -27 -40l-189 -131c-16 -11 -30 0 -30 21v100c0 21 14 30 30 41z" />
    <glyph glyph-name="slash" unicode="/" horiz-adv-x="365" 
d="M363 669l-191 -787c-5 -21 -13 -30 -34 -30h-113c-18 0 -28 10 -23 30l191 787c5 20 13 30 34 30h113c21 0 28 -11 23 -30z" />
    <glyph glyph-name="bar" unicode="|" horiz-adv-x="285" 
d="M225 669v-850c0 -21 -7 -30 -28 -30h-108c-21 0 -29 9 -29 30v850c0 21 8 30 29 30h108c21 0 28 -9 28 -30z" />
    <glyph glyph-name="hyphen" unicode="-" horiz-adv-x="427" 
d="M80 353h267c21 0 30 -7 30 -28v-73c0 -21 -9 -29 -30 -29h-267c-21 0 -30 8 -30 29v73c0 21 9 28 30 28z" />
    <glyph glyph-name="uni00AD" unicode="&#xad;" horiz-adv-x="427" 
d="M80 353h267c21 0 30 -7 30 -28v-73c0 -21 -9 -29 -30 -29h-267c-21 0 -30 8 -30 29v73c0 21 9 28 30 28z" />
    <glyph glyph-name="endash" unicode="&#x2013;" horiz-adv-x="527" 
d="M80 353h367c21 0 30 -7 30 -28v-73c0 -21 -9 -29 -30 -29h-367c-21 0 -30 8 -30 29v73c0 21 9 28 30 28z" />
    <glyph glyph-name="emdash" unicode="&#x2014;" horiz-adv-x="838" 
d="M80 353h678c21 0 30 -7 30 -28v-73c0 -21 -9 -29 -30 -29h-678c-21 0 -30 8 -30 29v73c0 21 9 28 30 28z" />
    <glyph glyph-name="bullet" unicode="&#x2022;" horiz-adv-x="283" 
d="M223 352v-153c0 -21 -7 -29 -28 -29h-106c-21 0 -29 8 -29 29v153c0 21 8 30 29 30h106c21 0 28 -9 28 -30z" />
    <glyph glyph-name="periodcentered" unicode="&#xb7;" horiz-adv-x="263" 
d="M213 323v-83c0 -21 -7 -29 -28 -29h-106c-21 0 -29 8 -29 29v83c0 21 8 30 29 30h106c21 0 28 -9 28 -30z" />
    <glyph glyph-name="parenleft" unicode="(" horiz-adv-x="358" 
d="M50 -62v614c0 95 76 156 227 156h11c21 0 30 -8 30 -29v-71c0 -21 -9 -30 -30 -30h-11c-41 0 -62 -11 -62 -44v-578c0 -33 21 -44 62 -44h11c21 0 30 -9 30 -30v-71c0 -21 -9 -29 -30 -29h-11c-151 0 -227 61 -227 156z" />
    <glyph glyph-name="parenright" unicode=")" horiz-adv-x="358" 
d="M308 552v-614c0 -95 -76 -156 -227 -156h-11c-21 0 -30 8 -30 29v71c0 21 9 30 30 30h11c41 0 62 11 62 44v578c0 33 -21 44 -62 44h-11c-21 0 -30 9 -30 30v71c0 21 9 29 30 29h11c151 0 227 -61 227 -156z" />
    <glyph glyph-name="bracketleft" unicode="[" horiz-adv-x="407" 
d="M50 -181v850c0 21 8 30 29 30h248c21 0 30 -7 30 -28v-78c0 -21 -9 -29 -30 -29h-112v-640h112c21 0 30 -8 30 -29v-78c0 -21 -9 -28 -30 -28h-248c-21 0 -29 9 -29 30z" />
    <glyph glyph-name="bracketright" unicode="]" horiz-adv-x="407" 
d="M357 669v-850c0 -21 -8 -30 -29 -30h-248c-21 0 -30 7 -30 28v78c0 21 9 29 30 29h112v640h-112c-21 0 -30 8 -30 29v78c0 21 9 28 30 28h248c21 0 29 -9 29 -30z" />
    <glyph glyph-name="braceleft" unicode="{" horiz-adv-x="451" 
d="M143 358v194c0 95 76 156 227 156h11c21 0 30 -8 30 -29v-71c0 -21 -9 -30 -30 -30h-11c-41 0 -62 -11 -62 -44v-193c0 -46 -18 -75 -52 -92c34 -18 52 -47 52 -92v-201c0 -33 21 -44 62 -44h11c21 0 30 -9 30 -30v-71c0 -21 -9 -29 -30 -29h-11c-151 0 -227 61 -227 156
v202c0 33 -21 44 -62 44h-1c-21 0 -30 9 -30 30v70c0 21 9 30 30 30h1c41 0 62 11 62 44z" />
    <glyph glyph-name="braceright" unicode="}" horiz-adv-x="451" 
d="M308 552v-194c0 -33 21 -44 62 -44h1c21 0 30 -9 30 -30v-70c0 -21 -9 -30 -30 -30h-1c-41 0 -62 -11 -62 -44v-202c0 -95 -76 -156 -227 -156h-11c-21 0 -30 8 -30 29v71c0 21 9 30 30 30h11c41 0 62 11 62 44v201c0 45 18 74 52 92c-34 17 -52 46 -52 92v193
c0 33 -21 44 -62 44h-11c-21 0 -30 9 -30 30v71c0 21 9 29 30 29h11c151 0 227 -61 227 -156z" />
    <glyph glyph-name="asterisk" unicode="*" horiz-adv-x="555" 
d="M306 258h-53c-21 0 -30 9 -28 30l10 117l-104 -67c-17 -11 -30 -8 -40 11l-24 47c-10 20 -8 30 13 39l100 42l-100 43c-21 9 -23 19 -13 39l24 47c10 19 23 22 40 11l105 -68l-11 129c-2 22 8 30 29 30h53c21 0 30 -9 28 -30l-11 -125l100 64c18 12 31 8 40 -10l25 -48
c9 -18 8 -30 -13 -39l-101 -43l101 -42c21 -9 22 -21 13 -39l-25 -48c-9 -18 -22 -22 -40 -10l-99 63l10 -113c2 -22 -8 -30 -29 -30z" />
    <glyph glyph-name="dagger" unicode="&#x2020;" horiz-adv-x="724" 
d="M442 669v-639c0 -21 -7 -30 -28 -30h-103c-21 0 -29 9 -29 30v639c0 21 8 30 29 30h103c21 0 28 -9 28 -30zM90 520h132c21 0 30 -7 30 -28v-73c0 -21 -9 -29 -30 -29h-132c-21 0 -30 8 -30 29v73c0 21 9 28 30 28zM502 520h132c21 0 30 -7 30 -28v-73
c0 -21 -9 -29 -30 -29h-132c-21 0 -30 8 -30 29v73c0 21 9 28 30 28z" />
    <glyph glyph-name="daggerdbl" unicode="&#x2021;" horiz-adv-x="724" 
d="M442 669v-639c0 -21 -7 -30 -28 -30h-103c-21 0 -29 9 -29 30v639c0 21 8 30 29 30h103c21 0 28 -9 28 -30zM90 520h132c21 0 30 -7 30 -28v-73c0 -21 -9 -29 -30 -29h-132c-21 0 -30 8 -30 29v73c0 21 9 28 30 28zM502 520h132c21 0 30 -7 30 -28v-73
c0 -21 -9 -29 -30 -29h-132c-21 0 -30 8 -30 29v73c0 21 9 28 30 28zM90 305h132c21 0 30 -7 30 -28v-73c0 -21 -9 -29 -30 -29h-132c-21 0 -30 8 -30 29v73c0 21 9 28 30 28zM502 305h132c21 0 30 -7 30 -28v-73c0 -21 -9 -29 -30 -29h-132c-21 0 -30 8 -30 29v73
c0 21 9 28 30 28z" />
    <glyph glyph-name="section" unicode="&#xa7;" horiz-adv-x="553" 
d="M476 284v-67c0 -21 -8 -29 -29 -29h-90c-21 0 -29 8 -29 29v51c0 16 -10 29 -29 35l-140 44c-55 17 -99 56 -99 131v52c0 90 66 158 217 158s216 -56 216 -151v-7c0 -21 -8 -29 -29 -29h-90c-21 0 -29 8 -29 29v15c0 33 -21 41 -63 41s-64 -9 -64 -42v-57
c0 -16 20 -26 39 -32l122 -39c56 -18 97 -67 97 -132zM77 205v67c0 21 8 29 29 29h90c21 0 29 -8 29 -29v-51c0 -16 10 -29 29 -35l140 -44c55 -17 99 -56 99 -131v-52c0 -90 -66 -158 -217 -158s-216 56 -216 151v7c0 21 8 29 29 29h90c21 0 29 -8 29 -29v-15
c0 -33 21 -41 63 -41s64 9 64 42v57c0 16 -20 26 -39 32l-122 39c-56 18 -97 67 -97 132z" />
    <glyph glyph-name="paragraph" unicode="&#xb6;" horiz-adv-x="716" 
d="M432 650v-819c0 -21 -7 -30 -28 -30h-108c-21 0 -29 9 -29 30v451h-14c-152 0 -193 55 -193 131v136c0 76 41 131 193 131h151c21 0 28 -9 28 -30zM656 650v-819c0 -21 -7 -30 -28 -30h-108c-21 0 -29 9 -29 30v819c0 21 8 30 29 30h108c21 0 28 -9 28 -30z" />
    <glyph glyph-name="asciicircum" unicode="^" horiz-adv-x="586" 
d="M373 295l-81 230l-80 -230c-6 -18 -12 -30 -33 -30h-98c-21 0 -37 10 -29 30l151 358c6 15 11 27 32 27h115c21 0 26 -12 32 -27l151 -358c8 -20 -8 -30 -29 -30h-98c-21 0 -27 12 -33 30z" />
    <glyph glyph-name="asciitilde" unicode="~" horiz-adv-x="512" 
d="M182 253c-16 0 -20 -17 -22 -27l-1 -4c-5 -21 -13 -26 -32 -26h-52c-20 0 -26 12 -24 34l5 56c6 65 51 89 88 89c18 0 43 -3 60 -11l89 -40c17 -7 28 -11 39 -11c9 0 16 12 19 24l1 4c5 20 12 26 32 26h52c22 0 28 -13 25 -34l-6 -46c-9 -67 -46 -98 -88 -98
c-25 0 -52 8 -65 14l-89 41c-15 7 -23 9 -31 9z" />
    <glyph glyph-name="brokenbar" unicode="&#xa6;" 
d="M210 650v-306c0 -21 -7 -30 -28 -30h-103c-21 0 -29 9 -29 30v306c0 21 8 30 29 30h103c21 0 28 -9 28 -30zM210 125v-306c0 -21 -7 -30 -28 -30h-103c-21 0 -29 9 -29 30v306c0 21 8 30 29 30h103c21 0 28 -9 28 -30z" />
    <glyph glyph-name="backslash" unicode="\" horiz-adv-x="365" 
d="M193 -118l-191 787c-5 19 2 30 23 30h113c21 0 29 -10 34 -30l191 -787c5 -20 -5 -30 -23 -30h-113c-21 0 -29 9 -34 30z" />
    <glyph glyph-name="underscore" unicode="_" horiz-adv-x="467" 
d="M50 -69h367c21 0 30 -7 30 -28v-73c0 -21 -9 -29 -30 -29h-367c-21 0 -30 8 -30 29v73c0 21 9 28 30 28z" />
    <glyph glyph-name="at" unicode="@" horiz-adv-x="1002" 
d="M672 -162h-171c-386 0 -441 128 -441 247v332c0 119 55 247 441 247s441 -128 441 -247v-211c0 -99 -56 -173 -212 -173c-90 0 -139 27 -165 61c-24 -21 -75 -61 -156 -61c-92 0 -128 47 -128 128c0 8 0 17 1 26l10 117c8 99 58 154 144 154c49 0 100 -25 131 -46l2 8
c5 21 11 30 32 30h91c21 0 28 -10 26 -30l-19 -182c-5 -48 -7 -91 41 -91c43 0 47 38 47 81v182c0 81 -47 127 -286 127s-286 -47 -286 -128v-316c0 -81 47 -128 286 -128h171c21 0 30 -9 30 -30v-68c0 -21 -9 -29 -30 -29zM444 272l-5 -57c-2 -20 5 -38 39 -38
c24 0 45 7 62 15v1l10 101c-16 12 -38 25 -62 25c-35 0 -42 -27 -44 -47z" />
    <glyph glyph-name="copyright" unicode="&#xa9;" horiz-adv-x="802" 
d="M742 432v-183c0 -119 -36 -257 -341 -257s-341 138 -341 257v183c0 119 36 256 341 256s341 -137 341 -256zM627 226v229c0 81 -66 137 -226 137s-226 -57 -226 -138v-227c0 -81 66 -138 226 -138s226 56 226 137zM403 545c134 0 181 -51 181 -146v-6
c0 -21 -8 -29 -29 -29h-83c-21 0 -29 8 -29 29v3c0 33 -18 43 -40 43c-23 0 -40 -10 -40 -43v-111c0 -33 17 -44 40 -44c22 0 40 11 40 44v9c0 21 8 29 29 29h83c21 0 29 -8 29 -29v-14c0 -95 -48 -146 -182 -146c-133 0 -181 51 -181 146v119c0 95 49 146 182 146z" />
    <glyph glyph-name="registered" unicode="&#xae;" horiz-adv-x="657" 
d="M597 511v-188c0 -74 -27 -177 -268 -177s-269 103 -269 177v188c0 74 28 177 269 177s268 -103 268 -177zM493 313v208c0 47 -35 77 -164 77s-165 -31 -165 -78v-206c0 -47 36 -78 165 -78s164 30 164 77zM461 453c0 -25 -6 -52 -32 -70l31 -82c4 -12 -4 -21 -20 -21h-65
c-12 0 -14 7 -19 21l-25 64h-19v-64c0 -14 -6 -21 -20 -21h-66c-14 0 -20 7 -20 21v234c0 14 6 20 20 20h121c98 0 114 -46 114 -87v-15zM335 480h-23v-39h23s19 2 19 15v8c0 16 -17 16 -19 16z" />
    <glyph glyph-name="trademark" unicode="&#x2122;" horiz-adv-x="933" 
d="M873 655v-358c0 -18 -6 -25 -24 -25h-81c-18 0 -24 7 -24 25v139c-1 -2 -6 -19 -10 -29l-22 -49c-7 -15 -15 -24 -32 -24h-56c-18 0 -27 9 -34 24l-25 51c-6 13 -10 30 -11 34v-146c0 -18 -6 -25 -23 -25h-77c-18 0 -25 7 -25 25v358c0 18 7 25 25 25h77
c11 0 17 -3 21 -11l82 -152c6 -11 12 -24 17 -37c5 13 10 24 15 34l80 155c3 7 10 11 22 11h81c18 0 24 -7 24 -25zM85 680h276c18 0 25 -6 25 -23v-64c0 -18 -7 -24 -25 -24h-70v-272c0 -18 -6 -25 -24 -25h-87c-18 0 -24 7 -24 25v272h-71c-18 0 -25 6 -25 24v64
c0 17 7 23 25 23z" />
    <glyph glyph-name="currency" unicode="&#xa4;" horiz-adv-x="665" 
d="M90 316h23v44h-23c-21 0 -30 8 -30 29v43c0 21 9 28 30 28h23v57c0 86 58 171 246 171s246 -85 246 -171v-46c0 -21 -7 -30 -28 -30h-103c-21 0 -29 9 -29 30v17c0 46 -35 65 -84 65s-83 -19 -83 -65v-28h73c21 0 30 -7 30 -28v-43c0 -21 -9 -29 -30 -29h-73v-44h73
c21 0 30 -7 30 -28v-43c0 -21 -9 -29 -30 -29h-73v-24c0 -46 34 -65 83 -65s84 19 84 65v32c0 21 8 30 29 30h103c21 0 28 -9 28 -30v-61c0 -86 -58 -171 -246 -171s-246 85 -246 171v53h-23c-21 0 -30 8 -30 29v43c0 21 9 28 30 28z" />
    <glyph glyph-name="Euro" unicode="&#x20ac;" horiz-adv-x="665" 
d="M90 316h23v44h-23c-21 0 -30 8 -30 29v43c0 21 9 28 30 28h23v57c0 86 58 171 246 171s246 -85 246 -171v-46c0 -21 -7 -30 -28 -30h-103c-21 0 -29 9 -29 30v17c0 46 -35 65 -84 65s-83 -19 -83 -65v-28h73c21 0 30 -7 30 -28v-43c0 -21 -9 -29 -30 -29h-73v-44h73
c21 0 30 -7 30 -28v-43c0 -21 -9 -29 -30 -29h-73v-24c0 -46 34 -65 83 -65s84 19 84 65v32c0 21 8 30 29 30h103c21 0 28 -9 28 -30v-61c0 -86 -58 -171 -246 -171s-246 85 -246 171v53h-23c-21 0 -30 8 -30 29v43c0 21 9 28 30 28z" />
    <glyph glyph-name="dollar" unicode="$" horiz-adv-x="540" 
d="M328 442v14c0 27 -27 32 -55 32s-54 -5 -54 -32v-5c0 -15 11 -23 21 -27l140 -50c67 -24 100 -60 100 -108v-48c0 -52 -35 -105 -123 -127v-61c0 -21 -7 -30 -28 -30h-103c-21 0 -29 9 -29 30v58c-99 18 -137 75 -137 130v21c0 19 7 27 27 27h92c20 0 27 -8 27 -27v-14
c0 -27 33 -32 63 -32s64 5 64 32v9c0 13 -8 19 -39 31l-141 54c-37 14 -79 60 -79 109v28c0 53 31 113 123 134v60c0 21 8 30 29 30h103c21 0 28 -9 28 -30v-62c87 -22 117 -80 117 -132v-14c0 -20 -7 -28 -28 -28h-91c-20 0 -27 8 -27 28z" />
    <glyph glyph-name="cent" unicode="&#xa2;" horiz-adv-x="553" 
d="M364 650v-61c89 -20 129 -73 129 -147v-15c0 -21 -8 -29 -29 -29h-95c-21 0 -29 8 -29 29v3c0 33 -18 43 -60 43s-60 -10 -60 -43v-179c0 -33 18 -44 60 -44s60 11 60 44v12c0 21 8 29 29 29h95c21 0 29 -8 29 -29v-25c0 -74 -40 -127 -129 -147v-61
c0 -21 -7 -30 -28 -30h-103c-21 0 -29 9 -29 30v57c-100 17 -144 73 -144 151v204c0 78 44 133 144 150v58c0 21 8 30 29 30h103c21 0 28 -9 28 -30z" />
    <glyph glyph-name="sterling" unicode="&#xa3;" horiz-adv-x="699" 
d="M309 397h88c21 0 30 -7 30 -28v-73c0 -21 -9 -29 -30 -29h-88v-137h130c33 0 44 26 44 67v11c0 21 9 30 30 30h97c21 0 29 -9 29 -30v-11c0 -151 -61 -197 -156 -197h-393c-21 0 -30 8 -30 29v73c0 21 9 28 30 28h54v137h-54c-21 0 -30 8 -30 29v73c0 21 9 28 30 28h54
v120c0 86 60 171 235 171s236 -85 236 -171v-36c0 -21 -7 -30 -28 -30h-100c-21 0 -29 9 -29 30v7c0 46 -34 65 -77 65s-72 -19 -72 -65v-91z" />
    <glyph glyph-name="florin" unicode="&#x192;" horiz-adv-x="588" 
d="M498 578h-24c-41 0 -68 -11 -71 -44l-10 -92h61c21 0 30 -7 30 -28v-68c0 -21 -9 -29 -30 -29h-73l-38 -371c-10 -95 -92 -156 -243 -156h-10c-21 0 -30 8 -30 29v71c0 21 9 30 30 30h23c41 0 68 11 71 44l36 353h-47c-21 0 -29 8 -29 29v67c0 21 8 29 29 29h60l11 110
c10 95 92 156 243 156h11c21 0 30 -8 30 -29v-71c0 -21 -9 -30 -30 -30z" />
    <glyph glyph-name="yen" unicode="&#xa5;" horiz-adv-x="662" 
d="M542 216h-128v-186c0 -21 -7 -30 -28 -30h-108c-21 0 -29 9 -29 30v186h-128c-21 0 -30 8 -30 29v43c0 21 9 28 30 28h91l-20 44h-71c-21 0 -30 8 -30 29v43c0 21 9 28 30 28h27l-84 190c-8 18 0 30 21 30h122c21 0 30 -12 36 -30l71 -199c8 -23 16 -56 17 -60
c1 4 11 40 20 60l84 199c7 17 14 30 35 30h106c21 0 31 -11 22 -30l-88 -190h32c21 0 30 -7 30 -28v-43c0 -21 -9 -29 -30 -29h-78l-21 -44h99c21 0 30 -7 30 -28v-43c0 -21 -9 -29 -30 -29z" />
    <glyph glyph-name="ordfeminine" unicode="&#xaa;" horiz-adv-x="362" 
d="M51 590v6c0 58 44 92 136 92c95 0 135 -35 135 -97v-189c0 -14 -6 -21 -22 -21h-69c-17 0 -17 6 -22 21l-1 4c-17 -14 -42 -30 -77 -30c-65 0 -91 39 -91 79v24c0 42 38 79 105 79h59v34c0 10 -7 14 -20 14c-12 0 -20 -3 -20 -12v-4c0 -15 -7 -20 -21 -20h-70
c-16 0 -22 5 -22 20zM172 459c11 0 26 11 32 16v15h-34c-9 0 -12 -6 -12 -11v-9c0 -8 4 -11 14 -11z" />
    <glyph glyph-name="ordmasculine" unicode="&#xba;" horiz-adv-x="378" 
d="M40 476v111c0 62 54 101 149 101c94 0 149 -39 149 -101v-111c0 -62 -55 -100 -149 -100c-95 0 -149 38 -149 100zM216 486v93c0 16 -15 18 -27 18s-28 -2 -28 -18v-93c0 -17 16 -20 28 -20s27 3 27 20z" />
    <glyph glyph-name="degree" unicode="&#xb0;" horiz-adv-x="449" 
d="M50 475v94c0 73 42 119 175 119c132 0 174 -46 174 -119v-94c0 -73 -42 -119 -174 -119c-133 0 -175 46 -175 119zM265 481v83c0 18 -22 22 -41 22c-18 0 -40 -4 -40 -22v-83c0 -19 22 -23 40 -23c19 0 41 4 41 23z" />
    <glyph glyph-name="numbersign" unicode="#" horiz-adv-x="690" 
d="M90 273h63l17 59h-30c-21 0 -30 8 -30 29v53c0 21 9 28 30 28h62l20 70c5 18 15 30 36 30h73c21 0 26 -13 21 -30l-20 -70h109l20 70c5 18 15 30 36 30h73c21 0 26 -13 21 -30l-20 -70h29c21 0 30 -7 30 -28v-53c0 -21 -9 -29 -30 -29h-61l-17 -59h28c21 0 30 -7 30 -28
v-53c0 -21 -9 -29 -30 -29h-60l-20 -71c-6 -20 -15 -30 -36 -30h-73c-18 0 -27 10 -21 30l20 71h-109l-20 -71c-6 -20 -15 -30 -36 -30h-73c-18 0 -27 10 -21 30l20 71h-31c-21 0 -30 8 -30 29v53c0 21 9 28 30 28zM300 332l-17 -59h109l17 59h-109z" />
    <glyph glyph-name="zero" unicode="0" horiz-adv-x="571" 
d="M40 163v354c0 86 65 171 245 171s246 -85 246 -171v-354c0 -86 -66 -171 -246 -171s-245 85 -245 171zM366 192v296c0 46 -34 65 -81 65s-80 -19 -80 -65v-296c0 -46 33 -65 80 -65s81 19 81 65z" />
    <glyph glyph-name="one" unicode="1" horiz-adv-x="571" 
d="M91 647l261 41c13 2 28 0 28 -28v-525h119c21 0 30 -7 30 -28v-78c0 -21 -9 -29 -30 -29h-408c-21 0 -30 8 -30 29v78c0 21 9 28 30 28h124v395l-124 -18c-19 -3 -30 4 -30 25v78c0 21 11 29 30 32z" />
    <glyph glyph-name="two" unicode="2" horiz-adv-x="571" 
d="M221 135h279c21 0 30 -7 30 -28v-78c0 -21 -9 -29 -30 -29h-414c-21 0 -30 8 -30 29v180c0 54 25 71 61 88l213 97c18 8 32 20 32 53v44c0 46 -34 65 -81 65s-80 -19 -80 -65v-36c0 -21 -7 -30 -28 -30h-103c-21 0 -29 9 -29 30v62c0 86 60 171 240 171s243 -85 244 -171
v-64c0 -105 -52 -146 -97 -166l-169 -77c-31 -14 -38 -21 -38 -50v-25z" />
    <glyph glyph-name="three" unicode="3" horiz-adv-x="571" 
d="M211 411h61c49 0 83 19 83 65v17c0 46 -26 65 -75 65s-76 -19 -76 -65v-12c0 -21 -8 -30 -29 -30h-103c-21 0 -28 9 -28 30v36c0 86 50 171 238 171c186 0 235 -81 235 -167v-70c0 -49 -20 -81 -70 -100c57 -25 80 -64 80 -114v-78c0 -86 -56 -167 -242 -167
c-188 0 -245 85 -245 171v36c0 21 7 30 28 30h103c21 0 29 -9 29 -30v-12c0 -46 34 -65 83 -65s82 19 82 65v30c0 46 -34 64 -83 64h-71c-21 0 -30 8 -30 29v73c0 21 9 28 30 28z" />
    <glyph glyph-name="four" unicode="4" horiz-adv-x="571" 
d="M296 650l-100 -344h155v344c0 21 8 30 29 30h108c21 0 28 -9 28 -30v-620c0 -21 -7 -30 -28 -30h-108c-21 0 -29 9 -29 30v141h-295c-21 0 -30 8 -30 29v77c0 7 2 14 3 18l102 355c5 19 15 30 36 30h108c21 0 26 -12 21 -30z" />
    <glyph glyph-name="five" unicode="5" horiz-adv-x="571" 
d="M98 680h381c21 0 30 -7 30 -28v-78c0 -21 -9 -29 -30 -29h-244v-98h49c188 0 247 -84 247 -170v-115c0 -86 -58 -171 -246 -171s-246 85 -246 171v36c0 21 7 30 28 30h103c21 0 29 -9 29 -30v-12c0 -46 35 -65 84 -65s83 19 83 65v67c0 46 -34 64 -83 64h-185
c-21 0 -28 9 -28 30v303c0 21 7 30 28 30z" />
    <glyph glyph-name="six" unicode="6" horiz-adv-x="571" 
d="M47 163v354c0 86 57 171 237 171s233 -85 233 -171v-30c0 -21 -8 -30 -29 -30h-103c-21 0 -28 9 -28 30v6c0 46 -26 65 -73 65s-74 -19 -74 -65v-95c28 13 61 22 98 22c153 0 216 -85 216 -171v-86c0 -86 -59 -171 -239 -171s-238 85 -238 171zM361 187v38
c0 46 -29 65 -76 65c-45 0 -75 -18 -75 -59v-44c0 -46 28 -65 75 -65s76 19 76 65z" />
    <glyph glyph-name="seven" unicode="7" horiz-adv-x="571" 
d="M67 680h446c21 0 30 -7 30 -28v-76c0 -9 -3 -17 -5 -22l-237 -524c-7 -15 -16 -30 -37 -30h-122c-21 0 -30 9 -20 30l235 515h-290c-21 0 -30 8 -30 29v78c0 21 9 28 30 28z" />
    <glyph glyph-name="eight" unicode="8" horiz-adv-x="571" 
d="M60 451v66c0 86 45 171 225 171s226 -85 226 -171v-66c0 -46 -24 -80 -68 -102c50 -22 80 -56 80 -103v-83c0 -86 -58 -171 -238 -171s-237 85 -237 171v83c0 47 29 81 79 103c-43 22 -67 56 -67 102zM361 187v33c0 46 -29 63 -76 63s-75 -17 -75 -63v-33
c0 -46 28 -65 75 -65s76 19 76 65zM351 477v16c0 46 -22 65 -66 65s-65 -19 -65 -65v-16c0 -46 21 -65 65 -65s66 19 66 65z" />
    <glyph glyph-name="nine" unicode="9" horiz-adv-x="571" 
d="M524 517v-354c0 -86 -57 -171 -237 -171s-233 85 -233 171v30c0 21 8 30 29 30h103c21 0 28 -9 28 -30v-6c0 -46 26 -65 73 -65s74 19 74 65v94c-28 -13 -62 -21 -98 -21c-153 0 -216 85 -216 171v86c0 86 59 171 239 171s238 -85 238 -171zM361 455v39
c-1 45 -29 64 -75 64c-47 0 -76 -19 -76 -65v-38c0 -46 29 -65 76 -65s75 19 75 65z" />
    <glyph glyph-name="onesuperior" unicode="&#xb9;" horiz-adv-x="374" 
d="M62 664l169 23c9 1 20 1 20 -20v-297h62c15 0 21 -4 21 -20v-56c0 -15 -6 -21 -21 -21h-250c-17 0 -23 6 -23 21v56c0 16 6 20 23 20h64v206l-65 -7c-15 -2 -22 2 -22 18v56c0 14 7 19 22 21z" />
    <glyph glyph-name="twosuperior" unicode="&#xb2;" horiz-adv-x="395" 
d="M175 372h158c15 0 22 -4 22 -20v-56c0 -15 -7 -21 -22 -21h-260c-16 0 -22 6 -22 21v104c0 31 6 40 31 53l134 65c11 6 13 11 13 28v15c0 24 -23 32 -35 32c-13 0 -34 -8 -34 -32v-19c0 -16 -5 -22 -20 -22h-79c-15 0 -21 6 -21 22v38c0 52 41 108 154 108
c112 0 156 -56 157 -108v-28c0 -69 -30 -94 -60 -110l-110 -56c-3 -1 -6 -4 -6 -7v-7z" />
    <glyph glyph-name="threesuperior" unicode="&#xb3;" horiz-adv-x="393" 
d="M157 528h30c15 0 37 8 37 32v3c0 24 -15 32 -30 32s-31 -8 -31 -32v-4c0 -14 -6 -21 -21 -21h-79c-16 0 -21 7 -21 21v22c0 52 33 108 154 108c118 0 151 -53 151 -106v-41c0 -28 -13 -46 -38 -57c30 -17 44 -40 44 -69v-40c0 -52 -36 -105 -155 -105
c-120 0 -158 56 -158 108v22c0 15 5 21 21 21h78c16 0 22 -6 22 -21v-4c0 -24 20 -32 35 -32s36 8 36 32v5c0 25 -23 32 -38 32h-37c-15 0 -22 6 -22 20v53c0 16 7 21 22 21z" />
    <glyph glyph-name="fraction" unicode="&#x2044;" horiz-adv-x="458" 
d="M464 650l-328 -620c-11 -21 -22 -30 -43 -30h-86c-18 0 -21 18 -14 30l328 620c8 16 22 30 43 30h86c18 0 23 -14 14 -30z" />
    <glyph glyph-name="onequarter" unicode="&#xbc;" horiz-adv-x="923" 
d="M745 387l-49 -197h63v197c0 14 6 21 21 21h82c16 0 21 -7 21 -21v-366c0 -14 -5 -21 -21 -21h-82c-15 0 -21 7 -21 21v72h-169c-15 0 -23 6 -23 21v46c0 11 3 21 6 34l48 193c3 13 10 21 26 21h82c16 0 19 -8 16 -21zM62 664l169 23c9 1 20 1 20 -20v-297h62
c15 0 21 -4 21 -20v-56c0 -15 -6 -21 -21 -21h-250c-17 0 -23 6 -23 21v56c0 16 6 20 23 20h64v206l-65 -7c-15 -2 -22 2 -22 18v56c0 14 7 19 22 21zM619 708l-172 -736c-3 -14 -8 -21 -24 -21h-86c-13 0 -20 7 -17 21l172 736c3 14 8 21 25 21h85c15 0 20 -8 17 -21z" />
    <glyph glyph-name="onehalf" unicode="&#xbd;" horiz-adv-x="921" 
d="M609 708l-172 -736c-3 -14 -8 -21 -24 -21h-86c-13 0 -20 7 -17 21l172 736c3 14 8 21 25 21h85c15 0 20 -8 17 -21zM701 97h158c15 0 22 -4 22 -20v-56c0 -15 -7 -21 -22 -21h-260c-16 0 -22 6 -22 21v104c0 31 6 40 31 53l134 65c11 6 13 11 13 28v15
c0 24 -23 32 -35 32c-13 0 -34 -8 -34 -32v-19c0 -16 -5 -22 -20 -22h-79c-15 0 -21 6 -21 22v38c0 52 41 108 154 108c112 0 156 -56 157 -108v-28c0 -69 -30 -94 -60 -110l-110 -56c-3 -1 -6 -4 -6 -7v-7zM62 664l169 23c9 1 20 1 20 -20v-297h62c15 0 21 -4 21 -20v-56
c0 -15 -6 -21 -21 -21h-250c-17 0 -23 6 -23 21v56c0 16 6 20 23 20h64v206l-65 -7c-15 -2 -22 2 -22 18v56c0 14 7 19 22 21z" />
    <glyph glyph-name="threequarters" unicode="&#xbe;" horiz-adv-x="938" 
d="M157 527h30c15 0 37 8 37 32v3c0 24 -15 32 -30 32s-31 -8 -31 -32v-4c0 -14 -6 -21 -21 -21h-79c-16 0 -21 7 -21 21v22c0 52 33 108 154 108c118 0 151 -53 151 -106v-41c0 -28 -13 -46 -38 -57c30 -17 44 -40 44 -69v-40c0 -52 -36 -105 -155 -105
c-120 0 -158 56 -158 108v22c0 15 5 21 21 21h78c16 0 22 -6 22 -21v-4c0 -24 20 -32 35 -32s36 8 36 32v5c0 25 -23 32 -38 32h-37c-15 0 -22 6 -22 20v53c0 16 7 21 22 21zM634 708l-172 -736c-3 -14 -8 -21 -24 -21h-86c-13 0 -20 7 -17 21l172 736c3 14 8 21 25 21h85
c15 0 21 -8 17 -21zM760 387l-49 -197h63v197c0 14 6 21 21 21h82c16 0 21 -7 21 -21v-366c0 -14 -5 -21 -21 -21h-82c-15 0 -21 7 -21 21v72h-169c-15 0 -23 6 -23 21v46c0 11 3 21 6 34l48 193c3 13 10 21 26 21h82c16 0 19 -8 16 -21z" />
    <glyph glyph-name="percent" unicode="%" horiz-adv-x="912" 
d="M60 475v94c0 73 49 119 166 119c116 0 165 -46 165 -119v-94c0 -73 -49 -119 -165 -119c-117 0 -166 46 -166 119zM261 481v83c0 18 -17 22 -36 22c-18 0 -35 -4 -35 -22v-83c0 -19 17 -23 35 -23c19 0 36 4 36 23zM722 115v83c0 18 -17 22 -36 22c-18 0 -35 -4 -35 -22
v-83c0 -19 17 -23 35 -23c19 0 36 4 36 23zM521 109v94c0 73 49 119 166 119c116 0 165 -46 165 -119v-94c0 -73 -49 -119 -165 -119c-117 0 -166 46 -166 119zM693 650l-328 -620c-11 -21 -22 -30 -43 -30h-86c-18 0 -21 18 -14 30l328 620c8 16 22 30 43 30h86
c18 0 23 -14 14 -30z" />
    <glyph glyph-name="perthousand" unicode="&#x2030;" horiz-adv-x="1296" 
d="M60 475v94c0 73 49 119 166 119c116 0 165 -46 165 -119v-94c0 -73 -49 -119 -165 -119c-117 0 -166 46 -166 119zM261 481v83c0 18 -17 22 -36 22c-18 0 -35 -4 -35 -22v-83c0 -19 17 -23 35 -23c19 0 36 4 36 23zM722 115v83c0 18 -17 22 -36 22c-18 0 -35 -4 -35 -22
v-83c0 -19 17 -23 35 -23c19 0 36 4 36 23zM521 109v94c0 73 49 119 166 119c116 0 165 -46 165 -119v-94c0 -73 -49 -119 -165 -119c-117 0 -166 46 -166 119zM1106 115v83c0 18 -17 22 -36 22c-18 0 -35 -4 -35 -22v-83c0 -19 17 -23 35 -23c19 0 36 4 36 23zM905 109v94
c0 73 49 119 166 119c116 0 165 -46 165 -119v-94c0 -73 -49 -119 -165 -119c-117 0 -166 46 -166 119zM693 650l-328 -620c-11 -21 -22 -30 -43 -30h-86c-18 0 -21 18 -14 30l328 620c8 16 22 30 43 30h86c18 0 23 -14 14 -30z" />
    <glyph glyph-name="plus" unicode="+" horiz-adv-x="551" 
d="M210 143v130h-130c-21 0 -30 8 -30 29v73c0 21 9 28 30 28h130v131c0 21 7 30 28 30h73c21 0 29 -9 29 -30v-131h131c21 0 30 -7 30 -28v-73c0 -21 -9 -29 -30 -29h-131v-130c0 -21 -8 -30 -29 -30h-73c-21 0 -28 9 -28 30z" />
    <glyph glyph-name="minus" unicode="&#x2212;" horiz-adv-x="577" 
d="M80 389h417c21 0 30 -7 30 -28v-73c0 -21 -9 -29 -30 -29h-417c-21 0 -30 8 -30 29v73c0 21 9 28 30 28z" />
    <glyph glyph-name="plusminus" unicode="&#xb1;" horiz-adv-x="551" 
d="M210 237v80h-130c-21 0 -30 8 -30 29v73c0 21 9 28 30 28h130v81c0 21 7 30 28 30h73c21 0 29 -9 29 -30v-81h131c21 0 30 -7 30 -28v-73c0 -21 -9 -29 -30 -29h-131v-80c0 -21 -8 -30 -29 -30h-73c-21 0 -28 9 -28 30zM80 153h391c21 0 30 -7 30 -28v-73
c0 -21 -9 -29 -30 -29h-391c-21 0 -30 8 -30 29v73c0 21 9 28 30 28z" />
    <glyph glyph-name="multiply" unicode="&#xd7;" horiz-adv-x="540" 
d="M311 137l-65 112l-113 -65c-18 -10 -29 -8 -40 11l-36 63c-10 18 -7 28 12 39l112 65l-65 113c-11 19 -9 30 9 40l63 37c19 11 30 7 41 -12l65 -113l113 65c19 11 30 9 40 -9l37 -63c11 -19 7 -30 -12 -41l-113 -65l65 -113c10 -18 8 -29 -11 -40l-63 -36
c-18 -10 -28 -7 -39 12z" />
    <glyph glyph-name="divide" unicode="&#xf7;" horiz-adv-x="577" 
d="M80 353h417c21 0 30 -7 30 -28v-73c0 -21 -9 -29 -30 -29h-417c-21 0 -30 8 -30 29v73c0 21 9 28 30 28zM370 146v-83c0 -21 -7 -29 -28 -29h-106c-21 0 -29 8 -29 29v83c0 21 8 30 29 30h106c21 0 28 -9 28 -30zM370 512v-83c0 -21 -7 -29 -28 -29h-106
c-21 0 -29 8 -29 29v83c0 21 8 30 29 30h106c21 0 28 -9 28 -30z" />
    <glyph glyph-name="equal" unicode="=" horiz-adv-x="577" 
d="M80 490h417c21 0 30 -7 30 -28v-73c0 -21 -9 -29 -30 -29h-417c-21 0 -30 8 -30 29v73c0 21 9 28 30 28zM80 274h417c21 0 30 -7 30 -28v-73c0 -21 -9 -29 -30 -29h-417c-21 0 -30 8 -30 29v73c0 21 9 28 30 28z" />
    <glyph glyph-name="notequal" unicode="&#x2260;" horiz-adv-x="577" 
d="M80 490h194l19 50c7 20 16 30 37 30h96c21 0 27 -11 20 -30l-19 -50h70c21 0 30 -7 30 -28v-73c0 -21 -9 -29 -30 -29h-118l-31 -86h149c21 0 30 -7 30 -28v-73c0 -21 -9 -29 -30 -29h-197l-18 -49c-8 -21 -17 -30 -38 -30h-95c-18 0 -26 10 -19 30l18 49h-68
c-21 0 -30 8 -30 29v73c0 21 9 28 30 28h115l32 86h-147c-21 0 -30 8 -30 29v73c0 21 9 28 30 28z" />
    <glyph glyph-name="approxequal" unicode="&#x2248;" horiz-adv-x="512" 
d="M182 365c-16 0 -20 -17 -22 -27l-1 -4c-5 -21 -13 -26 -32 -26h-52c-20 0 -26 12 -24 34l5 56c6 65 51 89 88 89c18 0 43 -3 60 -11l89 -40c17 -7 28 -11 39 -11c9 0 16 12 19 24l1 4c5 20 12 26 32 26h52c22 0 28 -13 25 -34l-6 -46c-9 -67 -46 -98 -88 -98
c-25 0 -52 8 -65 14l-89 41c-15 7 -23 9 -31 9zM182 163c-16 0 -20 -17 -22 -27l-1 -4c-5 -21 -13 -26 -32 -26h-52c-20 0 -26 12 -24 34l5 56c6 65 51 89 88 89c18 0 43 -3 60 -11l89 -40c17 -7 28 -11 39 -11c9 0 16 12 19 24l1 4c5 20 12 26 32 26h52c22 0 28 -13 25 -34
l-6 -46c-9 -67 -46 -98 -88 -98c-25 0 -52 8 -65 14l-89 41c-15 7 -23 9 -31 9z" />
    <glyph glyph-name="less" unicode="&#x3c;" horiz-adv-x="515" 
d="M435 419l-230 -81l230 -80c18 -6 30 -12 30 -33v-98c0 -21 -10 -37 -30 -29l-358 151c-15 6 -27 11 -27 32v115c0 21 12 26 27 32l358 151c20 8 30 -8 30 -29v-98c0 -21 -12 -27 -30 -33z" />
    <glyph glyph-name="greater" unicode="&#x3e;" horiz-adv-x="515" 
d="M310 338l-230 81c-18 6 -30 12 -30 33v98c0 21 10 37 30 29l358 -151c15 -6 27 -11 27 -32v-115c0 -21 -12 -26 -27 -32l-358 -151c-20 -8 -30 8 -30 29v98c0 21 12 27 30 33z" />
    <glyph glyph-name="lessequal" unicode="&#x2264;" horiz-adv-x="515" 
d="M435 493l-230 -61l230 -60c18 -5 30 -12 30 -33v-98c0 -21 -9 -37 -30 -29l-358 131c-15 6 -27 11 -27 32v115c0 21 12 26 27 32l358 131c20 7 30 -8 30 -29v-98c0 -21 -12 -28 -30 -33zM80 180h355c21 0 30 -7 30 -28v-73c0 -21 -9 -29 -30 -29h-355c-21 0 -30 8 -30 29
v73c0 21 9 28 30 28z" />
    <glyph glyph-name="greaterequal" unicode="&#x2265;" horiz-adv-x="515" 
d="M310 432l-230 61c-18 5 -30 12 -30 33v98c0 21 10 36 30 29l358 -131c15 -6 27 -11 27 -32v-115c0 -21 -12 -26 -27 -32l-358 -131c-21 -8 -30 8 -30 29v98c0 21 12 28 30 33zM80 180h355c21 0 30 -7 30 -28v-73c0 -21 -9 -29 -30 -29h-355c-21 0 -30 8 -30 29v73
c0 21 9 28 30 28z" />
    <glyph glyph-name="mu" unicode="&#x3bc;" horiz-adv-x="547" 
d="M343 29l-2 16c-26 -22 -71 -53 -143 -53h-1l8 -161c1 -21 -7 -30 -28 -30h-103c-21 0 -29 9 -29 30v639c0 21 8 30 29 30h101c21 0 30 -9 30 -30v-298c0 -31 6 -43 38 -43c38 0 75 24 94 39v302c0 21 7 30 28 30h103c21 0 29 -9 29 -30v-441c0 -21 -8 -29 -29 -29h-96
c-21 0 -27 8 -29 29z" />
    <glyph glyph-name="logicalnot" unicode="&#xac;" horiz-adv-x="410" 
d="M73 323c0 73 58 132 131 132s132 -59 132 -132s-59 -131 -132 -131s-131 58 -131 131z" />
    <glyph glyph-name="Delta" unicode="&#x394;" horiz-adv-x="410" 
d="M110 445h190c18 0 26 -8 26 -26v-190c0 -18 -8 -26 -26 -26h-190c-18 0 -26 8 -26 26v190c0 18 8 26 26 26z" />
    <glyph glyph-name="Omega" unicode="&#x3a9;" horiz-adv-x="410" 
d="M62 323c0 78 64 143 142 143s143 -65 143 -143s-65 -142 -143 -142s-142 64 -142 142zM83 323c0 -68 53 -121 121 -121c67 0 122 53 122 121c0 67 -55 122 -122 122c-68 0 -121 -55 -121 -122z" />
    <glyph glyph-name="pi" unicode="&#x3c0;" horiz-adv-x="410" 
d="M61 461h287c18 0 19 -21 9 -37l-134 -217c-9 -14 -27 -14 -36 0l-134 217c-10 16 -11 37 8 37z" />
    <glyph glyph-name="infinity" unicode="&#x221e;" horiz-adv-x="410" 
d="M45 349l135 135c9 9 17 13 25 13s16 -4 25 -13l135 -135c9 -9 13 -17 13 -25s-4 -16 -13 -25l-135 -135c-9 -9 -17 -14 -25 -14s-16 5 -25 14l-135 135c-9 9 -14 17 -14 25s5 16 14 25zM194 469l-134 -134c-4 -4 -6 -8 -6 -12c0 -3 2 -7 5 -10l135 -135c3 -4 7 -5 11 -5
s7 1 11 5l135 135c3 3 5 7 5 10c0 4 -2 8 -6 12l-134 134c-4 3 -7 5 -11 5s-8 -2 -11 -5z" />
    <glyph glyph-name="partialdiff" unicode="&#x2202;" horiz-adv-x="410" 
d="M85 183v287c0 18 21 19 37 9l217 -134c14 -9 14 -27 0 -36l-217 -134c-16 -10 -37 -11 -37 8z" />
    <glyph glyph-name="integral" unicode="&#x222b;" horiz-adv-x="410" 
d="M20 323c0 102 82 185 184 185s185 -83 185 -185s-83 -184 -185 -184s-184 82 -184 184z" />
    <glyph glyph-name="radical" unicode="&#x221a;" horiz-adv-x="410" 
d="M110 455h190c26 0 36 -10 36 -36v-190c0 -26 -10 -36 -36 -36h-190c-26 0 -36 10 -36 36v190c0 26 10 36 36 36zM300 434h-190c-10 0 -16 -5 -16 -15v-190c0 -10 6 -16 16 -16h190c10 0 15 6 15 16v190c0 10 -5 15 -15 15z" />
    <glyph glyph-name="summation" unicode="&#x2211;" horiz-adv-x="410" 
d="M325 470v-287c0 -19 -21 -18 -37 -8l-217 134c-14 9 -14 27 0 36l217 134c16 10 37 9 37 -9z" />
    <glyph glyph-name="product" unicode="&#x220f;" horiz-adv-x="410" 
d="M349 192h-287c-18 0 -19 21 -9 37l134 217c9 14 27 14 36 0l134 -217c10 -16 11 -37 -8 -37z" />
    <glyph glyph-name="lozenge" unicode="&#x25ca;" horiz-adv-x="410" 
d="M52 342l135 135c6 6 12 9 18 9s12 -3 18 -9l135 -135c6 -6 9 -12 9 -18s-3 -12 -9 -18l-135 -135c-6 -6 -12 -9 -18 -9s-12 3 -18 9l-135 135c-6 6 -9 12 -9 18s3 12 9 18z" />
    <glyph glyph-name="afii61289" unicode="&#x2113;" horiz-adv-x="591" 
d="M95 153v3l-6 -3c-18 -9 -30 -5 -38 14l-33 77c-9 20 -3 31 16 39c5 2 61 29 61 29v205c0 86 66 171 220 171c145 0 207 -85 207 -171c0 -139 -134 -218 -267 -283v-41c0 -46 24 -63 58 -63h121c21 0 30 -7 30 -28v-73c0 -21 -8 -29 -29 -29h-123c-157 0 -217 68 -217 153
zM255 495v-104c66 37 117 77 117 114c0 34 -25 53 -59 53s-58 -17 -58 -63z" />
    <glyph glyph-name="estimated" unicode="&#x212e;" horiz-adv-x="833" 
d="M759 340c0 -15 -7 -16 -19 -16h-517v-227c52 -41 118 -65 190 -65c106 0 175 44 235 109c3 3 8 5 12 5c10 0 19 -9 19 -21c0 -7 -4 -13 -8 -18c-60 -70 -156 -115 -258 -115c-192 0 -348 140 -348 348c0 192 156 348 348 348s346 -156 346 -348zM413 648
c-72 0 -138 -25 -190 -66v-223h381v223c-53 41 -119 66 -191 66z" />
    <glyph glyph-name="uni2206" unicode="&#x2206;" horiz-adv-x="410" 
d="M110 445h190c18 0 26 -8 26 -26v-190c0 -18 -8 -26 -26 -26h-190c-18 0 -26 8 -26 26v190c0 18 8 26 26 26z" />
    <glyph glyph-name="uni2126" unicode="&#x2126;" horiz-adv-x="410" 
d="M62 323c0 78 64 143 142 143s143 -65 143 -143s-65 -142 -143 -142s-142 64 -142 142zM83 323c0 -68 53 -121 121 -121c67 0 122 53 122 121c0 67 -55 122 -122 122c-68 0 -121 -55 -121 -122z" />
    <glyph glyph-name="uni00B5" unicode="&#xb5;" horiz-adv-x="547" 
d="M343 29l-2 16c-26 -22 -71 -53 -143 -53h-1l8 -161c1 -21 -7 -30 -28 -30h-103c-21 0 -29 9 -29 30v639c0 21 8 30 29 30h101c21 0 30 -9 30 -30v-298c0 -31 6 -43 38 -43c38 0 75 24 94 39v302c0 21 7 30 28 30h103c21 0 29 -9 29 -30v-441c0 -21 -8 -29 -29 -29h-96
c-21 0 -27 8 -29 29z" />
    <glyph glyph-name="apple" horiz-adv-x="1471" 
d="M706 320c22 0 40 -18 40 -51c0 -39 -25 -68 -87 -68v-40l3 -32c-3 -1 -20 -8 -32 -8c-6 0 -11 2 -11 8v75l-25 -3v-3c0 -37 -14 -79 -68 -79c-31 0 -41 19 -41 34c0 33 41 46 70 53v42c-5 -14 -19 -48 -46 -48c-22 0 -28 14 -28 31v3c-8 -14 -23 -33 -53 -33
c-18 0 -29 12 -29 30v101l-29 -2v4c0 7 1 20 12 20h17l-3 30c3 1 20 8 32 8c6 0 11 -2 11 -8v-29h47v-3c0 -8 -1 -21 -12 -21h-35v-86c0 -8 2 -16 13 -16s29 11 29 26v25l-3 33c3 1 20 8 32 8c6 0 11 -3 11 -9v-66c0 -5 0 -15 7 -15c9 0 27 30 26 48l-2 34c3 1 20 8 31 8
c6 0 11 -3 11 -9v-99l25 3v61l-3 36c3 1 20 8 32 8c6 0 11 -3 11 -9v-40c5 14 19 48 47 48zM375 289v-49l3 -32c-3 -1 -20 -8 -31 -8c-6 0 -11 2 -11 8v66c0 6 0 16 -8 16s-27 -30 -26 -48l2 -34c-3 -1 -20 -8 -31 -8c-6 0 -11 2 -11 8v66c0 6 0 16 -8 16
c-9 0 -26 -30 -26 -48l3 -34c-3 -1 -20 -8 -32 -8c-6 0 -11 2 -11 8v69l-3 36c3 1 20 8 32 8c6 0 11 -3 11 -9v-40c4 14 19 49 45 49c22 0 29 -15 29 -32v-17c4 14 18 49 45 49c22 0 28 -15 28 -32zM1208 332l-29 -2v4c0 7 1 20 12 20h17l-3 30c3 1 20 8 32 8
c6 0 11 -2 11 -8v-29h47v-3c0 -8 -1 -21 -12 -21h-35v-90c0 -8 3 -15 16 -15c24 0 50 11 85 11c13 0 62 -5 62 -24c0 -22 -20 -28 -27 -28c-10 0 -37 24 -71 24c-18 0 -42 -8 -76 -8c-33 0 -26 16 -29 131zM64 529v8h1338v-8h-1338zM64 0v8h1338v-8h-1338zM1066 289v-49
l2 -32c-3 -1 -20 -8 -31 -8c-6 0 -11 2 -11 8v67c0 4 0 15 -8 15c-9 0 -26 -30 -26 -48l3 -34c-3 -1 -20 -8 -32 -8c-6 0 -11 2 -11 8v69l-3 36c3 1 20 8 32 8c6 0 11 -3 11 -9v-40c5 14 19 49 45 49c22 0 29 -15 29 -32zM145 258c-16 -6 -33 -6 -44 -6c1 -14 12 -22 26 -22
c12 0 22 3 32 9c6 -4 8 -11 8 -16s-6 -23 -47 -23c-38 0 -60 22 -60 53c0 34 24 68 69 68c28 0 41 -17 41 -31c0 -16 -7 -26 -25 -32zM844 258c-16 -6 -33 -6 -44 -6c1 -14 12 -22 26 -22c12 0 22 3 32 9c6 -4 8 -11 8 -16s-6 -23 -47 -23c-38 0 -60 22 -60 53
c0 34 24 68 69 68c28 0 41 -17 41 -31c0 -16 -7 -26 -25 -32zM1167 258c-16 -6 -33 -6 -44 -6c1 -14 12 -22 26 -22c12 0 22 3 32 9c6 -4 8 -11 8 -16s-6 -23 -47 -23c-38 0 -60 22 -60 53c0 34 24 68 69 68c28 0 41 -17 41 -31c0 -16 -7 -26 -25 -32zM659 219
c22 3 45 14 45 51c0 10 -3 20 -13 20c-19 0 -32 -38 -32 -48v-23zM909 250c14 0 26 -10 26 -24c0 -13 -12 -23 -26 -23s-25 10 -25 23c0 14 11 24 25 24zM554 194c-13 -3 -41 -12 -41 -32c0 -10 7 -14 14 -14c22 0 26 26 27 46zM100 264c18 0 37 6 37 21c0 4 -1 13 -13 13
c-14 0 -22 -18 -24 -34zM1122 264c18 0 37 6 37 21c0 4 -1 13 -13 13c-14 0 -22 -18 -24 -34zM799 264c18 0 37 6 37 21c0 4 -1 13 -13 13c-14 0 -22 -18 -24 -34z" />
    </font>
</defs>
</svg>
